{
classes = (
{
code = "zero one two three four five six seven eight nine A B C D E F G H I J K L M N O P Q R S T U V W X Y Z uni0410 uni0411 uni0412 uni0413 uni0414 uni0415 uni0416 uni0417 uni0418 uni0419 uni041A uni041B uni041C uni041D uni041E uni041F uni0420 uni0421 uni0422 uni0423 uni0424 uni0425 uni0426 uni0427 uni0428 uni0429 uni042A uni042B uni042C uni042D uni042E uni042F uni0401 K_alt W_alt Acircumflex Adieresis Ccedilla Ecircumflex Icircumflex Odieresis Udieresis Abreve Idotaccent Scedilla uni0162 uni0218 uni021A uni04C1";
name = calt1;
},
{
code = "o a c d e g q s u y t acircumflex adieresis ccedilla ecircumflex odieresis udieresis u_alt y_alt s_alt c_alt t_alt t2.alt g_alt a_alt abreve scedilla uni0163 uni0219 uni021B uni0430 uni0431 uni0435 uni0437 uni043E uni0441 uni0444 uni044D uni0451 space zero one three five six seven eight nine f v endash emdash uni00AD hyphen.uc uni00AD.uc endash.uc emdash.uc minus hyphen t0163.alt t021b.alt a2_alt a00E2.alt a00E4.alt a0103.alt";
name = calt2;
},
{
code = "uniE000 uniE001 uniE002 uniE003 uniE004 uniE005 uniE006 uniE007 uniE008 uniE009 uniE010 uniE011 uniE012 uniE013 uniE014 uniE015 uniE016 uniE017 uniE018 uniE019 uniE020 uniE021 uniE022";
name = tnum1;
},
{
code = "zero one two three four five six seven eight nine period comma colon semicolon quotesingle quotedbl quoteright quotedblright quoteleft quotedblleft quotesinglbase quotedblbase colon.uc";
name = pnum1;
}
);
copyright = "Copyright (c) 2021-2022, Dmitri Voloshin, Andrey Kudryavtsev";
designer = "Andrey Kudryavtsev";
designerURL = "https://onest.md";
familyName = Onest;
customParameters = (
{
name = glyphOrder;
value = (
.notdef,
uni0000,
uni000D,
space,
B,
D,
E,
F,
H,
I,
L,
M,
N,
P,
R,
U,
V,
W,
X,
Y,
Z,
b,
d,
h,
i,
l,
m,
n,
p,
q,
u,
v,
w,
x,
z,
period,
comma,
A,
breve,
circumflex,
uni0326,
exclam,
quotedbl,
quotesingle,
numbersign,
percent,
asterisk,
plus,
slash,
colon,
semicolon,
less,
equal,
greater,
at,
bracketleft,
bracketright,
backslash,

glyphs = (
{
color = (166, 255, 153, 255);
glyphname = B;
layers = (
{
layerId = "0CBE557D-C54C-47B4-BFAF-0B1C1BA95C16";
paths = (
{
closed = 1;
nodes = (
"92 707 LINE",
"331 707 LINE",
"375 707 OFFCURVE",
"456 694 OFFCURVE",
"519 658 OFFCURVE",
"557 592 OFFCURVE",
"557 539 QCURVE",
"557 470 OFFCURVE",
"480 385 OFFCURVE",
"419 369 QCURVE",
"458 366 OFFCURVE",
"523 337 OFFCURVE",
"570 291 OFFCURVE",
"596 226 OFFCURVE",
"596 187 QCURVE",
"596 130 OFFCURVE",
"548 57 OFFCURVE",
"470 16 OFFCURVE",
"373 0 OFFCURVE",
"325 0 QCURVE",
"92 0 LINE"
);
},
{
closed = 1;
nodes = (
"134 669 LINE",
"134 380 LINE",
"298 380 LINE",
"335 380 OFFCURVE",
"413 395 OFFCURVE",
"477 430 OFFCURVE",
"518 490 OFFCURVE",
"518 535 QCURVE",
"518 579 OFFCURVE",
"487 632 OFFCURVE",
"435 660 OFFCURVE",
"368 669 OFFCURVE",
"332 669 QCURVE"
);
},
{
closed = 1;
nodes = (
"322 38 LINE",
"361 38 OFFCURVE",
"444 46 OFFCURVE",
"511 77 OFFCURVE",
"554 137 OFFCURVE",
"554 190 QCURVE",
"554 236 OFFCURVE",
"517 295 OFFCURVE",
"457 329 OFFCURVE",
"382 343 OFFCURVE",
"344 343 QCURVE",
"134 343 LINE",
"134 38 LINE"
);
}
);
width = 651;
}
);
leftKerningGroup = _kern1;
unicode = 0042;
},
{
color = (166, 255, 153, 255);
glyphname = D;
layers = (
{
layerId = "0CBE557D-C54C-47B4-BFAF-0B1C1BA95C16";
paths = (
{
closed = 1;
nodes = (
"93 707 LINE",
"336 707 LINE",
"418 707 OFFCURVE",
"541 656 OFFCURVE",
"623 563 OFFCURVE",
"665 432 OFFCURVE",
"665 353 QCURVE",
"665 275 OFFCURVE",
"623 145 OFFCURVE",
"540 52 OFFCURVE",
"417 0 OFFCURVE",
"336 0 QCURVE",
"93 0 LINE"
);
},
{
closed = 1;
nodes = (
"135 669 LINE",
"135 38 LINE",
"328 38 LINE",
"401 38 OFFCURVE",
"510 83 OFFCURVE",
"584 167 OFFCURVE",
"621 283 OFFCURVE",
"621 353 QCURVE",
"621 421 OFFCURVE",
"586 537 OFFCURVE",
"515 622 OFFCURVE",
"407 669 OFFCURVE",
"335 669 QCURVE"
);
}
);
width = 720;
}
);
leftKerningGroup = _kern1;
rightKerningGroup = _kern4;
unicode = 0044;
},
{
color = (166, 255, 153, 255);
glyphname = E;
layers = (
{
layerId = "0CBE557D-C54C-47B4-BFAF-0B1C1BA95C16";
paths = (
{
closed = 1;
nodes = (
"93 707 LINE",
"549 707 LINE",
"549 669 LINE",
"135 669 LINE",
"135 370 LINE",
"507 370 LINE",
"507 332 LINE",
"135 332 LINE",
"135 38 LINE",
"549 38 LINE",
"549 0 LINE",
"93 0 LINE"
);
}
);
width = 603;
}
);
leftKerningGroup = _kern1;
unicode = 0045;
},
{
color = (166, 255, 153, 255);
glyphname = F;
layers = (
{
layerId = "0CBE557D-C54C-47B4-BFAF-0B1C1BA95C16";
paths = (
{
closed = 1;
nodes = (
"93 0 LINE",
"93 707 LINE",
"549 707 LINE",
"549 669 LINE",
"135 669 LINE",
"135 346 LINE",
"489 346 LINE",
"489 309 LINE",
"135 309 LINE",
"135 0 LINE"
);
}
);
width = 592;
}
);
leftKerningGroup = _kern1;
unicode = 0046;
},
{
color = (166, 255, 153, 255);
glyphname = H;
layers = (
{
layerId = "0CBE557D-C54C-47B4-BFAF-0B1C1BA95C16";
paths = (
{
closed = 1;
nodes = (
"590 365 LINE",
"590 707 LINE",
"632 707 LINE",
"632 0 LINE",
"590 0 LINE",
"590 328 LINE",
"135 328 LINE",
"135 0 LINE",
"93 0 LINE",
"93 707 LINE",
"135 707 LINE",
"135 365 LINE"
);
}
);
width = 725;
}
);
leftKerningGroup = _kern1;
rightKerningGroup = _kern2;
unicode = 0048;
},
{
color = (166, 255, 153, 255);
glyphname = I;
layers = (
{
layerId = "0CBE557D-C54C-47B4-BFAF-0B1C1BA95C16";
paths = (
{
closed = 1;
nodes = (
"135 0 LINE",
"93 0 LINE",
"93 707 LINE",
"135 707 LINE"
);
}
);
width = 228;
}
);
leftKerningGroup = _kern1;
rightKerningGroup = _kern2;
unicode = 0049;
},
{
color = (166, 255, 153, 255);
glyphname = L;
layers = (
{
layerId = "0CBE557D-C54C-47B4-BFAF-0B1C1BA95C16";
paths = (
{
closed = 1;
nodes = (
"93 0 LINE",
"93 707 LINE",
"135 707 LINE",
"135 38 LINE",
"549 38 LINE",
"549 0 LINE"
);
}
);
width = 568;
}
);
unicode = 004C;
},
{
color = (166, 255, 153, 255);
glyphname = M;
layers = (
{
layerId = "0CBE557D-C54C-47B4-BFAF-0B1C1BA95C16";
paths = (
{
closed = 1;
nodes = (
"742 707 LINE",
"742 0 LINE",
"700 0 LINE",
"700 657 LINE",
"431 195 LINE",
"409 195 LINE",
"135 657 LINE",
"135 0 LINE",
"93 0 LINE",
"93 707 LINE",
"153 707 LINE",
"421 255 LINE",
"683 707 LINE"
);
}
);
width = 835;
}
);
leftKerningGroup = _kern1;
rightKerningGroup = _kern2;
unicode = 004D;
},
{
color = (166, 255, 153, 255);
glyphname = N;
layers = (
{
layerId = "0CBE557D-C54C-47B4-BFAF-0B1C1BA95C16";
paths = (
{
closed = 1;
nodes = (
"93 707 LINE",
"154 707 LINE",
"609 49 LINE",
"609 707 LINE",
"651 707 LINE",
"651 0 LINE",
"593 0 LINE",
"135 659 LINE",
"135 0 LINE",
"93 0 LINE"
);
}
);
width = 744;
}
);
leftKerningGroup = _kern1;
rightKerningGroup = _kern2;
unicode = 004E;
},
{
color = (166, 255, 153, 255);
glyphname = P;
layers = (
{
layerId = "0CBE557D-C54C-47B4-BFAF-0B1C1BA95C16";
paths = (
{
closed = 1;
nodes = (
"93 707 LINE",
"328 707 LINE",
"441 707 OFFCURVE",
"569 597 OFFCURVE",
"569 480 QCURVE",
"569 421 OFFCURVE",
"529 335 OFFCURVE",
"459 278 OFFCURVE",
"363 250 OFFCURVE",
"308 250 QCURVE",
"135 250 LINE",
"135 0 LINE",
"93 0 LINE"
);
},
{
closed = 1;
nodes = (
"306 287 LINE",
"355 287 OFFCURVE",
"436 310 OFFCURVE",
"493 358 OFFCURVE",
"525 432 OFFCURVE",
"525 484 QCURVE",
"525 534 OFFCURVE",
"497 604 OFFCURVE",
"444 649 OFFCURVE",
"369 669 OFFCURVE",
"322 669 QCURVE",
"135 669 LINE",
"135 287 LINE"
);
}
);
width = 624;
}
);
leftKerningGroup = _kern1;
unicode = 0050;
},
{
color = (166, 255, 153, 255);
glyphname = R;
layers = (
{
layerId = "0CBE557D-C54C-47B4-BFAF-0B1C1BA95C16";
paths = (
{
closed = 1;
nodes = (
"135 286 LINE",
"135 0 LINE",
"93 0 LINE",
"93 707 LINE",
"350 707 LINE",
"405 707 OFFCURVE",
"495 685 OFFCURVE",
"559 635 OFFCURVE",
"595 554 OFFCURVE",
"595 495 QCURVE",
"595 415 OFFCURVE",
"507 312 OFFCURVE",
"421 293 QCURVE",
"579 0 LINE",
"531 0 LINE",
"377 286 LINE"
);
},
{
closed = 1;
nodes = (
"322 323 LINE",
"366 323 OFFCURVE",
"449 337 OFFCURVE",
"513 375 OFFCURVE",
"551 444 OFFCURVE",
"551 498 QCURVE",
"551 549 OFFCURVE",
"519 615 OFFCURVE",
"462 654 OFFCURVE",
"385 669 OFFCURVE",
"340 669 QCURVE",
"135 669 LINE",
"135 323 LINE"
);
}
);
width = 654;
}
);
leftKerningGroup = _kern1;
unicode = 0052;
},
{
color = (166, 255, 153, 255);
glyphname = U;
layers = (
{
layerId = "0CBE557D-C54C-47B4-BFAF-0B1C1BA95C16";
paths = (
{
closed = 1;
nodes = (
"630 707 LINE",
"630 299 LINE",
"630 231 OFFCURVE",
"599 119 OFFCURVE",
"534 37 OFFCURVE",
"431 -8 OFFCURVE",
"359 -8 QCURVE",
"287 -8 OFFCURVE",
"185 37 OFFCURVE",
"119 119 OFFCURVE",
"88 231 OFFCURVE",
"88 299 QCURVE",
"88 707 LINE",
"131 707 LINE",
"131 303 LINE",
"131 245 OFFCURVE",
"156 145 OFFCURVE",
"211 71 OFFCURVE",
"298 28 OFFCURVE",
"360 28 QCURVE",
"423 28 OFFCURVE",
"510 71 OFFCURVE",
"564 146 OFFCURVE",
"588 246 OFFCURVE",
"588 303 QCURVE",
"588 707 LINE"
);
}
);
width = 718;
}
);
unicode = 0055;
},
{
color = (166, 255, 153, 255);
glyphname = V;
layers = (
{
layerId = "0CBE557D-C54C-47B4-BFAF-0B1C1BA95C16";
paths = (
{
closed = 1;
nodes = (
"581 707 LINE",
"628 707 LINE",
"352 0 LINE",
"299 0 LINE",
"20 707 LINE",
"68 707 LINE",
"325 47 LINE"
);
}
);
width = 648;
}
);
unicode = 0056;
},
{
color = (166, 255, 153, 255);
glyphname = W;
layers = (
{
layerId = "0CBE557D-C54C-47B4-BFAF-0B1C1BA95C16";
paths = (
{
closed = 1;
nodes = (
"219 0 LINE",
"20 707 LINE",
"66 707 LINE",
"250 44 LINE",
"437 707 LINE",
"498 707 LINE",
"688 44 LINE",
"871 707 LINE",
"917 707 LINE",
"718 0 LINE",
"657 0 LINE",
"467 663 LINE",
"284 0 LINE"
);
}
);
width = 937;
}
);
leftKerningGroup = _kern19;
rightKerningGroup = _kern19;
unicode = 0057;
},
{
color = (166, 255, 153, 255);
glyphname = X;
layers = (
{
layerId = "0CBE557D-C54C-47B4-BFAF-0B1C1BA95C16";
paths = (
{
closed = 1;
nodes = (
"473 707 LINE",
"529 707 LINE",
"309 358 LINE",
"538 0 LINE",
"483 0 LINE",
"278 323 LINE",
"74 0 LINE",
"20 0 LINE",
"249 356 LINE",
"28 707 LINE",
"84 707 LINE",
"279 390 LINE"
);
}
);
width = 558;
}
);
unicode = 0058;
},
{
color = (166, 255, 153, 255);
glyphname = Y;
layers = (
{
layerId = "0CBE557D-C54C-47B4-BFAF-0B1C1BA95C16";
paths = (
{
closed = 1;
nodes = (
"514 707 LINE",
"563 707 LINE",
"314 267 LINE",
"314 0 LINE",
"272 0 LINE",
"272 267 LINE",
"20 707 LINE",
"72 707 LINE",
"293 310 LINE"
);
}
);
width = 583;
}
);
leftKerningGroup = _kern31;
rightKerningGroup = _kern31;
unicode = 0059;
},
{
color = (166, 255, 153, 255);
glyphname = Z;
layers = (
{
layerId = "0CBE557D-C54C-47B4-BFAF-0B1C1BA95C16";
paths = (
{
closed = 1;
nodes = (
"65 669 LINE",
"65 707 LINE",
"543 707 LINE",
"543 668 LINE",
"100 38 LINE",
"538 38 LINE",
"538 0 LINE",
"50 0 LINE",
"50 40 LINE",
"487 669 LINE"
);
}
);
width = 593;
}
);
unicode = 005A;
},
{
color = (166, 255, 153, 255);
glyphname = b;
layers = (
{
layerId = "0CBE557D-C54C-47B4-BFAF-0B1C1BA95C16";
paths = (
{
closed = 1;
nodes = (
"113 0 LINE",
"73 0 LINE",
"73 707 LINE",
"115 707 LINE",
"115 419 LINE",
"153 484 OFFCURVE",
"264 534 OFFCURVE",
"327 534 QCURVE",
"387 534 OFFCURVE",
"474 489 OFFCURVE",
"529 414 OFFCURVE",
"556 316 OFFCURVE",
"556 262 QCURVE",
"556 203 OFFCURVE",
"525 104 OFFCURVE",
"463 33 OFFCURVE",
"373 -7 OFFCURVE",
"315 -7 QCURVE",
"290 -7 OFFCURVE",
"234 1 OFFCURVE",
"180 25 OFFCURVE",
"131 69 OFFCURVE",
"113 105 QCURVE"
);
},
{
closed = 1;
nodes = (
"367 29 OFFCURVE",
"442 67 OFFCURVE",
"491 131 OFFCURVE",
"514 215 OFFCURVE",
"514 262 QCURVE",
"514 310 OFFCURVE",
"492 395 OFFCURVE",
"445 460 OFFCURVE",
"369 498 OFFCURVE",
"315 498 QCURVE",
"265 498 OFFCURVE",
"190 458 OFFCURVE",
"139 392 OFFCURVE",
"113 307 OFFCURVE",
"113 262 QCURVE",
"113 214 OFFCURVE",
"138 129 OFFCURVE",
"189 66 OFFCURVE",
"265 29 OFFCURVE",
"316 29 QCURVE"
);
}
);
width = 609;
}
);
rightKerningGroup = _kern6;
unicode = 0062;
},
{
color = (166, 255, 153, 255);
glyphname = d;
layers = (
{
layerId = "0CBE557D-C54C-47B4-BFAF-0B1C1BA95C16";
paths = (
{
closed = 1;
nodes = (
"494 707 LINE",
"536 707 LINE",
"536 0 LINE",
"494 0 LINE",
"494 113 LINE",
"476 79 OFFCURVE",
"427 33 OFFCURVE",
"371 5 OFFCURVE",
"311 -7 OFFCURVE",
"284 -7 QCURVE",
"221 -7 OFFCURVE",
"133 37 OFFCURVE",
"78 110 OFFCURVE",
"53 208 OFFCURVE",
"53 262 QCURVE",
"53 323 OFFCURVE",
"86 424 OFFCURVE",
"148 495 OFFCURVE",
"238 534 OFFCURVE",
"295 534 QCURVE",
"321 534 OFFCURVE",
"377 523 OFFCURVE",
"430 497 OFFCURVE",
"477 456 OFFCURVE",
"494 426 QCURVE"
);
},
{
closed = 1;
nodes = (
"241 498 OFFCURVE",
"166 459 OFFCURVE",
"118 395 OFFCURVE",
"95 311 OFFCURVE",
"95 265 QCURVE",
"95 222 OFFCURVE",
"112 138 OFFCURVE",
"155 71 OFFCURVE",
"230 29 OFFCURVE",
"288 29 QCURVE",
"338 29 OFFCURVE",
"415 67 OFFCURVE",
"468 132 OFFCURVE",
"496 218 OFFCURVE",
"496 266 QCURVE",
"496 314 OFFCURVE",
"471 398 OFFCURVE",
"420 461 OFFCURVE",
"344 498 OFFCURVE",
"293 498 QCURVE"
);
}
);
width = 609;
}
);
leftKerningGroup = _kern5;
unicode = 0064;
},
{
color = (166, 255, 153, 255);
glyphname = h;
layers = (
{
layerId = "0CBE557D-C54C-47B4-BFAF-0B1C1BA95C16";
paths = (
{
closed = 1;
nodes = (
"73 0 LINE",
"73 707 LINE",
"115 707 LINE",
"115 423 LINE",
"150 482 OFFCURVE",
"254 534 OFFCURVE",
"316 534 QCURVE",
"373 534 OFFCURVE",
"451 496 OFFCURVE",
"499 430 OFFCURVE",
"520 342 OFFCURVE",
"520 292 QCURVE",
"520 0 LINE",
"478 0 LINE",
"478 267 LINE",
"478 310 OFFCURVE",
"466 394 OFFCURVE",
"431 458 OFFCURVE",
"367 498 OFFCURVE",
"315 498 QCURVE",
"265 498 OFFCURVE",
"190 460 OFFCURVE",
"140 397 OFFCURVE",
"115 314 OFFCURVE",
"115 268 QCURVE",
"115 0 LINE"
);
}
);
width = 590;
}
);
unicode = 0068;
},
{
color = (166, 255, 153, 255);
glyphname = i;
layers = (
{
layerId = "0CBE557D-C54C-47B4-BFAF-0B1C1BA95C16";
paths = (
{
closed = 1;
nodes = (
"123 726 OFFCURVE",
"145 704 OFFCURVE",
"145 687 QCURVE",
"145 669 OFFCURVE",
"123 648 OFFCURVE",
"105 648 QCURVE",
"88 648 OFFCURVE",
"65 669 OFFCURVE",
"65 687 QCURVE",
"65 706 OFFCURVE",
"88 726 OFFCURVE",
"105 726 QCURVE"
);
},
{
closed = 1;
nodes = (
"83 527 LINE",
"125 527 LINE",
"125 0 LINE",
"83 0 LINE"
);
}
);
width = 210;
}
);
unicode = 0069;
},
{
color = (166, 255, 153, 255);
glyphname = l;
layers = (
{
layerId = "0CBE557D-C54C-47B4-BFAF-0B1C1BA95C16";
paths = (
{
closed = 1;
nodes = (
"75 0 LINE",
"75 707 LINE",
"117 707 LINE",
"117 0 LINE"
);
}
);
width = 192;
}
);
unicode = 006C;
},
{
color = (166, 255, 153, 255);
glyphname = m;
layers = (
{
layerId = "0CBE557D-C54C-47B4-BFAF-0B1C1BA95C16";
paths = (
{
closed = 1;
nodes = (
"112 428 LINE",
"127 462 OFFCURVE",
"169 504 OFFCURVE",
"214 527 OFFCURVE",
"258 534 OFFCURVE",
"277 534 QCURVE",
"336 534 OFFCURVE",
"418 466 OFFCURVE",
"432 401 QCURVE",
"436 423 OFFCURVE",
"461 470 OFFCURVE",
"503 509 OFFCURVE",
"562 534 OFFCURVE",
"601 534 QCURVE",
"645 534 OFFCURVE",
"709 507 OFFCURVE",
"750 458 OFFCURVE",
"769 390 OFFCURVE",
"769 350 QCURVE",
"769 0 LINE",
"727 0 LINE",
"727 322 LINE",
"727 356 OFFCURVE",
"719 420 OFFCURVE",
"693 469 OFFCURVE",
"642 498 OFFCURVE",
"600 498 QCURVE",
"558 498 OFFCURVE",
"500 459 OFFCURVE",
"464 398 OFFCURVE",
"448 323 OFFCURVE",
"448 286 QCURVE",
"448 0 LINE",
"406 0 LINE",
"406 299 LINE",
"406 332 OFFCURVE",
"397 402 OFFCURVE",
"368 460 OFFCURVE",
"316 498 OFFCURVE",
"274 498 QCURVE",
"231 498 OFFCURVE",
"170 461 OFFCURVE",
"132 400 OFFCURVE",
"115 319 OFFCURVE",
"115 275 QCURVE",
"115 0 LINE",
"73 0 LINE",
"73 527 LINE",
"112 527 LINE"
);
}
);
width = 839;
}
);
unicode = 006D;
},
{
color = (166, 255, 153, 255);
glyphname = n;
layers = (
{
layerId = "0CBE557D-C54C-47B4-BFAF-0B1C1BA95C16";
paths = (
{
closed = 1;
nodes = (
"73 0 LINE",
"73 527 LINE",
"115 527 LINE",
"115 423 LINE",
"150 482 OFFCURVE",
"254 534 OFFCURVE",
"316 534 QCURVE",
"373 534 OFFCURVE",
"451 496 OFFCURVE",
"499 430 OFFCURVE",
"520 342 OFFCURVE",
"520 292 QCURVE",
"520 0 LINE",
"478 0 LINE",
"478 267 LINE",
"478 310 OFFCURVE",
"466 394 OFFCURVE",
"431 458 OFFCURVE",
"367 498 OFFCURVE",
"315 498 QCURVE",
"265 498 OFFCURVE",
"190 460 OFFCURVE",
"140 397 OFFCURVE",
"115 314 OFFCURVE",
"115 268 QCURVE",
"115 0 LINE"
);
}
);
width = 590;
}
);
unicode = 006E;
},
{
color = (166, 255, 153, 255);
glyphname = p;
layers = (
{
layerId = "0CBE557D-C54C-47B4-BFAF-0B1C1BA95C16";
paths = (
{
closed = 1;
nodes = (
"115 -206 LINE",
"73 -206 LINE",
"73 527 LINE",
"115 527 LINE",
"115 423 LINE",
"154 482 OFFCURVE",
"255 534 OFFCURVE",
"323 534 QCURVE",
"383 534 OFFCURVE",
"471 490 OFFCURVE",
"528 415 OFFCURVE",
"556 315 OFFCURVE",
"556 259 QCURVE",
"556 199 OFFCURVE",
"526 100 OFFCURVE",
"466 31 OFFCURVE",
"378 -7 OFFCURVE",
"320 -7 QCURVE",
"296 -7 OFFCURVE",
"240 1 OFFCURVE",
"184 24 OFFCURVE",
"134 65 OFFCURVE",
"115 98 QCURVE"
);
},
{
closed = 1;
nodes = (
"375 29 OFFCURVE",
"448 67 OFFCURVE",
"493 131 OFFCURVE",
"514 215 OFFCURVE",
"514 262 QCURVE",
"514 310 OFFCURVE",
"492 395 OFFCURVE",
"445 460 OFFCURVE",
"369 498 OFFCURVE",
"315 498 QCURVE",
"265 498 OFFCURVE",
"190 458 OFFCURVE",
"139 392 OFFCURVE",
"113 307 OFFCURVE",
"113 262 QCURVE",
"113 212 OFFCURVE",
"140 127 OFFCURVE",
"192 65 OFFCURVE",
"271 29 OFFCURVE",
"323 29 QCURVE"
);
}
);
width = 609;
}
);
rightKerningGroup = _kern6;
unicode = 0070;
},
{
color = (166, 255, 153, 255);
glyphname = q;
layers = (
{
layerId = "0CBE557D-C54C-47B4-BFAF-0B1C1BA95C16";
paths = (
{
closed = 1;
nodes = (
"494 527 LINE",
"536 527 LINE",
"536 -206 LINE",
"494 -206 LINE",
"494 107 LINE",
"464 53 OFFCURVE",
"362 -7 OFFCURVE",
"288 -7 QCURVE",
"218 -7 OFFCURVE",
"127 44 OFFCURVE",
"74 123 OFFCURVE",
"53 219 OFFCURVE",
"53 264 QCURVE",
"53 318 OFFCURVE",
"85 416 OFFCURVE",
"146 490 OFFCURVE",
"236 534 OFFCURVE",
"293 534 QCURVE",
"365 534 OFFCURVE",
"461 476 OFFCURVE",
"493 429 QCURVE"
);
},
{
closed = 1;
nodes = (
"243 498 OFFCURVE",
"168 459 OFFCURVE",
"119 394 OFFCURVE",
"95 310 OFFCURVE",
"95 265 QCURVE",
"95 217 OFFCURVE",
"117 131 OFFCURVE",
"165 66 OFFCURVE",
"242 29 OFFCURVE",
"296 29 QCURVE",
"346 29 OFFCURVE",
"421 69 OFFCURVE",
"471 135 OFFCURVE",
"496 220 OFFCURVE",
"496 265 QCURVE",
"496 313 OFFCURVE",
"471 398 OFFCURVE",
"422 461 OFFCURVE",
"346 498 OFFCURVE",
"295 498 QCURVE"
);
}
);
width = 609;
}
);
leftKerningGroup = _kern5;
unicode = 0071;
},
{
color = (166, 255, 153, 255);
glyphname = u;
layers = (
{
layerId = "0CBE557D-C54C-47B4-BFAF-0B1C1BA95C16";
paths = (
{
closed = 1;
nodes = (
"331 29 OFFCURVE",
"398 57 OFFCURVE",
"438 109 OFFCURVE",
"456 182 OFFCURVE",
"456 226 QCURVE",
"456 527 LINE",
"498 527 LINE",
"498 227 LINE",
"498 116 OFFCURVE",
"398 -7 OFFCURVE",
"283 -7 QCURVE",
"171 -7 OFFCURVE",
"71 115 OFFCURVE",
"71 227 QCURVE",
"71 527 LINE",
"113 527 LINE",
"113 226 LINE",
"113 184 OFFCURVE",
"131 111 OFFCURVE",
"171 59 OFFCURVE",
"236 29 OFFCURVE",
"283 29 QCURVE"
);
}
);
width = 569;
}
);
unicode = 0075;
},
{
color = (166, 255, 153, 255);
glyphname = v;
layers = (
{
layerId = "0CBE557D-C54C-47B4-BFAF-0B1C1BA95C16";
paths = (
{
closed = 1;
nodes = (
"13 527 LINE",
"61 527 LINE",
"254 36 LINE",
"448 527 LINE",
"495 527 LINE",
"282 0 LINE",
"223 0 LINE"
);
}
);
width = 508;
}
);
unicode = 0076;
},
{
color = (166, 255, 153, 255);
glyphname = w;
layers = (
{
layerId = "0CBE557D-C54C-47B4-BFAF-0B1C1BA95C16";
paths = (
{
closed = 1;
nodes = (
"591 36 LINE",
"737 527 LINE",
"783 527 LINE",
"622 0 LINE",
"559 0 LINE",
"402 492 LINE",
"244 0 LINE",
"178 0 LINE",
"19 527 LINE",
"64 527 LINE",
"212 36 LINE",
"367 527 LINE",
"436 527 LINE"
);
}
);
width = 802;
}
);
leftKerningGroup = _kern20;
rightKerningGroup = _kern20;
unicode = 0077;
},
{
color = (166, 255, 153, 255);
glyphname = x;
layers = (
{
layerId = "0CBE557D-C54C-47B4-BFAF-0B1C1BA95C16";
paths = (
{
closed = 1;
nodes = (
"242 239 LINE",
"72 0 LINE",
"20 0 LINE",
"213 268 LINE",
"34 527 LINE",
"86 527 LINE",
"244 296 LINE",
"400 527 LINE",
"452 527 LINE",
"273 271 LINE",
"465 0 LINE",
"412 0 LINE"
);
}
);
width = 485;
}
);
unicode = 0078;
},
{
color = (166, 255, 153, 255);
glyphname = z;
layers = (
{
layerId = "0CBE557D-C54C-47B4-BFAF-0B1C1BA95C16";
paths = (
{
closed = 1;
nodes = (
"469 485 LINE",
"97 36 LINE",
"469 36 LINE",
"469 0 LINE",
"53 0 LINE",
"53 43 LINE",
"422 492 LINE",
"58 492 LINE",
"58 527 LINE",
"469 527 LINE"
);
}
);
width = 522;
}
);
unicode = 007A;
},
{
color = (166, 255, 153, 255);
glyphname = period;
layers = (
{
layerId = "0CBE557D-C54C-47B4-BFAF-0B1C1BA95C16";
paths = (
{
closed = 1;
nodes = (
"131 73 OFFCURVE",
"153 51 OFFCURVE",
"153 33 QCURVE",
"153 16 OFFCURVE",
"132 -8 OFFCURVE",
"113 -8 QCURVE",
"94 -8 OFFCURVE",
"73 16 OFFCURVE",
"73 33 QCURVE",
"73 51 OFFCURVE",
"95 73 OFFCURVE",
"113 73 QCURVE"
);
}
);
width = 226;
}
);
leftKerningGroup = _kern14;
rightKerningGroup = _kern14;
unicode = 002E;
},
{
color = (166, 255, 153, 255);
glyphname = comma;
layers = (
{
layerId = "0CBE557D-C54C-47B4-BFAF-0B1C1BA95C16";
paths = (
{
closed = 1;
nodes = (
"139 73 OFFCURVE",
"158 38 OFFCURVE",
"158 18 QCURVE",
"158 -23 OFFCURVE",
"117 -89 OFFCURVE",
"83 -108 QCURVE",
"68 -88 LINE",
"85 -78 OFFCURVE",
"119 -36 OFFCURVE",
"123 -6 QCURVE",
"117 -8 OFFCURVE",
"99 -6 OFFCURVE",
"83 2 OFFCURVE",
"72 19 OFFCURVE",
"72 33 QCURVE",
"72 50 OFFCURVE",
"95 73 OFFCURVE",
"114 73 QCURVE"
);
}
);
width = 230;
}
);
leftKerningGroup = _kern14;
rightKerningGroup = _kern14;
unicode = 002C;
},
{
color = (166, 255, 153, 255);
glyphname = A;
layers = (
{
layerId = "0CBE557D-C54C-47B4-BFAF-0B1C1BA95C16";
paths = (
{
closed = 1;
nodes = (
"294 707 LINE",
"341 707 LINE",
"622 0 LINE",
"573 0 LINE",
"509 163 LINE",
"127 163 LINE",
"64 0 LINE",
"16 0 LINE"
);
},
{
closed = 1;
nodes = (
"141 200 LINE",
"494 200 LINE",
"318 657 LINE"
);
}
);
width = 638;
}
);
leftKerningGroup = _kern30;
rightKerningGroup = _kern30;
unicode = 0041;
},
{
color = (248, 153, 255, 255);
glyphname = breve;
layers = (
{
layerId = "0CBE557D-C54C-47B4-BFAF-0B1C1BA95C16";
paths = (
{
closed = 1;
nodes = (
"159 735 LINE",
"167 694 OFFCURVE",
"227 669 OFFCURVE",
"267 669 QCURVE",
"306 669 OFFCURVE",
"367 694 OFFCURVE",
"375 735 QCURVE",
"414 735 LINE",
"410 706 OFFCURVE",
"383 668 OFFCURVE",
"343 645 OFFCURVE",
"293 636 OFFCURVE",
"266 636 QCURVE",
"239 636 OFFCURVE",
"189 645 OFFCURVE",
"150 667 OFFCURVE",
"124 706 OFFCURVE",
"120 735 QCURVE"
);
}
);
width = 534;
}
);
unicode = 02D8;
},
{
color = (248, 153, 255, 255);
glyphname = circumflex;
layers = (
{
layerId = "0CBE557D-C54C-47B4-BFAF-0B1C1BA95C16";
paths = (
{
closed = 1;
nodes = (
"337 636 LINE",
"252 734 LINE",
"170 636 LINE",
"126 636 LINE",
"237 763 LINE",
"269 763 LINE",
"380 636 LINE"
);
}
);
width = 506;
}
);
unicode = 02C6;
},
{
color = (248, 153, 255, 255);
glyphname = uni0326;
layers = (
{
layerId = "0CBE557D-C54C-47B4-BFAF-0B1C1BA95C16";
paths = (
{
closed = 1;
nodes = (
"-263 -119 OFFCURVE",
"-240 -151 OFFCURVE",
"-240 -172 QCURVE",
"-240 -215 OFFCURVE",
"-281 -281 OFFCURVE",
"-315 -300 QCURVE",
"-330 -280 LINE",
"-313 -270 OFFCURVE",
"-279 -228 OFFCURVE",
"-275 -198 QCURVE",
"-281 -200 OFFCURVE",
"-299 -198 OFFCURVE",
"-315 -190 OFFCURVE",
"-326 -173 OFFCURVE",
"-326 -159 QCURVE",
"-326 -142 OFFCURVE",
"-303 -119 OFFCURVE",
"-285 -119 QCURVE"
);
}
);
width = 0;
}
);
unicode = 0326;
},
{
color = (166, 255, 153, 255);
glyphname = exclam;
layers = (
{
layerId = "0CBE557D-C54C-47B4-BFAF-0B1C1BA95C16";
paths = (
{
closed = 1;
nodes = (
"139 72 OFFCURVE",
"162 51 OFFCURVE",
"162 31 QCURVE",
"162 13 OFFCURVE",
"140 -8 OFFCURVE",
"123 -8 QCURVE",
"104 -8 OFFCURVE",
"82 14 OFFCURVE",
"82 32 QCURVE",
"82 51 OFFCURVE",
"104 72 OFFCURVE",
"123 72 QCURVE"
);
},
{
closed = 1;
nodes = (
"104 177 LINE",
"102 707 LINE",
"143 707 LINE",
"141 177 LINE"
);
}
);
width = 244;
}
);
unicode = 0021;
},
{
color = (166, 255, 153, 255);
glyphname = quotedbl;
layers = (
{
layerId = "0CBE557D-C54C-47B4-BFAF-0B1C1BA95C16";
paths = (
{
closed = 1;
nodes = (
"104 503 LINE",
"69 503 LINE",
"63 707 LINE",
"109 707 LINE"
);
},
{
closed = 1;
nodes = (
"231 503 LINE",
"196 503 LINE",
"189 707 LINE",
"236 707 LINE"
);
}
);
width = 299;
}
);
unicode = 0022;
},
{
color = (166, 255, 153, 255);
glyphname = quotesingle;
layers = (
{
layerId = "0CBE557D-C54C-47B4-BFAF-0B1C1BA95C16";
paths = (
{
closed = 1;
nodes = (
"104 503 LINE",
"69 503 LINE",
"63 707 LINE",
"109 707 LINE"
);
}
);
width = 172;
}
);
unicode = 0027;
},
{
color = (166, 255, 153, 255);
glyphname = numbersign;
layers = (
{
layerId = "0CBE557D-C54C-47B4-BFAF-0B1C1BA95C16";
paths = (
{
closed = 1;
nodes = (
"65 229 LINE",
"173 229 LINE",
"200 479 LINE",
"96 479 LINE",
"96 514 LINE",
"203 514 LINE",
"223 707 LINE",
"265 707 LINE",
"245 514 LINE",
"440 514 LINE",
"460 707 LINE",
"501 707 LINE",
"480 514 LINE",
"585 514 LINE",
"585 479 LINE",
"476 479 LINE",
"449 229 LINE",
"554 229 LINE",
"554 194 LINE",
"446 194 LINE",
"425 0 LINE",
"385 0 LINE",
"405 194 LINE",
"210 194 LINE",
"190 0 LINE",
"149 0 LINE",
"169 194 LINE",
"65 194 LINE"
);
},
{
closed = 1;
nodes = (
"214 229 LINE",
"410 229 LINE",
"436 479 LINE",
"240 479 LINE"
);
}
);
width = 650;
}
);
unicode = 0023;
},
{
color = (166, 255, 153, 255);
glyphname = percent;
layers = (
{
layerId = "0CBE557D-C54C-47B4-BFAF-0B1C1BA95C16";
paths = (
{
closed = 1;
nodes = (
"152 0 LINE",
"588 707 LINE",
"636 707 LINE",
"201 0 LINE"
);
},
{
closed = 1;
nodes = (
"131 429 OFFCURVE",
"65 510 OFFCURVE",
"65 572 QCURVE",
"65 634 OFFCURVE",
"131 715 OFFCURVE",
"196 715 QCURVE",
"228 715 OFFCURVE",
"276 691 OFFCURVE",
"308 652 OFFCURVE",
"324 600 OFFCURVE",
"324 572 QCURVE",
"324 543 OFFCURVE",
"307 491 OFFCURVE",
"274 452 OFFCURVE",
"225 429 OFFCURVE",
"194 429 QCURVE"
);
},
{
closed = 1;
nodes = (
"170 680 OFFCURVE",
"135 662 OFFCURVE",
"113 632 OFFCURVE",
"103 593 OFFCURVE",
"103 572 QCURVE",
"103 551 OFFCURVE",
"113 512 OFFCURVE",
"135 482 OFFCURVE",
"170 464 OFFCURVE",
"196 464 QCURVE",
"222 464 OFFCURVE",
"256 483 OFFCURVE",
"277 514 OFFCURVE",
"285 552 OFFCURVE",
"285 572 QCURVE",
"285 591 OFFCURVE",
"277 629 OFFCURVE",
"256 660 OFFCURVE",
"222 680 OFFCURVE",
"196 680 QCURVE"
);
},
{
closed = 1;
nodes = (
"530 -8 OFFCURVE",
"464 73 OFFCURVE",
"464 135 QCURVE",
"464 197 OFFCURVE",
"530 278 OFFCURVE",
"595 278 QCURVE",
"627 278 OFFCURVE",
"675 254 OFFCURVE",
"707 215 OFFCURVE",
"723 163 OFFCURVE",
"723 135 QCURVE",
"723 106 OFFCURVE",
"706 54 OFFCURVE",
"673 15 OFFCURVE",
"624 -8 OFFCURVE",
"593 -8 QCURVE"
);
},
{
closed = 1;
nodes = (
"569 243 OFFCURVE",
"534 225 OFFCURVE",
"512 195 OFFCURVE",
"502 156 OFFCURVE",
"502 135 QCURVE",
"502 114 OFFCURVE",
"512 75 OFFCURVE",
"534 45 OFFCURVE",
"569 27 OFFCURVE",
"595 27 QCURVE",
"621 27 OFFCURVE",
"655 46 OFFCURVE",
"676 77 OFFCURVE",
"684 115 OFFCURVE",
"684 135 QCURVE",
"684 154 OFFCURVE",
"676 192 OFFCURVE",
"655 223 OFFCURVE",
"621 243 OFFCURVE",
"595 243 QCURVE"
);
}
);
width = 789;
}
);
unicode = 0025;
},
{
color = (166, 255, 153, 255);
glyphname = asterisk;
layers = (
{
layerId = "0CBE557D-C54C-47B4-BFAF-0B1C1BA95C16";
paths = (
{
closed = 1;
nodes = (
"218 629 LINE",
"321 663 LINE",
"331 635 LINE",
"227 602 LINE",
"292 513 LINE",
"267 497 LINE",
"202 586 LINE",
"137 497 LINE",
"112 513 LINE",
"178 603 LINE",
"73 635 LINE",
"82 663 LINE",
"187 629 LINE",
"187 739 LINE",
"218 739 LINE"
);
}
);
width = 404;
}
);
unicode = 002A;
},
{
color = (166, 255, 153, 255);
glyphname = plus;
layers = (
{
layerId = "0CBE557D-C54C-47B4-BFAF-0B1C1BA95C16";
paths = (
{
closed = 1;
nodes = (
"274 536 LINE",
"274 374 LINE",
"428 374 LINE",
"428 336 LINE",
"274 336 LINE",
"274 171 LINE",
"231 171 LINE",
"231 336 LINE",
"80 336 LINE",
"80 374 LINE",
"231 374 LINE",
"231 536 LINE"
);
}
);
width = 508;
}
);
unicode = 002B;
},
{
color = (166, 255, 153, 255);
glyphname = slash;
layers = (
{
layerId = "0CBE557D-C54C-47B4-BFAF-0B1C1BA95C16";
paths = (
{
closed = 1;
nodes = (
"354 807 LINE",
"401 807 LINE",
"86 -178 LINE",
"39 -178 LINE"
);
}
);
width = 440;
}
);
unicode = 002F;
},
{
color = (166, 255, 153, 255);
glyphname = colon;
layers = (
{
layerId = "0CBE557D-C54C-47B4-BFAF-0B1C1BA95C16";
paths = (
{
closed = 1;
nodes = (
"132 450 OFFCURVE",
"153 427 OFFCURVE",
"153 409 QCURVE",
"153 391 OFFCURVE",
"133 368 OFFCURVE",
"113 368 QCURVE",
"93 368 OFFCURVE",
"73 391 OFFCURVE",
"73 409 QCURVE",
"73 427 OFFCURVE",
"94 450 OFFCURVE",
"113 450 QCURVE"
);
},
{
closed = 1;
nodes = (
"132 73 OFFCURVE",
"153 50 OFFCURVE",
"153 32 QCURVE",
"153 15 OFFCURVE",
"132 -8 OFFCURVE",
"113 -8 QCURVE",
"94 -8 OFFCURVE",
"73 15 OFFCURVE",
"73 32 QCURVE",
"73 50 OFFCURVE",
"94 73 OFFCURVE",
"113 73 QCURVE"
);
}
);
width = 226;
}
);
leftKerningGroup = _kern15;
unicode = 003A;
},
{
color = (166, 255, 153, 255);
glyphname = semicolon;
layers = (
{
layerId = "0CBE557D-C54C-47B4-BFAF-0B1C1BA95C16";
paths = (
{
closed = 1;
nodes = (
"134 450 OFFCURVE",
"157 427 OFFCURVE",
"157 409 QCURVE",
"157 391 OFFCURVE",
"135 368 OFFCURVE",
"115 368 QCURVE",
"97 368 OFFCURVE",
"75 391 OFFCURVE",
"75 409 QCURVE",
"75 427 OFFCURVE",
"97 450 OFFCURVE",
"115 450 QCURVE"
);
},
{
closed = 1;
nodes = (
"140 73 OFFCURVE",
"159 38 OFFCURVE",
"159 18 QCURVE",
"159 -23 OFFCURVE",
"118 -89 OFFCURVE",
"84 -108 QCURVE",
"69 -88 LINE",
"86 -78 OFFCURVE",
"120 -36 OFFCURVE",
"124 -6 QCURVE",
"118 -8 OFFCURVE",
"100 -6 OFFCURVE",
"84 2 OFFCURVE",
"73 19 OFFCURVE",
"73 33 QCURVE",
"73 50 OFFCURVE",
"96 73 OFFCURVE",
"115 73 QCURVE"
);
}
);
width = 230;
}
);
leftKerningGroup = _kern15;
unicode = 003B;
},
{
color = (166, 255, 153, 255);
glyphname = less;
layers = (
{
layerId = "0CBE557D-C54C-47B4-BFAF-0B1C1BA95C16";
paths = (
{
closed = 1;
nodes = (
"45 361 LINE",
"354 575 LINE",
"354 532 LINE",
"91 351 LINE",
"354 170 LINE",
"354 126 LINE",
"45 339 LINE"
);
}
);
width = 429;
}
);
unicode = 003C;
},
{
color = (166, 255, 153, 255);
glyphname = equal;
layers = (
{
layerId = "0CBE557D-C54C-47B4-BFAF-0B1C1BA95C16";
paths = (
{
closed = 1;
nodes = (
"75 240 LINE",
"454 240 LINE",
"454 203 LINE",
"75 203 LINE"
);
},
{
closed = 1;
nodes = (
"75 495 LINE",
"454 495 LINE",
"454 458 LINE",
"75 458 LINE"
);
}
);
width = 529;
}
);
unicode = 003D;
},
{
color = (166, 255, 153, 255);
glyphname = greater;
layers = (
{
layerId = "0CBE557D-C54C-47B4-BFAF-0B1C1BA95C16";
paths = (
{
closed = 1;
nodes = (
"384 339 LINE",
"75 126 LINE",
"75 170 LINE",
"338 350 LINE",
"75 532 LINE",
"75 575 LINE",
"384 361 LINE"
);
}
);
width = 429;
}
);
unicode = 003E;
},
{
color = (166, 255, 153, 255);
glyphname = at;
layers = (
{
layerId = "0CBE557D-C54C-47B4-BFAF-0B1C1BA95C16";
paths = (
{
closed = 1;
nodes = (
"624 109 OFFCURVE",
"583 71 OFFCURVE",
"539 49 OFFCURVE",
"493 41 OFFCURVE",
"472 41 QCURVE",
"430 41 OFFCURVE",
"368 71 OFFCURVE",
"328 123 OFFCURVE",
"308 192 OFFCURVE",
"308 231 QCURVE",
"308 277 OFFCURVE",
"333 364 OFFCURVE",
"383 431 OFFCURVE",
"459 471 OFFCURVE",
"509 471 QCURVE",
"527 471 OFFCURVE",
"568 463 OFFCURVE",
"607 443 OFFCURVE",
"641 407 OFFCURVE",
"652 380 QCURVE",
"659 453 LINE",
"697 453 LINE",
"689 386 OFFCURVE",
"678 254 OFFCURVE",
"675 188 QCURVE",
"674 165 OFFCURVE",
"679 123 OFFCURVE",
"697 89 OFFCURVE",
"732 69 OFFCURVE",
"760 69 QCURVE",
"797 69 OFFCURVE",
"847 114 OFFCURVE",
"875 181 OFFCURVE",
"887 257 OFFCURVE",
"887 287 QCURVE",
"887 366 OFFCURVE",
"843 509 OFFCURVE",
"755 617 OFFCURVE",
"621 679 OFFCURVE",
"531 679 QCURVE",
"432 679 OFFCURVE",
"280 607 OFFCURVE",
"176 485 OFFCURVE",
"122 323 OFFCURVE",
"122 232 QCURVE",
"122 148 OFFCURVE",
"176 8 OFFCURVE",
"275 -92 OFFCURVE",
"417 -148 OFFCURVE",
"504 -149 QCURVE",
"527 -149 OFFCURVE",
"570 -148 OFFCURVE",
"592 -144 QCURVE",
"593 -184 LINE",
"568 -188 OFFCURVE",
"513 -189 OFFCURVE",
"492 -188 QCURVE",
"399 -186 OFFCURVE",
"247 -126 OFFCURVE",
"139 -17 OFFCURVE",
"78 136 OFFCURVE",
"76 231 QCURVE",
"77 333 OFFCURVE",
"140 510 OFFCURVE",
"257 641 OFFCURVE",
"425 715 OFFCURVE",
"532 715 QCURVE",
"625 715 OFFCURVE",
"772 651 OFFCURVE",
"872 538 OFFCURVE",
"925 384 OFFCURVE",
"925 294 QCURVE",
"925 247 OFFCURVE",
"909 155 OFFCURVE",
"870 81 OFFCURVE",
"806 36 OFFCURVE",
"757 36 QCURVE",
"735 36 OFFCURVE",
"695 46 OFFCURVE",
"663 70 OFFCURVE",
"643 110 OFFCURVE",
"641 139 QCURVE"
);
},
{
closed = 1;
nodes = (
"345 202 OFFCURVE",
"360 145 OFFCURVE",
"393 102 OFFCURVE",
"444 76 OFFCURVE",
"479 76 QCURVE",
"516 76 OFFCURVE",
"577 110 OFFCURVE",
"620 165 OFFCURVE",
"644 233 OFFCURVE",
"644 267 QCURVE",
"644 299 OFFCURVE",
"629 360 OFFCURVE",
"596 408 OFFCURVE",
"543 437 OFFCURVE",
"506 437 QCURVE",
"464 437 OFFCURVE",
"404 400 OFFCURVE",
"364 342 OFFCURVE",
"345 269 OFFCURVE",
"345 233 QCURVE"
);
}
);
width = 1000;
}
);
unicode = 0040;
},
{
color = (166, 255, 153, 255);
glyphname = bracketleft;
layers = (
{
layerId = "0CBE557D-C54C-47B4-BFAF-0B1C1BA95C16";
paths = (
{
closed = 1;
nodes = (
"93 -197 LINE",
"93 796 LINE",
"259 796 LINE",
"259 762 LINE",
"135 762 LINE",
"135 -164 LINE",
"259 -164 LINE",
"259 -197 LINE"
);
}
);
width = 300;
}
);
unicode = 005B;
},
{
color = (166, 255, 153, 255);
glyphname = bracketright;
layers = (
{
layerId = "0CBE557D-C54C-47B4-BFAF-0B1C1BA95C16";
paths = (
{
closed = 1;
nodes = (
"206 796 LINE",
"206 -197 LINE",
"41 -197 LINE",
"41 -164 LINE",
"164 -164 LINE",
"164 762 LINE",
"41 762 LINE",
"41 796 LINE"
);
}
);
width = 299;
}
);
unicode = 005D;
},
{
color = (166, 255, 153, 255);
glyphname = backslash;
layers = (
{
layerId = "0CBE557D-C54C-47B4-BFAF-0B1C1BA95C16";
paths = (
{
closed = 1;
nodes = (
"86 807 LINE",
"401 -178 LINE",
"354 -178 LINE",
"39 807 LINE"
);
}
);
width = 440;
}
);
unicode = 005C;
},
{
color = (166, 255, 153, 255);
glyphname = asciicircum;
layers = (
{
layerId = "0CBE557D-C54C-47B4-BFAF-0B1C1BA95C16";
paths = (
{
closed = 1;
nodes = (
"200 691 LINE",
"100 546 LINE",
"64 546 LINE",
"184 715 LINE",
"216 715 LINE",
"337 546 LINE",
"301 546 LINE"
);
}
);
width = 400;
}
);
unicode = 005E;
},
{
color = (166, 255, 153, 255);
glyphname = underscore;
layers = (
{
layerId = "0CBE557D-C54C-47B4-BFAF-0B1C1BA95C16";
paths = (
{
closed = 1;
nodes = (
"3 -151 LINE",
"452 -151 LINE",
"452 -188 LINE",
"3 -188 LINE"
);
}
);
width = 455;
}
);
unicode = 005F;
},
{
color = (166, 255, 153, 255);
glyphname = braceleft;
layers = (
{
layerId = "0CBE557D-C54C-47B4-BFAF-0B1C1BA95C16";
paths = (
{
closed = 1;
nodes = (
"182 -68 LINE",
"182 -98 OFFCURVE",
"187 -135 OFFCURVE",
"203 -155 OFFCURVE",
"232 -162 OFFCURVE",
"256 -162 QCURVE",
"306 -162 LINE",
"306 -197 LINE",
"248 -197 LINE",
"198 -197 OFFCURVE",
"147 -159 OFFCURVE",
"147 -106 QCURVE",
"147 127 LINE",
"147 156 OFFCURVE",
"140 210 OFFCURVE",
"118 253 OFFCURVE",
"77 282 OFFCURVE",
"43 287 QCURVE",
"43 312 LINE",
"76 316 OFFCURVE",
"117 345 OFFCURVE",
"140 387 OFFCURVE",
"147 441 OFFCURVE",
"147 470 QCURVE",
"147 706 LINE",
"147 759 OFFCURVE",
"197 796 OFFCURVE",
"248 796 QCURVE",
"306 796 LINE",
"306 761 LINE",
"247 761 LINE",
"220 761 OFFCURVE",
"192 747 OFFCURVE",
"182 721 OFFCURVE",
"182 684 OFFCURVE",
"182 662 QCURVE",
"182 455 LINE",
"182 432 OFFCURVE",
"176 387 OFFCURVE",
"159 346 OFFCURVE",
"128 312 OFFCURVE",
"103 300 QCURVE",
"128 291 OFFCURVE",
"160 258 OFFCURVE",
"176 216 OFFCURVE",
"182 170 OFFCURVE",
"182 149 QCURVE"
);
}
);
width = 371;
}
);
unicode = 007B;
},
{
color = (166, 255, 153, 255);
glyphname = bar;
layers = (
{
layerId = "0CBE557D-C54C-47B4-BFAF-0B1C1BA95C16";
paths = (
{
closed = 1;
nodes = (
"93 -178 LINE",
"93 807 LINE",
"135 807 LINE",
"135 -178 LINE"
);
}
);
width = 228;
}
);
unicode = 007C;
},
{
color = (166, 255, 153, 255);
glyphname = braceright;
layers = (
{
layerId = "0CBE557D-C54C-47B4-BFAF-0B1C1BA95C16";
paths = (
{
closed = 1;
nodes = (
"189 667 LINE",
"189 697 OFFCURVE",
"184 734 OFFCURVE",
"168 754 OFFCURVE",
"139 761 OFFCURVE",
"115 761 QCURVE",
"65 761 LINE",
"65 796 LINE",
"123 796 LINE",
"173 796 OFFCURVE",
"224 758 OFFCURVE",
"224 705 QCURVE",
"224 472 LINE",
"224 443 OFFCURVE",
"231 389 OFFCURVE",
"253 346 OFFCURVE",
"294 316 OFFCURVE",
"328 312 QCURVE",
"328 287 LINE",
"295 283 OFFCURVE",
"254 254 OFFCURVE",
"231 212 OFFCURVE",
"224 158 OFFCURVE",
"224 129 QCURVE",
"224 -107 LINE",
"224 -160 OFFCURVE",
"174 -197 OFFCURVE",
"123 -197 QCURVE",
"65 -197 LINE",
"65 -162 LINE",
"124 -162 LINE",
"151 -162 OFFCURVE",
"179 -148 OFFCURVE",
"189 -122 OFFCURVE",
"189 -86 OFFCURVE",
"189 -63 QCURVE",
"189 144 LINE",
"189 167 OFFCURVE",
"195 212 OFFCURVE",
"212 253 OFFCURVE",
"243 287 OFFCURVE",
"268 299 QCURVE",
"242 308 OFFCURVE",
"211 341 OFFCURVE",
"195 383 OFFCURVE",
"189 429 OFFCURVE",
"189 450 QCURVE"
);
}
);
width = 371;
}
);
unicode = 007D;
},
{
color = (166, 255, 153, 255);
glyphname = Euro;
layers = (
{
layerId = "0CBE557D-C54C-47B4-BFAF-0B1C1BA95C16";
paths = (
{
closed = 1;
nodes = (
"321 -8 OFFCURVE",
"179 123 OFFCURVE",
"156 240 QCURVE",
"55 240 LINE",
"62 278 LINE",
"152 278 LINE",
"147 320 OFFCURVE",
"149 393 OFFCURVE",
"154 433 QCURVE",
"56 433 LINE",
"63 470 LINE",
"160 470 LINE",
"187 582 OFFCURVE",
"325 715 OFFCURVE",
"438 715 QCURVE",
"537 715 OFFCURVE",
"608 665 QCURVE",
"589 633 LINE",
"553 658 OFFCURVE",
"480 679 OFFCURVE",
"435 679 QCURVE",
"390 679 OFFCURVE",
"314 648 OFFCURVE",
"256 592 OFFCURVE",
"214 515 OFFCURVE",
"203 470 QCURVE",
"539 470 LINE",
"533 433 LINE",
"196 433 LINE",
"194 417 OFFCURVE",
"191 377 OFFCURVE",
"191 335 OFFCURVE",
"193 294 OFFCURVE",
"196 278 QCURVE",
"505 278 LINE",
"498 240 LINE",
"201 240 LINE",
"221 141 OFFCURVE",
"347 28 OFFCURVE",
"443 28 QCURVE",
"489 28 OFFCURVE",
"563 52 OFFCURVE",
"598 79 QCURVE",
"621 48 LINE",
"584 18 OFFCURVE",
"487 -8 OFFCURVE",
"439 -8 QCURVE"
);
}
);
width = 674;
}
);
unicode = 20AC;
},
{
color = (166, 255, 153, 255);
glyphname = quotedblbase;
layers = (
{
layerId = "0CBE557D-C54C-47B4-BFAF-0B1C1BA95C16";
paths = (
{
closed = 1;
nodes = (
"140 73 OFFCURVE",
"159 38 OFFCURVE",
"159 18 QCURVE",
"159 -23 OFFCURVE",
"118 -89 OFFCURVE",
"84 -108 QCURVE",
"69 -88 LINE",
"86 -78 OFFCURVE",
"120 -36 OFFCURVE",
"124 -6 QCURVE",
"118 -8 OFFCURVE",
"100 -6 OFFCURVE",
"84 2 OFFCURVE",
"73 19 OFFCURVE",
"73 33 QCURVE",
"73 50 OFFCURVE",
"96 73 OFFCURVE",
"115 73 QCURVE"
);
},
{
closed = 1;
nodes = (
"290 73 OFFCURVE",
"309 38 OFFCURVE",
"309 18 QCURVE",
"309 -23 OFFCURVE",
"268 -89 OFFCURVE",
"234 -108 QCURVE",
"219 -88 LINE",
"236 -78 OFFCURVE",
"270 -36 OFFCURVE",
"274 -6 QCURVE",
"268 -8 OFFCURVE",
"250 -6 OFFCURVE",
"234 2 OFFCURVE",
"223 19 OFFCURVE",
"223 33 QCURVE",
"223 50 OFFCURVE",
"246 73 OFFCURVE",
"265 73 QCURVE"
);
}
);
width = 383;
}
);
leftKerningGroup = _kern14;
rightKerningGroup = _kern14;
unicode = 201E;
},
{
color = (166, 255, 153, 255);
glyphname = quotesinglbase;
layers = (
{
layerId = "0CBE557D-C54C-47B4-BFAF-0B1C1BA95C16";
paths = (
{
closed = 1;
nodes = (
"140 73 OFFCURVE",
"159 38 OFFCURVE",
"159 18 QCURVE",
"159 -23 OFFCURVE",
"118 -89 OFFCURVE",
"84 -108 QCURVE",
"69 -88 LINE",
"86 -78 OFFCURVE",
"120 -36 OFFCURVE",
"124 -6 QCURVE",
"118 -8 OFFCURVE",
"100 -6 OFFCURVE",
"84 2 OFFCURVE",
"73 19 OFFCURVE",
"73 33 QCURVE",
"73 50 OFFCURVE",
"96 73 OFFCURVE",
"115 73 QCURVE"
);
}
);
width = 231;
}
);
unicode = 201A;
},
{
color = (166, 255, 153, 255);
glyphname = quotedblright;
layers = (
{
layerId = "0CBE557D-C54C-47B4-BFAF-0B1C1BA95C16";
paths = (
{
closed = 1;
nodes = (
"140 732 OFFCURVE",
"159 697 OFFCURVE",
"159 677 QCURVE",
"159 636 OFFCURVE",
"118 570 OFFCURVE",
"84 551 QCURVE",
"69 571 LINE",
"86 581 OFFCURVE",
"120 623 OFFCURVE",
"124 653 QCURVE",
"118 651 OFFCURVE",
"100 653 OFFCURVE",
"84 661 OFFCURVE",
"73 678 OFFCURVE",
"73 692 QCURVE",
"73 709 OFFCURVE",
"96 732 OFFCURVE",
"115 732 QCURVE"
);
},
{
closed = 1;
nodes = (
"290 732 OFFCURVE",
"309 697 OFFCURVE",
"309 677 QCURVE",
"309 636 OFFCURVE",
"268 570 OFFCURVE",
"234 551 QCURVE",
"219 571 LINE",
"236 581 OFFCURVE",
"270 623 OFFCURVE",
"274 653 QCURVE",
"268 651 OFFCURVE",
"250 653 OFFCURVE",
"234 661 OFFCURVE",
"223 678 OFFCURVE",
"223 692 QCURVE",
"223 709 OFFCURVE",
"246 732 OFFCURVE",
"265 732 QCURVE"
);
}
);
width = 383;
}
);
unicode = 201D;
},
{
color = (166, 255, 153, 255);
glyphname = quoteright;
layers = (
{
layerId = "0CBE557D-C54C-47B4-BFAF-0B1C1BA95C16";
paths = (
{
closed = 1;
nodes = (
"135 732 OFFCURVE",
"159 703 OFFCURVE",
"159 677 QCURVE",
"159 636 OFFCURVE",
"118 570 OFFCURVE",
"84 551 QCURVE",
"69 571 LINE",
"86 581 OFFCURVE",
"120 623 OFFCURVE",
"124 653 QCURVE",
"118 651 OFFCURVE",
"100 653 OFFCURVE",
"84 661 OFFCURVE",
"73 678 OFFCURVE",
"73 692 QCURVE",
"73 709 OFFCURVE",
"96 732 OFFCURVE",
"115 732 QCURVE"
);
}
);
width = 232;
}
);
unicode = 2019;
},
{
color = (166, 255, 153, 255);
glyphname = quotedblleft;
layers = (
{
layerId = "0CBE557D-C54C-47B4-BFAF-0B1C1BA95C16";
paths = (
{
closed = 1;
nodes = (
"242 551 OFFCURVE",
"223 586 OFFCURVE",
"223 606 QCURVE",
"223 647 OFFCURVE",
"264 713 OFFCURVE",
"298 732 QCURVE",
"313 712 LINE",
"296 702 OFFCURVE",
"262 660 OFFCURVE",
"258 630 QCURVE",
"264 631 OFFCURVE",
"282 630 OFFCURVE",
"298 622 OFFCURVE",
"309 605 OFFCURVE",
"309 591 QCURVE",
"309 574 OFFCURVE",
"286 551 OFFCURVE",
"267 551 QCURVE"
);
},
{
closed = 1;
nodes = (
"92 551 OFFCURVE",
"73 586 OFFCURVE",
"73 606 QCURVE",
"73 647 OFFCURVE",
"114 713 OFFCURVE",
"148 732 QCURVE",
"163 712 LINE",
"146 702 OFFCURVE",
"112 660 OFFCURVE",
"108 630 QCURVE",
"114 631 OFFCURVE",
"132 630 OFFCURVE",
"148 622 OFFCURVE",
"159 605 OFFCURVE",
"159 591 QCURVE",
"159 574 OFFCURVE",
"136 551 OFFCURVE",
"117 551 QCURVE"
);
}
);
width = 387;
}
);
unicode = 201C;
},
{
color = (166, 255, 153, 255);
glyphname = quoteleft;
layers = (
{
layerId = "0CBE557D-C54C-47B4-BFAF-0B1C1BA95C16";
paths = (
{
closed = 1;
nodes = (
"92 551 OFFCURVE",
"73 586 OFFCURVE",
"73 606 QCURVE",
"73 647 OFFCURVE",
"114 713 OFFCURVE",
"148 732 QCURVE",
"163 712 LINE",
"146 702 OFFCURVE",
"112 660 OFFCURVE",
"108 630 QCURVE",
"114 631 OFFCURVE",
"132 630 OFFCURVE",
"148 622 OFFCURVE",
"159 605 OFFCURVE",
"159 591 QCURVE",
"159 574 OFFCURVE",
"136 551 OFFCURVE",
"117 551 QCURVE"
);
}
);
width = 233;
}
);
unicode = 2018;
},
{
color = (166, 255, 153, 255);
glyphname = minus;
layers = (
{
layerId = "0CBE557D-C54C-47B4-BFAF-0B1C1BA95C16";
paths = (
{
closed = 1;
nodes = (
"428 374 LINE",
"428 336 LINE",
"80 336 LINE",
"80 374 LINE"
);
}
);
width = 508;
}
);
unicode = 2212;
},
{
color = (166, 255, 153, 255);
glyphname = hyphen;
layers = (
{
layerId = "0CBE557D-C54C-47B4-BFAF-0B1C1BA95C16";
paths = (
{
closed = 1;
nodes = (
"80 297 LINE",
"360 297 LINE",
"360 260 LINE",
"80 260 LINE"
);
}
);
width = 440;
}
);
unicode = 002D;
},
{
color = (166, 255, 153, 255);
glyphname = endash;
layers = (
{
layerId = "0CBE557D-C54C-47B4-BFAF-0B1C1BA95C16";
paths = (
{
closed = 1;
nodes = (
"488 260 LINE",
"80 260 LINE",
"80 297 LINE",
"488 297 LINE"
);
}
);
width = 568;
}
);
unicode = 2013;
},
{
color = (166, 255, 153, 255);
glyphname = emdash;
layers = (
{
layerId = "0CBE557D-C54C-47B4-BFAF-0B1C1BA95C16";
paths = (
{
closed = 1;
nodes = (
"681 260 LINE",
"80 260 LINE",
"80 297 LINE",
"681 297 LINE"
);
}
);
width = 761;
}
);
unicode = 2014;
},
{
color = (248, 153, 255, 255);
glyphname = grave;
layers = (
{
layerId = "0CBE557D-C54C-47B4-BFAF-0B1C1BA95C16";
paths = (
{
closed = 1;
nodes = (
"105 763 LINE",
"181 636 LINE",
"143 636 LINE",
"55 763 LINE"
);
}
);
width = 285;
}
);
unicode = 0060;
},
{
color = (248, 153, 255, 255);
glyphname = acute;
layers = (
{
layerId = "0CBE557D-C54C-47B4-BFAF-0B1C1BA95C16";
paths = (
{
closed = 1;
nodes = (
"237 763 LINE",
"149 636 LINE",
"111 636 LINE",
"187 763 LINE"
);
}
);
width = 285;
}
);
unicode = 00B4;
},
{
color = (166, 255, 153, 255);
glyphname = guillemotright;
layers = (
{
layerId = "0CBE557D-C54C-47B4-BFAF-0B1C1BA95C16";
paths = (
{
closed = 1;
nodes = (
"62 419 LINE",
"103 419 LINE",
"211 259 LINE",
"103 97 LINE",
"63 97 LINE",
"170 258 LINE"
);
},
{
closed = 1;
nodes = (
"249 419 LINE",
"290 419 LINE",
"398 259 LINE",
"290 97 LINE",
"250 97 LINE",
"358 258 LINE"
);
}
);
width = 443;
}
);
unicode = 00BB;
},
{
color = (166, 255, 153, 255);
glyphname = guilsinglright;
layers = (
{
layerId = "0CBE557D-C54C-47B4-BFAF-0B1C1BA95C16";
paths = (
{
closed = 1;
nodes = (
"63 419 LINE",
"103 419 LINE",
"211 259 LINE",
"103 97 LINE",
"63 97 LINE",
"169 258 LINE"
);
}
);
width = 256;
}
);
unicode = 203A;
},
{
color = (166, 255, 153, 255);
glyphname = guillemotleft;
layers = (
{
layerId = "0CBE557D-C54C-47B4-BFAF-0B1C1BA95C16";
paths = (
{
closed = 1;
nodes = (
"380 97 LINE",
"340 97 LINE",
"232 257 LINE",
"340 419 LINE",
"381 419 LINE",
"273 258 LINE"
);
},
{
closed = 1;
nodes = (
"193 97 LINE",
"153 97 LINE",
"45 257 LINE",
"153 419 LINE",
"194 419 LINE",
"85 258 LINE"
);
}
);
width = 443;
}
);
unicode = 00AB;
},
{
color = (166, 255, 153, 255);
glyphname = guilsinglleft;
layers = (
{
layerId = "0CBE557D-C54C-47B4-BFAF-0B1C1BA95C16";
paths = (
{
closed = 1;
nodes = (
"193 97 LINE",
"153 97 LINE",
"45 257 LINE",
"153 419 LINE",
"193 419 LINE",
"86 258 LINE"
);
}
);
width = 256;
}
);
unicode = 2039;
},
{
color = (166, 255, 153, 255);
glyphname = uni00AD;
layers = (
{
layerId = "0CBE557D-C54C-47B4-BFAF-0B1C1BA95C16";
paths = (
{
closed = 1;
nodes = (
"80 297 LINE",
"360 297 LINE",
"360 260 LINE",
"80 260 LINE"
);
}
);
width = 440;
}
);
unicode = 00AD;
},
{
color = (166, 255, 153, 255);
glyphname = ellipsis;
layers = (
{
layerId = "0CBE557D-C54C-47B4-BFAF-0B1C1BA95C16";
paths = (
{
closed = 1;
nodes = (
"133 73 OFFCURVE",
"154 50 OFFCURVE",
"154 32 QCURVE",
"154 15 OFFCURVE",
"133 -8 OFFCURVE",
"114 -8 QCURVE",
"95 -8 OFFCURVE",
"74 15 OFFCURVE",
"74 32 QCURVE",
"74 50 OFFCURVE",
"95 73 OFFCURVE",
"114 73 QCURVE"
);
},
{
closed = 1;
nodes = (
"353 73 OFFCURVE",
"374 50 OFFCURVE",
"374 32 QCURVE",
"374 15 OFFCURVE",
"353 -8 OFFCURVE",
"334 -8 QCURVE",
"315 -8 OFFCURVE",
"294 15 OFFCURVE",
"294 32 QCURVE",
"294 50 OFFCURVE",
"315 73 OFFCURVE",
"334 73 QCURVE"
);
},
{
closed = 1;
nodes = (
"573 73 OFFCURVE",
"594 50 OFFCURVE",
"594 32 QCURVE",
"594 15 OFFCURVE",
"573 -8 OFFCURVE",
"554 -8 QCURVE",
"535 -8 OFFCURVE",
"514 15 OFFCURVE",
"514 32 QCURVE",
"514 50 OFFCURVE",
"535 73 OFFCURVE",
"554 73 QCURVE"
);
}
);
width = 668;
}
);
unicode = 2026;
},
{
color = (166, 255, 153, 255);
glyphname = uni0445;
layers = (
{
layerId = "0CBE557D-C54C-47B4-BFAF-0B1C1BA95C16";
paths = (
{
closed = 1;
nodes = (
"242 239 LINE",
"72 0 LINE",
"20 0 LINE",
"213 268 LINE",
"34 527 LINE",
"86 527 LINE",
"244 296 LINE",
"400 527 LINE",
"452 527 LINE",
"273 271 LINE",
"465 0 LINE",
"412 0 LINE"
);
}
);
width = 485;
}
);
unicode = 0445;
},
{
color = (166, 255, 153, 255);
glyphname = uni0431;
layers = (
{
layerId = "0CBE557D-C54C-47B4-BFAF-0B1C1BA95C16";
paths = (
{
closed = 1;
nodes = (
"106 387 OFFCURVE",
"160 442 OFFCURVE",
"220 473 OFFCURVE",
"281 484 OFFCURVE",
"307 484 QCURVE",
"360 484 OFFCURVE",
"442 447 OFFCURVE",
"498 383 OFFCURVE",
"527 296 OFFCURVE",
"527 245 QCURVE",
"527 191 OFFCURVE",
"494 99 OFFCURVE",
"433 31 OFFCURVE",
"344 -7 OFFCURVE",
"288 -7 QCURVE",
"208 -7 OFFCURVE",
"114 59 OFFCURVE",
"64 164 OFFCURVE",
"50 292 OFFCURVE",
"50 354 QCURVE",
"50 415 OFFCURVE",
"63 527 OFFCURVE",
"105 618 OFFCURVE",
"185 682 OFFCURVE",
"251 695 QCURVE",
"302 705 OFFCURVE",
"396 714 OFFCURVE",
"441 719 QCURVE",
"456 721 OFFCURVE",
"491 727 OFFCURVE",
"508 730 QCURVE",
"508 691 LINE",
"489 686 OFFCURVE",
"448 682 OFFCURVE",
"429 680 QCURVE",
"397 677 OFFCURVE",
"340 672 OFFCURVE",
"311 668 QCURVE",
"282 665 OFFCURVE",
"228 653 OFFCURVE",
"181 632 OFFCURVE",
"142 598 OFFCURVE",
"128 573 QCURVE",
"113 546 OFFCURVE",
"98 484 OFFCURVE",
"90 421 OFFCURVE",
"89 364 OFFCURVE",
"88 343 QCURVE"
);
},
{
closed = 1;
nodes = (
"337 29 OFFCURVE",
"410 63 OFFCURVE",
"459 122 OFFCURVE",
"485 199 OFFCURVE",
"485 243 QCURVE",
"485 287 OFFCURVE",
"460 361 OFFCURVE",
"412 415 OFFCURVE",
"341 446 OFFCURVE",
"296 446 QCURVE",
"254 446 OFFCURVE",
"183 413 OFFCURVE",
"130 356 OFFCURVE",
"101 282 OFFCURVE",
"101 241 QCURVE",
"101 197 OFFCURVE",
"125 120 OFFCURVE",
"172 63 OFFCURVE",
"243 29 OFFCURVE",
"290 29 QCURVE"
);
}
);
width = 576;
}
);
rightKerningGroup = _kern10;
unicode = 0431;
},
{
color = (166, 255, 153, 255);
glyphname = uni0432;
layers = (
{
layerId = "0CBE557D-C54C-47B4-BFAF-0B1C1BA95C16";
paths = (
{
closed = 1;
nodes = (
"73 527 LINE",
"275 527 LINE",
"304 527 OFFCURVE",
"368 518 OFFCURVE",
"422 493 OFFCURVE",
"458 446 OFFCURVE",
"460 407 QCURVE",
"461 392 OFFCURVE",
"454 355 OFFCURVE",
"434 319 OFFCURVE",
"397 288 OFFCURVE",
"369 279 QCURVE",
"431 268 OFFCURVE",
"493 200 OFFCURVE",
"493 147 QCURVE",
"493 106 OFFCURVE",
"463 50 OFFCURVE",
"412 16 OFFCURVE",
"346 0 OFFCURVE",
"311 0 QCURVE",
"73 0 LINE"
);
},
{
closed = 1;
nodes = (
"115 493 LINE",
"115 287 LINE",
"258 287 LINE",
"284 287 OFFCURVE",
"340 298 OFFCURVE",
"387 322 OFFCURVE",
"418 363 OFFCURVE",
"418 393 QCURVE",
"418 427 OFFCURVE",
"390 466 OFFCURVE",
"345 487 OFFCURVE",
"290 493 OFFCURVE",
"264 493 QCURVE"
);
},
{
closed = 1;
nodes = (
"115 34 LINE",
"293 34 LINE",
"319 34 OFFCURVE",
"375 42 OFFCURVE",
"421 65 OFFCURVE",
"451 106 OFFCURVE",
"451 140 QCURVE",
"451 179 OFFCURVE",
"417 224 OFFCURVE",
"365 247 OFFCURVE",
"302 253 OFFCURVE",
"273 253 QCURVE",
"115 253 LINE"
);
}
);
width = 548;
}
);
leftKerningGroup = _kern11;
unicode = 0432;
},
{
color = (166, 255, 153, 255);
glyphname = uni0433;
layers = (
{
layerId = "0CBE557D-C54C-47B4-BFAF-0B1C1BA95C16";
paths = (
{
closed = 1;
nodes = (
"73 0 LINE",
"73 527 LINE",
"423 527 LINE",
"423 492 LINE",
"115 492 LINE",
"115 0 LINE"
);
}
);
width = 452;
}
);
leftKerningGroup = _kern11;
rightKerningGroup = _kern24;
unicode = 0433;
},
{
color = (166, 255, 153, 255);
glyphname = uni0434;
layers = (
{
layerId = "0CBE557D-C54C-47B4-BFAF-0B1C1BA95C16";
paths = (
{
closed = 1;
nodes = (
"502 527 LINE",
"502 34 LINE",
"577 34 LINE",
"577 -176 LINE",
"535 -176 LINE",
"535 0 LINE",
"67 0 LINE",
"67 -176 LINE",
"25 -176 LINE",
"25 34 LINE",
"64 42 OFFCURVE",
"111 110 OFFCURVE",
"124 160 QCURVE",
"130 185 OFFCURVE",
"137 237 OFFCURVE",
"140 285 OFFCURVE",
"141 328 OFFCURVE",
"141 343 QCURVE",
"142 389 OFFCURVE",
"143 481 OFFCURVE",
"143 527 QCURVE"
);
},
{
closed = 1;
nodes = (
"460 493 LINE",
"184 493 LINE",
"183 451 OFFCURVE",
"182 367 OFFCURVE",
"181 325 QCURVE",
"180 286 OFFCURVE",
"176 206 OFFCURVE",
"161 130 OFFCURVE",
"131 61 OFFCURVE",
"106 34 QCURVE",
"460 34 LINE"
);
}
);
width = 602;
}
);
rightKerningGroup = _kern13;
unicode = 0434;
},
{
color = (166, 255, 153, 255);
glyphname = uni0436;
layers = (
{
layerId = "0CBE557D-C54C-47B4-BFAF-0B1C1BA95C16";
paths = (
{
closed = 1;
nodes = (
"349 0 LINE",
"349 247 LINE",
"220 247 LINE",
"68 0 LINE",
"20 0 LINE",
"189 277 LINE",
"36 527 LINE",
"84 527 LINE",
"232 282 LINE",
"349 282 LINE",
"349 527 LINE",
"391 527 LINE",
"391 282 LINE",
"508 282 LINE",
"657 527 LINE",
"705 527 LINE",
"551 277 LINE",
"721 0 LINE",
"673 0 LINE",
"521 247 LINE",
"391 247 LINE",
"391 0 LINE"
);
}
);
width = 741;
}
);
unicode = 0436;
},
{
color = (166, 255, 153, 255);
glyphname = uni043A;
layers = (
{
layerId = "0CBE557D-C54C-47B4-BFAF-0B1C1BA95C16";
paths = (
{
closed = 1;
nodes = (
"73 0 LINE",
"73 527 LINE",
"115 527 LINE",
"115 281 LINE",
"252 281 LINE",
"421 527 LINE",
"468 527 LINE",
"292 273 LINE",
"486 0 LINE",
"438 0 LINE",
"260 246 LINE",
"115 246 LINE",
"115 0 LINE"
);
}
);
width = 499;
}
);
leftKerningGroup = _kern11;
unicode = 043A;
},
{
color = (166, 255, 153, 255);
glyphname = uni0438;
layers = (
{
layerId = "0CBE557D-C54C-47B4-BFAF-0B1C1BA95C16";
paths = (
{
closed = 1;
nodes = (
"140 0 LINE",
"73 0 LINE",
"73 527 LINE",
"115 527 LINE",
"115 36 LINE",
"442 527 LINE",
"508 527 LINE",
"508 0 LINE",
"466 0 LINE",
"466 492 LINE"
);
}
);
width = 581;
}
);
leftKerningGroup = _kern11;
unicode = 0438;
},
{
color = (166, 255, 153, 255);
glyphname = uni0439;
layers = (
{
layerId = "0CBE557D-C54C-47B4-BFAF-0B1C1BA95C16";
paths = (
{
closed = 1;
nodes = (
"310 663 OFFCURVE",
"349 669 OFFCURVE",
"383 685 OFFCURVE",
"409 715 OFFCURVE",
"415 738 QCURVE",
"454 738 LINE",
"448 709 OFFCURVE",
"416 668 OFFCURVE",
"372 643 OFFCURVE",
"318 632 OFFCURVE",
"290 632 QCURVE",
"262 632 OFFCURVE",
"209 643 OFFCURVE",
"167 668 OFFCURVE",
"137 709 OFFCURVE",
"132 738 QCURVE",
"170 738 LINE",
"176 715 OFFCURVE",
"201 685 OFFCURVE",
"235 669 OFFCURVE",
"274 663 OFFCURVE",
"292 663 QCURVE"
);
},
{
closed = 1;
nodes = (
"140 0 LINE",
"73 0 LINE",
"73 527 LINE",
"115 527 LINE",
"115 36 LINE",
"442 527 LINE",
"508 527 LINE",
"508 0 LINE",
"466 0 LINE",
"466 492 LINE"
);
}
);
width = 581;
}
);
unicode = 0439;
},
{
color = (166, 255, 153, 255);
glyphname = uni043B;
layers = (
{
layerId = "0CBE557D-C54C-47B4-BFAF-0B1C1BA95C16";
paths = (
{
closed = 1;
nodes = (
"495 527 LINE",
"495 0 LINE",
"453 0 LINE",
"453 493 LINE",
"185 493 LINE",
"183 423 OFFCURVE",
"178 297 OFFCURVE",
"176 234 QCURVE",
"174 193 OFFCURVE",
"162 111 OFFCURVE",
"130 43 OFFCURVE",
"72 -1 OFFCURVE",
"25 -4 QCURVE",
"25 37 LINE",
"56 40 OFFCURVE",
"96 72 OFFCURVE",
"121 123 OFFCURVE",
"132 189 OFFCURVE",
"134 225 QCURVE",
"136 259 OFFCURVE",
"139 337 OFFCURVE",
"141 415 OFFCURVE",
"143 492 OFFCURVE",
"144 527 QCURVE"
);
}
);
width = 568;
}
);
unicode = 043B;
},
{
color = (166, 255, 153, 255);
glyphname = uni043C;
layers = (
{
layerId = "0CBE557D-C54C-47B4-BFAF-0B1C1BA95C16";
paths = (
{
closed = 1;
nodes = (
"73 527 LINE",
"142 527 LINE",
"347 201 LINE",
"552 527 LINE",
"619 527 LINE",
"619 0 LINE",
"577 0 LINE",
"577 492 LINE",
"353 139 LINE",
"339 139 LINE",
"115 492 LINE",
"115 0 LINE",
"73 0 LINE"
);
}
);
width = 692;
}
);
leftKerningGroup = _kern11;
unicode = 043C;
},
{
color = (166, 255, 153, 255);
glyphname = uni043D;
layers = (
{
layerId = "0CBE557D-C54C-47B4-BFAF-0B1C1BA95C16";
paths = (
{
closed = 1;
nodes = (
"73 0 LINE",
"73 527 LINE",
"115 527 LINE",
"115 276 LINE",
"457 276 LINE",
"457 527 LINE",
"499 527 LINE",
"499 0 LINE",
"457 0 LINE",
"457 241 LINE",
"115 241 LINE",
"115 0 LINE"
);
}
);
width = 572;
}
);
leftKerningGroup = _kern11;
unicode = 043D;
},
{
color = (166, 255, 153, 255);
glyphname = uni043F;
layers = (
{
layerId = "0CBE557D-C54C-47B4-BFAF-0B1C1BA95C16";
paths = (
{
closed = 1;
nodes = (
"73 0 LINE",
"73 527 LINE",
"503 527 LINE",
"503 0 LINE",
"461 0 LINE",
"461 492 LINE",
"115 492 LINE",
"115 0 LINE"
);
}
);
width = 576;
}
);
leftKerningGroup = _kern11;
unicode = 043F;
},
{
color = (166, 255, 153, 255);
glyphname = uni0442;
layers = (
{
layerId = "0CBE557D-C54C-47B4-BFAF-0B1C1BA95C16";
paths = (
{
closed = 1;
nodes = (
"445 527 LINE",
"445 492 LINE",
"246 492 LINE",
"246 0 LINE",
"204 0 LINE",
"204 492 LINE",
"4 492 LINE",
"4 527 LINE"
);
}
);
width = 449;
}
);
unicode = 0442;
},
{
color = (166, 255, 153, 255);
glyphname = uni0444;
layers = (
{
layerId = "0CBE557D-C54C-47B4-BFAF-0B1C1BA95C16";
paths = (
{
closed = 1;
nodes = (
"351 704 LINE",
"393 704 LINE",
"393 534 LINE",
"463 533 OFFCURVE",
"575 499 OFFCURVE",
"653 431 OFFCURVE",
"695 328 OFFCURVE",
"695 259 QCURVE",
"695 191 OFFCURVE",
"652 92 OFFCURVE",
"573 27 OFFCURVE",
"462 -6 OFFCURVE",
"393 -8 QCURVE",
"393 -206 LINE",
"351 -206 LINE",
"351 -8 LINE",
"290 -6 OFFCURVE",
"180 23 OFFCURVE",
"98 86 OFFCURVE",
"49 186 OFFCURVE",
"49 259 QCURVE",
"49 329 OFFCURVE",
"91 432 OFFCURVE",
"170 499 OFFCURVE",
"282 533 OFFCURVE",
"351 534 QCURVE"
);
},
{
closed = 1;
nodes = (
"393 29 LINE",
"451 29 OFFCURVE",
"547 56 OFFCURVE",
"615 113 OFFCURVE",
"653 201 OFFCURVE",
"653 262 QCURVE",
"653 382 OFFCURVE",
"517 498 OFFCURVE",
"393 498 QCURVE"
);
},
{
closed = 1;
nodes = (
"351 498 LINE",
"227 498 OFFCURVE",
"91 382 OFFCURVE",
"91 262 QCURVE",
"91 201 OFFCURVE",
"129 114 OFFCURVE",
"198 58 OFFCURVE",
"294 30 OFFCURVE",
"351 29 QCURVE"
);
}
);
width = 744;
}
);
leftKerningGroup = _kern9;
rightKerningGroup = _kern10;
unicode = 0444;
},
{
color = (166, 255, 153, 255);
glyphname = uni0446;
layers = (
{
layerId = "0CBE557D-C54C-47B4-BFAF-0B1C1BA95C16";
paths = (
{
closed = 1;
nodes = (
"448 36 LINE",
"448 527 LINE",
"490 527 LINE",
"490 36 LINE",
"565 36 LINE",
"565 -176 LINE",
"526 -176 LINE",
"526 0 LINE",
"73 0 LINE",
"73 527 LINE",
"115 527 LINE",
"115 36 LINE"
);
}
);
width = 593;
}
);
leftKerningGroup = _kern11;
rightKerningGroup = _kern13;
unicode = 0446;
},
{
color = (166, 255, 153, 255);
glyphname = uni0447;
layers = (
{
layerId = "0CBE557D-C54C-47B4-BFAF-0B1C1BA95C16";
paths = (
{
closed = 1;
nodes = (
"50 527 LINE",
"92 527 LINE",
"92 421 LINE",
"92 374 OFFCURVE",
"107 306 OFFCURVE",
"146 262 OFFCURVE",
"212 241 OFFCURVE",
"263 241 QCURVE",
"298 241 OFFCURVE",
"368 244 OFFCURVE",
"415 249 QCURVE",
"415 527 LINE",
"457 527 LINE",
"457 0 LINE",
"415 0 LINE",
"415 210 LINE",
"394 208 OFFCURVE",
"349 205 OFFCURVE",
"307 203 OFFCURVE",
"271 202 OFFCURVE",
"258 202 QCURVE",
"148 202 OFFCURVE",
"50 299 OFFCURVE",
"50 411 QCURVE"
);
}
);
width = 530;
}
);
leftKerningGroup = _kern11;
unicode = 0447;
},
{
color = (166, 255, 153, 255);
glyphname = uni0448;
layers = (
{
layerId = "0CBE557D-C54C-47B4-BFAF-0B1C1BA95C16";
paths = (
{
closed = 1;
nodes = (
"73 527 LINE",
"115 527 LINE",
"115 36 LINE",
"383 36 LINE",
"383 527 LINE",
"425 527 LINE",
"425 36 LINE",
"696 36 LINE",
"696 527 LINE",
"738 527 LINE",
"738 0 LINE",
"73 0 LINE"
);
}
);
width = 811;
}
);
leftKerningGroup = _kern11;
unicode = 0448;
},
{
color = (166, 255, 153, 255);
glyphname = uni0449;
layers = (
{
layerId = "0CBE557D-C54C-47B4-BFAF-0B1C1BA95C16";
paths = (
{
closed = 1;
nodes = (
"73 527 LINE",
"115 527 LINE",
"115 36 LINE",
"383 36 LINE",
"383 527 LINE",
"425 527 LINE",
"425 36 LINE",
"696 36 LINE",
"696 527 LINE",
"738 527 LINE",
"738 36 LINE",
"813 36 LINE",
"813 -176 LINE",
"774 -176 LINE",
"774 0 LINE",
"73 0 LINE"
);
}
);
width = 841;
}
);
leftKerningGroup = _kern11;
rightKerningGroup = _kern13;
unicode = 0449;
},
{
color = (166, 255, 153, 255);
glyphname = uni044A;
layers = (
{
layerId = "0CBE557D-C54C-47B4-BFAF-0B1C1BA95C16";
paths = (
{
closed = 1;
nodes = (
"161 493 LINE",
"20 493 LINE",
"20 527 LINE",
"203 527 LINE",
"203 309 LINE",
"340 309 LINE",
"380 309 OFFCURVE",
"457 298 OFFCURVE",
"519 267 OFFCURVE",
"557 209 OFFCURVE",
"558 163 QCURVE",
"559 117 OFFCURVE",
"527 55 OFFCURVE",
"471 17 OFFCURVE",
"397 0 OFFCURVE",
"355 0 QCURVE",
"161 0 LINE"
);
},
{
closed = 1;
nodes = (
"324 34 LINE",
"358 34 OFFCURVE",
"427 40 OFFCURVE",
"482 66 OFFCURVE",
"516 117 OFFCURVE",
"516 161 QCURVE",
"516 199 OFFCURVE",
"482 244 OFFCURVE",
"429 267 OFFCURVE",
"364 274 OFFCURVE",
"334 274 QCURVE",
"203 274 LINE",
"203 34 LINE"
);
}
);
width = 604;
}
);
unicode = 044A;
},
{
color = (166, 255, 153, 255);
glyphname = uni044B;
layers = (
{
layerId = "0CBE557D-C54C-47B4-BFAF-0B1C1BA95C16";
paths = (
{
closed = 1;
nodes = (
"554 0 LINE",
"554 527 LINE",
"596 527 LINE",
"596 0 LINE"
);
},
{
closed = 1;
nodes = (
"73 527 LINE",
"115 527 LINE",
"115 309 LINE",
"228 309 LINE",
"268 309 OFFCURVE",
"346 299 OFFCURVE",
"408 269 OFFCURVE",
"447 212 OFFCURVE",
"447 164 QCURVE",
"447 118 OFFCURVE",
"416 56 OFFCURVE",
"361 17 OFFCURVE",
"288 0 OFFCURVE",
"246 0 QCURVE",
"73 0 LINE"
);
},
{
closed = 1;
nodes = (
"209 34 LINE",
"243 34 OFFCURVE",
"313 40 OFFCURVE",
"370 66 OFFCURVE",
"405 117 OFFCURVE",
"405 161 QCURVE",
"405 199 OFFCURVE",
"372 244 OFFCURVE",
"321 267 OFFCURVE",
"257 274 OFFCURVE",
"227 274 QCURVE",
"115 274 LINE",
"115 34 LINE"
);
}
);
width = 669;
}
);
leftKerningGroup = _kern11;
unicode = 044B;
},
{
color = (166, 255, 153, 255);
glyphname = uni044C;
layers = (
{
layerId = "0CBE557D-C54C-47B4-BFAF-0B1C1BA95C16";
paths = (
{
closed = 1;
nodes = (
"73 527 LINE",
"115 527 LINE",
"115 309 LINE",
"251 309 LINE",
"291 309 OFFCURVE",
"369 299 OFFCURVE",
"430 269 OFFCURVE",
"469 212 OFFCURVE",
"470 164 QCURVE",
"471 118 OFFCURVE",
"439 56 OFFCURVE",
"384 17 OFFCURVE",
"311 0 OFFCURVE",
"269 0 QCURVE",
"73 0 LINE"
);
},
{
closed = 1;
nodes = (
"234 34 LINE",
"268 34 OFFCURVE",
"338 40 OFFCURVE",
"393 66 OFFCURVE",
"428 117 OFFCURVE",
"428 161 QCURVE",
"428 199 OFFCURVE",
"395 244 OFFCURVE",
"342 267 OFFCURVE",
"279 274 OFFCURVE",
"249 274 QCURVE",
"115 274 LINE",
"115 34 LINE"
);
}
);
width = 520;
}
);
leftKerningGroup = _kern11;
unicode = 044C;
},
{
color = (166, 255, 153, 255);
glyphname = uni044E;
layers = (
{
layerId = "0CBE557D-C54C-47B4-BFAF-0B1C1BA95C16";
paths = (
{
closed = 1;
nodes = (
"573 534 OFFCURVE",
"666 493 OFFCURVE",
"727 420 OFFCURVE",
"758 321 OFFCURVE",
"758 263 QCURVE",
"758 204 OFFCURVE",
"726 105 OFFCURVE",
"664 33 OFFCURVE",
"571 -7 OFFCURVE",
"510 -7 QCURVE",
"453 -7 OFFCURVE",
"366 29 OFFCURVE",
"306 95 OFFCURVE",
"272 188 OFFCURVE",
"268 246 QCURVE",
"115 246 LINE",
"115 0 LINE",
"73 0 LINE",
"73 527 LINE",
"115 527 LINE",
"115 281 LINE",
"268 281 LINE",
"272 338 OFFCURVE",
"306 431 OFFCURVE",
"367 497 OFFCURVE",
"454 534 OFFCURVE",
"511 534 QCURVE"
);
},
{
closed = 1;
nodes = (
"565 29 OFFCURVE",
"642 66 OFFCURVE",
"692 129 OFFCURVE",
"716 215 OFFCURVE",
"716 263 QCURVE",
"716 312 OFFCURVE",
"692 397 OFFCURVE",
"642 461 OFFCURVE",
"565 498 OFFCURVE",
"511 498 QCURVE",
"457 498 OFFCURVE",
"380 460 OFFCURVE",
"332 396 OFFCURVE",
"310 311 OFFCURVE",
"310 263 QCURVE",
"310 215 OFFCURVE",
"333 129 OFFCURVE",
"382 66 OFFCURVE",
"458 29 OFFCURVE",
"511 29 QCURVE"
);
}
);
width = 807;
}
);
leftKerningGroup = _kern11;
rightKerningGroup = _kern10;
unicode = 044E;
},
{
color = (166, 255, 153, 255);
glyphname = uni044F;
layers = (
{
layerId = "0CBE557D-C54C-47B4-BFAF-0B1C1BA95C16";
paths = (
{
closed = 1;
nodes = (
"448 0 LINE",
"406 0 LINE",
"406 213 LINE",
"237 213 LINE",
"94 0 LINE",
"44 0 LINE",
"192 218 LINE",
"126 228 OFFCURVE",
"40 301 OFFCURVE",
"40 371 QCURVE",
"40 419 OFFCURVE",
"72 480 OFFCURVE",
"127 514 OFFCURVE",
"200 527 OFFCURVE",
"241 527 QCURVE",
"448 527 LINE"
);
},
{
closed = 1;
nodes = (
"406 492 LINE",
"254 492 LINE",
"222 492 OFFCURVE",
"160 486 OFFCURVE",
"112 463 OFFCURVE",
"82 416 OFFCURVE",
"82 376 QCURVE",
"82 332 OFFCURVE",
"118 281 OFFCURVE",
"172 255 OFFCURVE",
"238 248 OFFCURVE",
"268 248 QCURVE",
"406 248 LINE"
);
}
);
width = 521;
}
);
leftKerningGroup = _kern11;
unicode = 044F;
},
{
color = (166, 255, 153, 255);
glyphname = uni0410;
layers = (
{
layerId = "0CBE557D-C54C-47B4-BFAF-0B1C1BA95C16";
paths = (
{
closed = 1;
nodes = (
"294 707 LINE",
"341 707 LINE",
"622 0 LINE",
"573 0 LINE",
"509 163 LINE",
"127 163 LINE",
"64 0 LINE",
"16 0 LINE"
);
},
{
closed = 1;
nodes = (
"141 200 LINE",
"494 200 LINE",
"318 657 LINE"
);
}
);
width = 638;
}
);
leftKerningGroup = _kern30;
rightKerningGroup = _kern30;
unicode = 0410;
},
{
color = (166, 255, 153, 255);
glyphname = uni0415;
layers = (
{
layerId = "0CBE557D-C54C-47B4-BFAF-0B1C1BA95C16";
paths = (
{
closed = 1;
nodes = (
"93 707 LINE",
"549 707 LINE",
"549 669 LINE",
"135 669 LINE",
"135 370 LINE",
"507 370 LINE",
"507 332 LINE",
"135 332 LINE",
"135 38 LINE",
"549 38 LINE",
"549 0 LINE",
"93 0 LINE"
);
}
);
width = 603;
}
);
unicode = 0415;
},
{
color = (166, 255, 153, 255);
glyphname = uni041C;
layers = (
{
layerId = "0CBE557D-C54C-47B4-BFAF-0B1C1BA95C16";
paths = (
{
closed = 1;
nodes = (
"742 707 LINE",
"742 0 LINE",
"700 0 LINE",
"700 657 LINE",
"431 195 LINE",
"409 195 LINE",
"135 657 LINE",
"135 0 LINE",
"93 0 LINE",
"93 707 LINE",
"153 707 LINE",
"421 255 LINE",
"683 707 LINE"
);
}
);
width = 835;
}
);
unicode = 041C;
},
{
color = (166, 255, 153, 255);
glyphname = uni041D;
layers = (
{
layerId = "0CBE557D-C54C-47B4-BFAF-0B1C1BA95C16";
paths = (
{
closed = 1;
nodes = (
"135 365 LINE",
"590 365 LINE",
"590 707 LINE",
"632 707 LINE",
"632 0 LINE",
"590 0 LINE",
"590 328 LINE",
"135 328 LINE",
"135 0 LINE",
"93 0 LINE",
"93 707 LINE",
"135 707 LINE"
);
}
);
width = 725;
}
);
unicode = 041D;
},
{
color = (166, 255, 153, 255);
glyphname = uni0420;
layers = (
{
layerId = "0CBE557D-C54C-47B4-BFAF-0B1C1BA95C16";
paths = (
{
closed = 1;
nodes = (
"93 707 LINE",
"328 707 LINE",
"441 707 OFFCURVE",
"569 597 OFFCURVE",
"569 480 QCURVE",
"569 421 OFFCURVE",
"529 335 OFFCURVE",
"459 278 OFFCURVE",
"363 250 OFFCURVE",
"308 250 QCURVE",
"135 250 LINE",
"135 0 LINE",
"93 0 LINE"
);
},
{
closed = 1;
nodes = (
"306 287 LINE",
"355 287 OFFCURVE",
"436 310 OFFCURVE",
"493 358 OFFCURVE",
"525 432 OFFCURVE",
"525 484 QCURVE",
"525 534 OFFCURVE",
"497 604 OFFCURVE",
"444 649 OFFCURVE",
"369 669 OFFCURVE",
"322 669 QCURVE",
"135 669 LINE",
"135 287 LINE"
);
}
);
width = 619;
}
);
unicode = 0420;
},
{
color = (166, 255, 153, 255);
glyphname = uni0422;
layers = (
{
layerId = "0CBE557D-C54C-47B4-BFAF-0B1C1BA95C16";
paths = (
{
closed = 1;
nodes = (
"546 669 LINE",
"304 669 LINE",
"304 0 LINE",
"262 0 LINE",
"262 669 LINE",
"20 669 LINE",
"20 707 LINE",
"546 707 LINE"
);
}
);
width = 566;
}
);
leftKerningGroup = _kern28;
rightKerningGroup = _kern28;
unicode = 0422;
},
{
color = (166, 255, 153, 255);
glyphname = uni0425;
layers = (
{
layerId = "0CBE557D-C54C-47B4-BFAF-0B1C1BA95C16";
paths = (
{
closed = 1;
nodes = (
"473 707 LINE",
"529 707 LINE",
"309 358 LINE",
"538 0 LINE",
"483 0 LINE",
"278 323 LINE",
"74 0 LINE",
"20 0 LINE",
"249 356 LINE",
"28 707 LINE",
"84 707 LINE",
"279 390 LINE"
);
}
);
width = 558;
}
);
unicode = 0425;
},
{
color = (166, 255, 153, 255);
glyphname = T;
layers = (
{
layerId = "0CBE557D-C54C-47B4-BFAF-0B1C1BA95C16";
paths = (
{
closed = 1;
nodes = (
"546 669 LINE",
"304 669 LINE",
"304 0 LINE",
"262 0 LINE",
"262 669 LINE",
"20 669 LINE",
"20 707 LINE",
"546 707 LINE"
);
}
);
width = 566;
}
);
leftKerningGroup = _kern28;
rightKerningGroup = _kern28;
unicode = 0054;
},
{
color = (166, 255, 153, 255);
glyphname = uni0412;
layers = (
{
layerId = "0CBE557D-C54C-47B4-BFAF-0B1C1BA95C16";
paths = (
{
closed = 1;
nodes = (
"92 707 LINE",
"331 707 LINE",
"375 707 OFFCURVE",
"456 694 OFFCURVE",
"519 658 OFFCURVE",
"557 592 OFFCURVE",
"557 539 QCURVE",
"557 470 OFFCURVE",
"480 385 OFFCURVE",
"419 369 QCURVE",
"458 366 OFFCURVE",
"523 337 OFFCURVE",
"570 291 OFFCURVE",
"596 226 OFFCURVE",
"596 187 QCURVE",
"596 130 OFFCURVE",
"548 57 OFFCURVE",
"470 16 OFFCURVE",
"373 0 OFFCURVE",
"325 0 QCURVE",
"92 0 LINE"
);
},
{
closed = 1;
nodes = (
"134 669 LINE",
"134 380 LINE",
"298 380 LINE",
"335 380 OFFCURVE",
"413 395 OFFCURVE",
"477 430 OFFCURVE",
"518 490 OFFCURVE",
"518 535 QCURVE",
"518 579 OFFCURVE",
"487 632 OFFCURVE",
"435 660 OFFCURVE",
"368 669 OFFCURVE",
"332 669 QCURVE"
);
},
{
closed = 1;
nodes = (
"322 38 LINE",
"361 38 OFFCURVE",
"444 46 OFFCURVE",
"511 77 OFFCURVE",
"554 137 OFFCURVE",
"554 190 QCURVE",
"554 236 OFFCURVE",
"517 295 OFFCURVE",
"457 329 OFFCURVE",
"382 343 OFFCURVE",
"344 343 QCURVE",
"134 343 LINE",
"134 38 LINE"
);
}
);
width = 651;
}
);
unicode = 0412;
},
{
color = (166, 255, 153, 255);
glyphname = uni041F;
layers = (
{
layerId = "0CBE557D-C54C-47B4-BFAF-0B1C1BA95C16";
paths = (
{
closed = 1;
nodes = (
"635 0 LINE",
"593 0 LINE",
"593 669 LINE",
"135 669 LINE",
"135 0 LINE",
"93 0 LINE",
"93 707 LINE",
"635 707 LINE"
);
}
);
width = 728;
}
);
unicode = 041F;
},
{
color = (166, 255, 153, 255);
glyphname = uni0413;
layers = (
{
layerId = "0CBE557D-C54C-47B4-BFAF-0B1C1BA95C16";
paths = (
{
closed = 1;
nodes = (
"93 0 LINE",
"93 707 LINE",
"528 707 LINE",
"528 669 LINE",
"135 669 LINE",
"135 0 LINE"
);
}
);
width = 561;
}
);
leftKerningGroup = _kern23;
rightKerningGroup = _kern23;
unicode = 0413;
},
{
color = (166, 255, 153, 255);
glyphname = uni041B;
layers = (
{
layerId = "0CBE557D-C54C-47B4-BFAF-0B1C1BA95C16";
paths = (
{
closed = 1;
nodes = (
"553 0 LINE",
"553 669 LINE",
"186 669 LINE",
"184 630 OFFCURVE",
"183 540 OFFCURVE",
"183 501 QCURVE",
"183 462 OFFCURVE",
"181 382 OFFCURVE",
"180 344 QCURVE",
"180 324 OFFCURVE",
"178 266 OFFCURVE",
"173 202 OFFCURVE",
"165 140 OFFCURVE",
"158 116 QCURVE",
"141 58 OFFCURVE",
"73 -2 OFFCURVE",
"14 -6 QCURVE",
"14 38 LINE",
"72 44 OFFCURVE",
"101 95 QCURVE",
"112 115 OFFCURVE",
"125 176 OFFCURVE",
"132 245 OFFCURVE",
"135 315 OFFCURVE",
"136 342 QCURVE",
"138 393 OFFCURVE",
"140 492 OFFCURVE",
"140 543 QCURVE",
"140 585 OFFCURVE",
"141 665 OFFCURVE",
"142 707 QCURVE",
"595 707 LINE",
"595 0 LINE"
);
}
);
width = 688;
}
);
unicode = 041B;
},
{
color = (166, 255, 153, 255);
glyphname = uni0414;
layers = (
{
layerId = "0CBE557D-C54C-47B4-BFAF-0B1C1BA95C16";
paths = (
{
closed = 1;
nodes = (
"29 -207 LINE",
"29 38 LINE",
"49 42 OFFCURVE",
"81 62 OFFCURVE",
"105 90 OFFCURVE",
"124 123 OFFCURVE",
"131 141 QCURVE",
"141 167 OFFCURVE",
"153 235 OFFCURVE",
"159 309 OFFCURVE",
"161 384 OFFCURVE",
"162 419 QCURVE",
"164 499 OFFCURVE",
"166 641 OFFCURVE",
"168 707 QCURVE",
"599 707 LINE",
"599 38 LINE",
"690 38 LINE",
"690 -207 LINE",
"648 -207 LINE",
"648 0 LINE",
"72 0 LINE",
"72 -207 LINE"
);
},
{
closed = 1;
nodes = (
"558 38 LINE",
"559 669 LINE",
"211 669 LINE",
"200 314 LINE",
"199 289 OFFCURVE",
"195 214 OFFCURVE",
"179 135 OFFCURVE",
"144 62 OFFCURVE",
"113 38 QCURVE"
);
}
);
width = 718;
}
);
rightKerningGroup = _kern12;
unicode = 0414;
},
{
color = (166, 255, 153, 255);
glyphname = uni0411;
layers = (
{
layerId = "0CBE557D-C54C-47B4-BFAF-0B1C1BA95C16";
paths = (
{
closed = 1;
nodes = (
"93 707 LINE",
"555 707 LINE",
"555 669 LINE",
"135 669 LINE",
"135 396 LINE",
"334 396 LINE",
"380 396 OFFCURVE",
"471 382 OFFCURVE",
"543 342 OFFCURVE",
"588 268 OFFCURVE",
"588 207 QCURVE",
"588 148 OFFCURVE",
"547 68 OFFCURVE",
"476 20 OFFCURVE",
"381 0 OFFCURVE",
"328 0 QCURVE",
"93 0 LINE"
);
},
{
closed = 1;
nodes = (
"135 38 LINE",
"316 38 LINE",
"360 38 OFFCURVE",
"443 51 OFFCURVE",
"506 88 OFFCURVE",
"544 153 OFFCURVE",
"544 204 QCURVE",
"544 258 OFFCURVE",
"505 319 OFFCURVE",
"441 350 OFFCURVE",
"360 358 OFFCURVE",
"318 358 QCURVE",
"135 358 LINE"
);
}
);
width = 649;
}
);
unicode = 0411;
},
{
color = (166, 255, 153, 255);
glyphname = uni0416;
layers = (
{
layerId = "0CBE557D-C54C-47B4-BFAF-0B1C1BA95C16";
paths = (
{
closed = 1;
nodes = (
"403 0 LINE",
"403 328 LINE",
"246 328 LINE",
"70 0 LINE",
"20 0 LINE",
"213 357 LINE",
"21 707 LINE",
"68 707 LINE",
"255 365 LINE",
"403 365 LINE",
"403 707 LINE",
"445 707 LINE",
"445 365 LINE",
"597 365 LINE",
"782 707 LINE",
"827 707 LINE",
"636 357 LINE",
"829 0 LINE",
"780 0 LINE",
"604 328 LINE",
"445 328 LINE",
"445 0 LINE"
);
}
);
width = 849;
}
);
unicode = 0416;
},
{
color = (166, 255, 153, 255);
glyphname = uni0417;
layers = (
{
layerId = "0CBE557D-C54C-47B4-BFAF-0B1C1BA95C16";
paths = (
{
closed = 1;
nodes = (
"95 146 LINE",
"102 111 OFFCURVE",
"147 65 OFFCURVE",
"207 38 OFFCURVE",
"275 28 OFFCURVE",
"305 28 QCURVE",
"344 28 OFFCURVE",
"422 42 OFFCURVE",
"485 78 OFFCURVE",
"525 140 OFFCURVE",
"525 188 QCURVE",
"525 237 OFFCURVE",
"487 298 OFFCURVE",
"426 331 OFFCURVE",
"348 342 OFFCURVE",
"309 342 QCURVE",
"215 342 LINE",
"215 379 LINE",
"279 379 LINE",
"313 379 OFFCURVE",
"389 396 OFFCURVE",
"452 433 OFFCURVE",
"494 491 OFFCURVE",
"494 532 QCURVE",
"494 573 OFFCURVE",
"463 629 OFFCURVE",
"412 664 OFFCURVE",
"346 679 OFFCURVE",
"310 679 QCURVE",
"281 679 OFFCURVE",
"217 668 OFFCURVE",
"161 642 OFFCURVE",
"120 598 OFFCURVE",
"113 565 QCURVE",
"69 565 LINE",
"73 609 OFFCURVE",
"124 667 OFFCURVE",
"195 701 OFFCURVE",
"278 715 OFFCURVE",
"314 715 QCURVE",
"356 715 OFFCURVE",
"435 697 OFFCURVE",
"496 656 OFFCURVE",
"534 588 OFFCURVE",
"534 539 QCURVE",
"534 512 OFFCURVE",
"518 459 OFFCURVE",
"483 414 OFFCURVE",
"429 379 OFFCURVE",
"391 369 QCURVE",
"436 364 OFFCURVE",
"502 333 OFFCURVE",
"546 285 OFFCURVE",
"567 223 OFFCURVE",
"567 188 QCURVE",
"567 133 OFFCURVE",
"522 58 OFFCURVE",
"450 12 OFFCURVE",
"358 -8 OFFCURVE",
"311 -8 QCURVE",
"270 -8 OFFCURVE",
"184 6 OFFCURVE",
"110 41 OFFCURVE",
"57 100 OFFCURVE",
"50 146 QCURVE"
);
}
);
width = 622;
}
);
leftKerningGroup = _kern7;
rightKerningGroup = _kern8;
unicode = 0417;
},
{
color = (166, 255, 153, 255);
glyphname = uni0418;
layers = (
{
layerId = "0CBE557D-C54C-47B4-BFAF-0B1C1BA95C16";
paths = (
{
closed = 1;
nodes = (
"93 0 LINE",
"93 707 LINE",
"135 707 LINE",
"135 37 LINE",
"577 707 LINE",
"641 707 LINE",
"641 0 LINE",
"598 0 LINE",
"598 665 LINE",
"156 0 LINE"
);
}
);
width = 734;
}
);
unicode = 0418;
},
{
color = (166, 255, 153, 255);
glyphname = uni0419;
layers = (
{
layerId = "0CBE557D-C54C-47B4-BFAF-0B1C1BA95C16";
paths = (
{
closed = 1;
nodes = (
"392 850 OFFCURVE",
"434 858 OFFCURVE",
"469 877 OFFCURVE",
"494 908 OFFCURVE",
"500 931 QCURVE",
"538 931 LINE",
"533 901 OFFCURVE",
"502 858 OFFCURVE",
"455 831 OFFCURVE",
"398 818 OFFCURVE",
"368 818 QCURVE",
"338 818 OFFCURVE",
"280 830 OFFCURVE",
"234 857 OFFCURVE",
"202 900 OFFCURVE",
"198 931 QCURVE",
"236 931 LINE",
"242 908 OFFCURVE",
"267 877 OFFCURVE",
"303 858 OFFCURVE",
"346 850 OFFCURVE",
"369 850 QCURVE"
);
},
{
closed = 1;
nodes = (
"93 0 LINE",
"93 707 LINE",
"135 707 LINE",
"135 37 LINE",
"577 707 LINE",
"641 707 LINE",
"641 0 LINE",
"598 0 LINE",
"598 665 LINE",
"156 0 LINE"
);
}
);
width = 734;
}
);
unicode = 0419;
},
{
color = (166, 255, 153, 255);
glyphname = uni041A;
layers = (
{
layerId = "0CBE557D-C54C-47B4-BFAF-0B1C1BA95C16";
paths = (
{
closed = 1;
nodes = (
"93 0 LINE",
"93 707 LINE",
"135 707 LINE",
"135 360 LINE",
"280 360 LINE",
"528 707 LINE",
"576 707 LINE",
"324 355 LINE",
"579 0 LINE",
"528 0 LINE",
"293 323 LINE",
"135 323 LINE",
"135 0 LINE"
);
}
);
width = 599;
}
);
unicode = 041A;
},
{
color = (166, 255, 153, 255);
glyphname = uni0423;
layers = (
{
layerId = "0CBE557D-C54C-47B4-BFAF-0B1C1BA95C16";
paths = (
{
closed = 1;
nodes = (
"109 42 LINE",
"151 42 OFFCURVE",
"211 64 OFFCURVE",
"255 99 OFFCURVE",
"284 143 OFFCURVE",
"295 165 QCURVE",
"26 707 LINE",
"77 707 LINE",
"318 214 LINE",
"526 707 LINE",
"573 707 LINE",
"338 155 LINE",
"326 127 OFFCURVE",
"289 72 OFFCURVE",
"234 28 OFFCURVE",
"159 0 OFFCURVE",
"109 -1 QCURVE"
);
}
);
width = 578;
}
);
unicode = 0423;
},
{
color = (166, 255, 153, 255);
glyphname = uni0424;
layers = (
{
layerId = "0CBE557D-C54C-47B4-BFAF-0B1C1BA95C16";
paths = (
{
closed = 1;
nodes = (
"435 741 LINE",
"435 631 LINE",
"520 631 LINE",
"577 631 OFFCURVE",
"671 594 OFFCURVE",
"737 526 OFFCURVE",
"774 431 OFFCURVE",
"774 374 QCURVE",
"774 318 OFFCURVE",
"742 220 OFFCURVE",
"680 146 OFFCURVE",
"590 104 OFFCURVE",
"532 104 QCURVE",
"435 104 LINE",
"435 -16 LINE",
"393 -16 LINE",
"393 104 LINE",
"295 104 LINE",
"235 104 OFFCURVE",
"145 145 OFFCURVE",
"85 218 OFFCURVE",
"54 317 OFFCURVE",
"54 374 QCURVE",
"54 431 OFFCURVE",
"91 526 OFFCURVE",
"158 594 OFFCURVE",
"253 631 OFFCURVE",
"310 631 QCURVE",
"393 631 LINE",
"393 741 LINE"
);
},
{
closed = 1;
nodes = (
"393 136 LINE",
"393 598 LINE",
"316 598 LINE",
"266 598 OFFCURVE",
"184 565 OFFCURVE",
"127 507 OFFCURVE",
"96 425 OFFCURVE",
"96 376 QCURVE",
"96 324 OFFCURVE",
"123 236 OFFCURVE",
"177 172 OFFCURVE",
"260 136 OFFCURVE",
"316 136 QCURVE"
);
},
{
closed = 1;
nodes = (
"435 136 LINE",
"513 136 LINE",
"569 136 OFFCURVE",
"652 172 OFFCURVE",
"706 236 OFFCURVE",
"732 324 OFFCURVE",
"732 376 QCURVE",
"732 425 OFFCURVE",
"700 507 OFFCURVE",
"643 565 OFFCURVE",
"561 598 OFFCURVE",
"512 598 QCURVE",
"435 598 LINE"
);
}
);
width = 828;
}
);
leftKerningGroup = _kern7;
rightKerningGroup = _kern8;
unicode = 0424;
},
{
color = (166, 255, 153, 255);
glyphname = uni0426;
layers = (
{
layerId = "0CBE557D-C54C-47B4-BFAF-0B1C1BA95C16";
paths = (
{
closed = 1;
nodes = (
"93 0 LINE",
"93 707 LINE",
"135 707 LINE",
"135 38 LINE",
"568 38 LINE",
"568 707 LINE",
"611 707 LINE",
"611 38 LINE",
"702 38 LINE",
"702 -207 LINE",
"659 -207 LINE",
"659 0 LINE"
);
}
);
width = 727;
}
);
rightKerningGroup = _kern12;
unicode = 0426;
},
{
color = (166, 255, 153, 255);
glyphname = uni0427;
layers = (
{
layerId = "0CBE557D-C54C-47B4-BFAF-0B1C1BA95C16";
paths = (
{
closed = 1;
nodes = (
"377 301 OFFCURVE",
"456 306 OFFCURVE",
"506 313 QCURVE",
"506 707 LINE",
"549 707 LINE",
"549 0 LINE",
"506 0 LINE",
"506 276 LINE",
"460 270 OFFCURVE",
"379 265 OFFCURVE",
"341 265 QCURVE",
"278 265 OFFCURVE",
"177 284 OFFCURVE",
"107 335 OFFCURVE",
"70 426 OFFCURVE",
"70 497 QCURVE",
"70 707 LINE",
"112 707 LINE",
"112 509 LINE",
"112 450 OFFCURVE",
"137 370 OFFCURVE",
"191 322 OFFCURVE",
"274 301 OFFCURVE",
"332 301 QCURVE"
);
}
);
width = 642;
}
);
unicode = 0427;
},
{
color = (166, 255, 153, 255);
glyphname = uni0428;
layers = (
{
layerId = "0CBE557D-C54C-47B4-BFAF-0B1C1BA95C16";
paths = (
{
closed = 1;
nodes = (
"93 707 LINE",
"135 707 LINE",
"135 38 LINE",
"468 38 LINE",
"468 707 LINE",
"510 707 LINE",
"510 38 LINE",
"843 38 LINE",
"843 707 LINE",
"886 707 LINE",
"886 0 LINE",
"93 0 LINE"
);
}
);
width = 979;
}
);
unicode = 0428;
},
{
color = (166, 255, 153, 255);
glyphname = uni0429;
layers = (
{
layerId = "0CBE557D-C54C-47B4-BFAF-0B1C1BA95C16";
paths = (
{
closed = 1;
nodes = (
"93 707 LINE",
"135 707 LINE",
"135 38 LINE",
"468 38 LINE",
"468 707 LINE",
"510 707 LINE",
"510 38 LINE",
"843 38 LINE",
"843 707 LINE",
"886 707 LINE",
"886 38 LINE",
"977 38 LINE",
"977 -207 LINE",
"934 -207 LINE",
"934 0 LINE",
"93 0 LINE"
);
}
);
width = 1002;
}
);
rightKerningGroup = _kern12;
unicode = 0429;
},
{
color = (166, 255, 153, 255);
glyphname = uni042A;
layers = (
{
layerId = "0CBE557D-C54C-47B4-BFAF-0B1C1BA95C16";
paths = (
{
closed = 1;
nodes = (
"192 669 LINE",
"20 669 LINE",
"20 707 LINE",
"234 707 LINE",
"234 396 LINE",
"398 396 LINE",
"446 396 OFFCURVE",
"543 384 OFFCURVE",
"622 345 OFFCURVE",
"672 270 OFFCURVE",
"672 208 QCURVE",
"672 150 OFFCURVE",
"629 70 OFFCURVE",
"556 21 OFFCURVE",
"461 0 OFFCURVE",
"409 0 QCURVE",
"192 0 LINE"
);
},
{
closed = 1;
nodes = (
"234 38 LINE",
"387 38 LINE",
"429 38 OFFCURVE",
"516 49 OFFCURVE",
"586 84 OFFCURVE",
"630 149 OFFCURVE",
"630 203 QCURVE",
"630 257 OFFCURVE",
"588 319 OFFCURVE",
"521 350 OFFCURVE",
"437 359 OFFCURVE",
"396 359 QCURVE",
"234 359 LINE"
);
}
);
width = 728;
}
);
unicode = 042A;
},
{
color = (166, 255, 153, 255);
glyphname = uni042B;
layers = (
{
layerId = "0CBE557D-C54C-47B4-BFAF-0B1C1BA95C16";
paths = (
{
closed = 1;
nodes = (
"93 707 LINE",
"135 707 LINE",
"135 396 LINE",
"264 396 LINE",
"316 396 OFFCURVE",
"418 385 OFFCURVE",
"499 347 OFFCURVE",
"550 273 OFFCURVE",
"550 209 QCURVE",
"550 149 OFFCURVE",
"508 69 OFFCURVE",
"436 21 OFFCURVE",
"340 0 OFFCURVE",
"287 0 QCURVE",
"93 0 LINE"
);
},
{
closed = 1;
nodes = (
"135 38 LINE",
"274 38 LINE",
"316 38 OFFCURVE",
"400 49 OFFCURVE",
"466 84 OFFCURVE",
"508 149 OFFCURVE",
"508 203 QCURVE",
"508 257 OFFCURVE",
"468 319 OFFCURVE",
"403 350 OFFCURVE",
"322 359 OFFCURVE",
"281 359 QCURVE",
"135 359 LINE"
);
},
{
closed = 1;
nodes = (
"685 0 LINE",
"685 707 LINE",
"727 707 LINE",
"727 0 LINE"
);
}
);
width = 820;
}
);
unicode = 042B;
},
{
color = (166, 255, 153, 255);
glyphname = uni042C;
layers = (
{
layerId = "0CBE557D-C54C-47B4-BFAF-0B1C1BA95C16";
paths = (
{
closed = 1;
nodes = (
"92 707 LINE",
"134 707 LINE",
"134 396 LINE",
"286 396 LINE",
"336 396 OFFCURVE",
"437 384 OFFCURVE",
"519 345 OFFCURVE",
"571 270 OFFCURVE",
"571 207 QCURVE",
"571 147 OFFCURVE",
"529 68 OFFCURVE",
"457 20 OFFCURVE",
"362 0 OFFCURVE",
"309 0 QCURVE",
"92 0 LINE"
);
},
{
closed = 1;
nodes = (
"134 38 LINE",
"295 38 LINE",
"337 38 OFFCURVE",
"421 49 OFFCURVE",
"488 84 OFFCURVE",
"530 149 OFFCURVE",
"530 203 QCURVE",
"530 257 OFFCURVE",
"488 319 OFFCURVE",
"422 350 OFFCURVE",
"339 359 OFFCURVE",
"297 359 QCURVE",
"134 359 LINE"
);
}
);
width = 627;
}
);
unicode = 042C;
},
{
color = (166, 255, 153, 255);
glyphname = uni042D;
layers = (
{
layerId = "0CBE557D-C54C-47B4-BFAF-0B1C1BA95C16";
paths = (
{
closed = 1;
nodes = (
"299 679 OFFCURVE",
"230 666 OFFCURVE",
"168 637 OFFCURVE",
"116 591 OFFCURVE",
"101 558 QCURVE",
"55 558 LINE",
"73 603 OFFCURVE",
"135 664 OFFCURVE",
"210 700 OFFCURVE",
"292 715 OFFCURVE",
"330 715 QCURVE",
"411 715 OFFCURVE",
"529 654 OFFCURVE",
"606 552 OFFCURVE",
"643 419 OFFCURVE",
"643 348 QCURVE",
"643 271 OFFCURVE",
"604 141 OFFCURVE",
"524 46 OFFCURVE",
"404 -8 OFFCURVE",
"322 -8 QCURVE",
"279 -8 OFFCURVE",
"196 10 OFFCURVE",
"123 47 OFFCURVE",
"65 107 OFFCURVE",
"48 149 QCURVE",
"99 149 LINE",
"113 117 OFFCURVE",
"162 72 OFFCURVE",
"223 42 OFFCURVE",
"290 28 OFFCURVE",
"323 28 QCURVE",
"392 28 OFFCURVE",
"495 74 OFFCURVE",
"563 155 OFFCURVE",
"599 268 OFFCURVE",
"601 335 QCURVE",
"224 335 LINE",
"224 373 LINE",
"601 373 LINE",
"598 434 OFFCURVE",
"561 545 OFFCURVE",
"494 629 OFFCURVE",
"396 679 OFFCURVE",
"332 679 QCURVE"
);
}
);
width = 697;
}
);
leftKerningGroup = _kern7;
rightKerningGroup = _kern8;
unicode = 042D;
},
{
color = (166, 255, 153, 255);
glyphname = uni042E;
layers = (
{
layerId = "0CBE557D-C54C-47B4-BFAF-0B1C1BA95C16";
paths = (
{
closed = 1;
nodes = (
"93 0 LINE",
"93 707 LINE",
"135 707 LINE",
"135 373 LINE",
"284 373 LINE",
"287 447 OFFCURVE",
"330 572 OFFCURVE",
"410 664 OFFCURVE",
"526 715 OFFCURVE",
"602 715 QCURVE",
"684 715 OFFCURVE",
"807 660 OFFCURVE",
"890 564 OFFCURVE",
"932 431 OFFCURVE",
"932 353 QCURVE",
"932 275 OFFCURVE",
"890 143 OFFCURVE",
"807 46 OFFCURVE",
"684 -8 OFFCURVE",
"602 -8 QCURVE",
"525 -8 OFFCURVE",
"409 43 OFFCURVE",
"329 135 OFFCURVE",
"287 261 OFFCURVE",
"284 335 QCURVE",
"135 335 LINE",
"135 0 LINE"
);
},
{
closed = 1;
nodes = (
"530 679 OFFCURVE",
"425 626 OFFCURVE",
"358 537 OFFCURVE",
"325 419 OFFCURVE",
"325 353 QCURVE",
"325 288 OFFCURVE",
"358 171 OFFCURVE",
"426 81 OFFCURVE",
"531 28 OFFCURVE",
"602 28 QCURVE",
"675 28 OFFCURVE",
"783 79 OFFCURVE",
"855 167 OFFCURVE",
"890 285 OFFCURVE",
"890 353 QCURVE",
"890 420 OFFCURVE",
"855 538 OFFCURVE",
"783 627 OFFCURVE",
"675 679 OFFCURVE",
"602 679 QCURVE"
);
}
);
width = 986;
}
);
rightKerningGroup = _kern8;
unicode = 042E;
},
{
color = (166, 255, 153, 255);
glyphname = uni042F;
layers = (
{
layerId = "0CBE557D-C54C-47B4-BFAF-0B1C1BA95C16";
paths = (
{
closed = 1;
nodes = (
"130 0 LINE",
"81 0 LINE",
"240 290 LINE",
"153 307 OFFCURVE",
"61 409 OFFCURVE",
"61 493 QCURVE",
"61 551 OFFCURVE",
"100 633 OFFCURVE",
"169 684 OFFCURVE",
"262 707 OFFCURVE",
"317 707 QCURVE",
"564 707 LINE",
"564 0 LINE",
"522 0 LINE",
"522 284 LINE",
"282 284 LINE"
);
},
{
closed = 1;
nodes = (
"522 321 LINE",
"522 669 LINE",
"322 669 LINE",
"276 669 OFFCURVE",
"196 653 OFFCURVE",
"137 614 OFFCURVE",
"103 547 OFFCURVE",
"103 496 QCURVE",
"103 447 OFFCURVE",
"138 380 OFFCURVE",
"197 339 OFFCURVE",
"274 321 OFFCURVE",
"317 321 QCURVE"
);
}
);
width = 657;
}
);
unicode = 042F;
},
{
color = (166, 255, 153, 255);
glyphname = uni0440;
layers = (
{
layerId = "0CBE557D-C54C-47B4-BFAF-0B1C1BA95C16";
paths = (
{
closed = 1;
nodes = (
"115 -206 LINE",
"73 -206 LINE",
"73 527 LINE",
"115 527 LINE",
"115 423 LINE",
"154 482 OFFCURVE",
"255 534 OFFCURVE",
"323 534 QCURVE",
"383 534 OFFCURVE",
"471 490 OFFCURVE",
"528 415 OFFCURVE",
"556 315 OFFCURVE",
"556 259 QCURVE",
"556 199 OFFCURVE",
"526 100 OFFCURVE",
"466 31 OFFCURVE",
"378 -7 OFFCURVE",
"320 -7 QCURVE",
"296 -7 OFFCURVE",
"240 1 OFFCURVE",
"184 24 OFFCURVE",
"134 65 OFFCURVE",
"115 98 QCURVE"
);
},
{
closed = 1;
nodes = (
"375 29 OFFCURVE",
"448 67 OFFCURVE",
"493 131 OFFCURVE",
"514 215 OFFCURVE",
"514 262 QCURVE",
"514 310 OFFCURVE",
"492 395 OFFCURVE",
"445 460 OFFCURVE",
"369 498 OFFCURVE",
"315 498 QCURVE",
"265 498 OFFCURVE",
"190 458 OFFCURVE",
"139 392 OFFCURVE",
"113 307 OFFCURVE",
"113 262 QCURVE",
"113 212 OFFCURVE",
"140 127 OFFCURVE",
"192 65 OFFCURVE",
"271 29 OFFCURVE",
"323 29 QCURVE"
);
}
);
width = 609;
}
);
leftKerningGroup = _kern11;
rightKerningGroup = _kern10;
unicode = 0440;
},
{
color = (166, 255, 153, 255);
glyphname = O;
layers = (
{
layerId = "0CBE557D-C54C-47B4-BFAF-0B1C1BA95C16";
paths = (
{
closed = 1;
nodes = (
"302 -8 OFFCURVE",
"179 46 OFFCURVE",
"96 143 OFFCURVE",
"54 275 OFFCURVE",
"54 353 QCURVE",
"54 431 OFFCURVE",
"96 564 OFFCURVE",
"179 660 OFFCURVE",
"302 715 OFFCURVE",
"384 715 QCURVE",
"465 715 OFFCURVE",
"589 660 OFFCURVE",
"671 563 OFFCURVE",
"713 431 OFFCURVE",
"713 353 QCURVE",
"713 275 OFFCURVE",
"671 143 OFFCURVE",
"589 47 OFFCURVE",
"465 -8 OFFCURVE",
"384 -8 QCURVE"
);
},
{
closed = 1;
nodes = (
"312 679 OFFCURVE",
"204 627 OFFCURVE",
"133 538 OFFCURVE",
"98 420 OFFCURVE",
"98 353 QCURVE",
"98 286 OFFCURVE",
"134 168 OFFCURVE",
"206 79 OFFCURVE",
"313 28 OFFCURVE",
"384 28 QCURVE",
"456 28 OFFCURVE",
"563 79 OFFCURVE",
"633 167 OFFCURVE",
"668 285 OFFCURVE",
"668 353 QCURVE",
"668 420 OFFCURVE",
"634 538 OFFCURVE",
"563 627 OFFCURVE",
"456 679 OFFCURVE",
"384 679 QCURVE"
);
}
);
width = 767;
}
);
leftKerningGroup = _kern3;
rightKerningGroup = _kern4;
unicode = 004F;
},
{
color = (166, 255, 153, 255);
glyphname = a;
layers = (
{
layerId = "0CBE557D-C54C-47B4-BFAF-0B1C1BA95C16";
paths = (
{
closed = 1;
nodes = (
"440 81 LINE",
"376 -5 OFFCURVE",
"239 -7 QCURVE",
"208 -7 OFFCURVE",
"145 6 OFFCURVE",
"90 41 OFFCURVE",
"53 98 OFFCURVE",
"53 142 QCURVE",
"53 185 OFFCURVE",
"85 243 OFFCURVE",
"139 277 OFFCURVE",
"210 291 OFFCURVE",
"248 291 QCURVE",
"440 291 LINE",
"440 333 OFFCURVE",
"423 408 OFFCURVE",
"385 464 OFFCURVE",
"323 497 OFFCURVE",
"278 498 QCURVE",
"259 498 OFFCURVE",
"217 493 OFFCURVE",
"178 478 OFFCURVE",
"144 452 OFFCURVE",
"133 432 QCURVE",
"86 432 LINE",
"99 467 OFFCURVE",
"148 507 OFFCURVE",
"203 528 OFFCURVE",
"257 534 OFFCURVE",
"276 534 QCURVE",
"324 534 OFFCURVE",
"397 505 OFFCURVE",
"421 481 QCURVE",
"455 447 OFFCURVE",
"482 347 OFFCURVE",
"482 287 QCURVE",
"482 0 LINE",
"440 0 LINE"
);
},
{
closed = 1;
nodes = (
"273 256 LINE",
"244 256 OFFCURVE",
"181 251 OFFCURVE",
"129 229 OFFCURVE",
"95 185 OFFCURVE",
"95 147 QCURVE",
"95 116 OFFCURVE",
"119 71 OFFCURVE",
"158 43 OFFCURVE",
"209 29 OFFCURVE",
"236 29 QCURVE",
"273 29 OFFCURVE",
"345 46 OFFCURVE",
"404 87 OFFCURVE",
"440 146 OFFCURVE",
"440 187 QCURVE",
"440 256 LINE"
);
}
);
width = 552;
}
);
leftKerningGroup = _kern27;
rightKerningGroup = _kern27;
unicode = 0061;
},
{
color = (166, 255, 153, 255);
glyphname = c;
layers = (
{
layerId = "0CBE557D-C54C-47B4-BFAF-0B1C1BA95C16";
paths = (
{
closed = 1;
nodes = (
"238 -7 OFFCURVE",
"146 33 OFFCURVE",
"84 105 OFFCURVE",
"53 204 OFFCURVE",
"53 262 QCURVE",
"53 320 OFFCURVE",
"85 420 OFFCURVE",
"148 493 OFFCURVE",
"242 534 OFFCURVE",
"304 534 QCURVE",
"371 534 OFFCURVE",
"474 471 OFFCURVE",
"497 408 QCURVE",
"451 408 LINE",
"434 455 OFFCURVE",
"350 498 OFFCURVE",
"300 498 QCURVE",
"248 498 OFFCURVE",
"171 461 OFFCURVE",
"120 397 OFFCURVE",
"95 311 OFFCURVE",
"95 262 QCURVE",
"95 214 OFFCURVE",
"120 130 OFFCURVE",
"171 66 OFFCURVE",
"249 29 OFFCURVE",
"303 29 QCURVE",
"356 29 OFFCURVE",
"440 71 OFFCURVE",
"460 118 QCURVE",
"506 118 LINE",
"480 54 OFFCURVE",
"367 -7 OFFCURVE",
"300 -7 QCURVE"
);
}
);
width = 551;
}
);
leftKerningGroup = _kern5;
rightKerningGroup = _kern6;
unicode = 0063;
},
{
color = (166, 255, 153, 255);
glyphname = e;
layers = (
{
layerId = "0CBE557D-C54C-47B4-BFAF-0B1C1BA95C16";
paths = (
{
closed = 1;
nodes = (
"95 252 LINE",
"97 203 OFFCURVE",
"123 121 OFFCURVE",
"173 62 OFFCURVE",
"250 29 OFFCURVE",
"304 29 QCURVE",
"326 29 OFFCURVE",
"372 37 OFFCURVE",
"415 55 OFFCURVE",
"451 85 OFFCURVE",
"462 106 QCURVE",
"509 106 LINE",
"496 76 OFFCURVE",
"450 33 OFFCURVE",
"393 6 OFFCURVE",
"330 -7 OFFCURVE",
"299 -7 QCURVE",
"236 -7 OFFCURVE",
"144 33 OFFCURVE",
"83 105 OFFCURVE",
"53 204 OFFCURVE",
"53 263 QCURVE",
"53 319 OFFCURVE",
"84 418 OFFCURVE",
"146 491 OFFCURVE",
"238 534 OFFCURVE",
"298 534 QCURVE",
"358 534 OFFCURVE",
"443 488 OFFCURVE",
"499 410 OFFCURVE",
"524 308 OFFCURVE",
"524 252 QCURVE"
);
},
{
closed = 1;
nodes = (
"482 287 LINE",
"480 329 OFFCURVE",
"456 406 OFFCURVE",
"409 464 OFFCURVE",
"340 498 OFFCURVE",
"294 498 QCURVE",
"248 498 OFFCURVE",
"177 463 OFFCURVE",
"126 404 OFFCURVE",
"98 328 OFFCURVE",
"96 287 QCURVE"
);
}
);
width = 578;
}
);
leftKerningGroup = _kern5;
rightKerningGroup = _kern6;
unicode = 0065;
},
{
color = (166, 255, 153, 255);
glyphname = f;
layers = (
{
layerId = "0CBE557D-C54C-47B4-BFAF-0B1C1BA95C16";
paths = (
{
closed = 1;
nodes = (
"131 492 LINE",
"38 492 LINE",
"38 527 LINE",
"131 527 LINE",
"131 594 LINE",
"131 637 OFFCURVE",
"143 704 OFFCURVE",
"178 750 OFFCURVE",
"239 773 OFFCURVE",
"289 773 QCURVE",
"331 773 LINE",
"331 738 LINE",
"294 738 LINE",
"252 738 OFFCURVE",
"204 719 OFFCURVE",
"180 681 OFFCURVE",
"173 626 OFFCURVE",
"173 589 QCURVE",
"173 527 LINE",
"331 527 LINE",
"331 492 LINE",
"173 492 LINE",
"173 0 LINE",
"131 0 LINE"
);
}
);
width = 359;
}
);
unicode = 0066;
},
{
color = (166, 255, 153, 255);
glyphname = g;
layers = (
{
layerId = "0CBE557D-C54C-47B4-BFAF-0B1C1BA95C16";
paths = (
{
closed = 1;
nodes = (
"497 527 LINE",
"536 527 LINE",
"536 6 LINE",
"536 -57 OFFCURVE",
"511 -155 OFFCURVE",
"455 -222 OFFCURVE",
"367 -257 OFFCURVE",
"303 -257 QCURVE",
"267 -257 OFFCURVE",
"200 -243 OFFCURVE",
"145 -213 OFFCURVE",
"104 -166 OFFCURVE",
"92 -133 QCURVE",
"139 -133 LINE",
"149 -158 OFFCURVE",
"186 -191 OFFCURVE",
"232 -212 OFFCURVE",
"283 -221 OFFCURVE",
"307 -221 QCURVE",
"364 -221 OFFCURVE",
"436 -187 OFFCURVE",
"478 -126 OFFCURVE",
"494 -42 OFFCURVE",
"494 7 QCURVE",
"494 109 LINE",
"478 76 OFFCURVE",
"432 32 OFFCURVE",
"377 5 OFFCURVE",
"318 -7 OFFCURVE",
"288 -7 QCURVE",
"223 -7 OFFCURVE",
"134 36 OFFCURVE",
"78 110 OFFCURVE",
"53 209 OFFCURVE",
"53 265 QCURVE",
"53 325 OFFCURVE",
"85 424 OFFCURVE",
"147 495 OFFCURVE",
"237 534 OFFCURVE",
"295 534 QCURVE",
"322 534 OFFCURVE",
"379 523 OFFCURVE",
"432 496 OFFCURVE",
"479 452 OFFCURVE",
"497 420 QCURVE"
);
},
{
closed = 1;
nodes = (
"241 498 OFFCURVE",
"166 459 OFFCURVE",
"118 395 OFFCURVE",
"95 311 OFFCURVE",
"95 265 QCURVE",
"95 217 OFFCURVE",
"116 131 OFFCURVE",
"164 66 OFFCURVE",
"240 29 OFFCURVE",
"294 29 QCURVE",
"344 29 OFFCURVE",
"419 68 OFFCURVE",
"470 133 OFFCURVE",
"496 218 OFFCURVE",
"496 265 QCURVE",
"496 313 OFFCURVE",
"471 397 OFFCURVE",
"421 461 OFFCURVE",
"344 498 OFFCURVE",
"293 498 QCURVE"
);
}
);
width = 609;
}
);
leftKerningGroup = _kern5;
unicode = 0067;
},
{
color = (166, 255, 153, 255);
glyphname = j;
layers = (
{
layerId = "0CBE557D-C54C-47B4-BFAF-0B1C1BA95C16";
paths = (
{
closed = 1;
nodes = (
"158 726 OFFCURVE",
"179 704 OFFCURVE",
"179 687 QCURVE",
"179 669 OFFCURVE",
"157 648 OFFCURVE",
"138 648 QCURVE",
"121 648 OFFCURVE",
"99 669 OFFCURVE",
"99 687 QCURVE",
"99 706 OFFCURVE",
"122 726 OFFCURVE",
"139 726 QCURVE"
);
},
{
closed = 1;
nodes = (
"158 -12 LINE",
"158 -54 OFFCURVE",
"147 -122 OFFCURVE",
"114 -170 OFFCURVE",
"52 -196 OFFCURVE",
"1 -196 QCURVE",
"-18 -196 LINE",
"-18 -161 LINE",
"0 -161 LINE",
"40 -161 OFFCURVE",
"86 -138 OFFCURVE",
"110 -97 OFFCURVE",
"116 -41 OFFCURVE",
"116 -8 QCURVE",
"116 527 LINE",
"158 527 LINE"
);
}
);
width = 240;
}
);
unicode = 006A;
},
{
color = (166, 255, 153, 255);
glyphname = o;
layers = (
{
layerId = "0CBE557D-C54C-47B4-BFAF-0B1C1BA95C16";
paths = (
{
closed = 1;
nodes = (
"356 29 OFFCURVE",
"434 65 OFFCURVE",
"485 128 OFFCURVE",
"510 214 OFFCURVE",
"510 263 QCURVE",
"510 312 OFFCURVE",
"485 397 OFFCURVE",
"434 461 OFFCURVE",
"356 498 OFFCURVE",
"302 498 QCURVE",
"248 498 OFFCURVE",
"170 461 OFFCURVE",
"119 397 OFFCURVE",
"95 312 OFFCURVE",
"95 263 QCURVE",
"95 214 OFFCURVE",
"119 128 OFFCURVE",
"170 65 OFFCURVE",
"248 29 OFFCURVE",
"302 29 QCURVE"
);
},
{
closed = 1;
nodes = (
"363 534 OFFCURVE",
"457 494 OFFCURVE",
"520 422 OFFCURVE",
"552 322 OFFCURVE",
"552 263 QCURVE",
"552 204 OFFCURVE",
"520 105 OFFCURVE",
"457 33 OFFCURVE",
"363 -7 OFFCURVE",
"302 -7 QCURVE",
"240 -7 OFFCURVE",
"147 33 OFFCURVE",
"84 105 OFFCURVE",
"53 204 OFFCURVE",
"53 263 QCURVE",
"53 322 OFFCURVE",
"84 422 OFFCURVE",
"147 494 OFFCURVE",
"240 534 OFFCURVE",
"302 534 QCURVE"
);
}
);
width = 605;
}
);
leftKerningGroup = _kern5;
rightKerningGroup = _kern6;
unicode = 006F;
},
{
color = (166, 255, 153, 255);
glyphname = r;
layers = (
{
layerId = "0CBE557D-C54C-47B4-BFAF-0B1C1BA95C16";
paths = (
{
closed = 1;
nodes = (
"73 0 LINE",
"73 527 LINE",
"113 527 LINE",
"113 409 LINE",
"129 447 OFFCURVE",
"178 494 OFFCURVE",
"235 521 OFFCURVE",
"296 530 OFFCURVE",
"324 530 QCURVE",
"334 530 LINE",
"334 494 LINE",
"327 494 LINE",
"271 494 OFFCURVE",
"191 458 OFFCURVE",
"140 394 OFFCURVE",
"115 305 OFFCURVE",
"115 253 QCURVE",
"115 0 LINE"
);
}
);
width = 357;
}
);
leftKerningGroup = _kern29;
rightKerningGroup = _kern29;
unicode = 0072;
},
{
color = (166, 255, 153, 255);
glyphname = t;
layers = (
{
layerId = "0CBE557D-C54C-47B4-BFAF-0B1C1BA95C16";
paths = (
{
closed = 1;
nodes = (
"166 527 LINE",
"322 527 LINE",
"322 492 LINE",
"166 492 LINE",
"166 171 LINE",
"166 103 OFFCURVE",
"222 36 OFFCURVE",
"292 36 QCURVE",
"319 36 LINE",
"319 0 LINE",
"284 0 LINE",
"202 0 OFFCURVE",
"124 79 OFFCURVE",
"124 167 QCURVE",
"124 492 LINE",
"31 492 LINE",
"31 527 LINE",
"124 527 LINE",
"124 685 LINE",
"166 685 LINE"
);
}
);
width = 359;
}
);
leftKerningGroup = _kern21;
rightKerningGroup = _kern21;
unicode = 0074;
},
{
color = (166, 255, 153, 255);
glyphname = y2_alt;
layers = (
{
layerId = "0CBE557D-C54C-47B4-BFAF-0B1C1BA95C16";
paths = (
{
closed = 1;
nodes = (
"472 527 LINE",
"521 527 LINE",
"340 20 LINE",
"332 -3 OFFCURVE",
"308 -64 OFFCURVE",
"280 -125 OFFCURVE",
"247 -180 OFFCURVE",
"229 -196 QCURVE",
"198 -225 OFFCURVE",
"133 -245 OFFCURVE",
"86 -245 QCURVE",
"86 -204 LINE",
"124 -204 OFFCURVE",
"179 -184 OFFCURVE",
"221 -144 OFFCURVE",
"253 -86 OFFCURVE",
"268 -48 QCURVE",
"27 527 LINE",
"78 527 LINE",
"292 6 LINE"
);
}
);
width = 539;
}
);
},
{
color = (166, 255, 153, 255);
glyphname = uni0443;
layers = (
{
layerId = "0CBE557D-C54C-47B4-BFAF-0B1C1BA95C16";
paths = (
{
closed = 1;
nodes = (
"472 527 LINE",
"521 527 LINE",
"340 20 LINE",
"332 -3 OFFCURVE",
"308 -64 OFFCURVE",
"280 -125 OFFCURVE",
"247 -180 OFFCURVE",
"229 -196 QCURVE",
"198 -225 OFFCURVE",
"133 -245 OFFCURVE",
"86 -245 QCURVE",
"86 -204 LINE",
"124 -204 OFFCURVE",
"179 -184 OFFCURVE",
"221 -144 OFFCURVE",
"253 -86 OFFCURVE",
"268 -48 QCURVE",
"27 527 LINE",
"78 527 LINE",
"292 6 LINE"
);
}
);
width = 539;
}
);
unicode = 0443;
},
{
color = (166, 255, 153, 255);
glyphname = uni0451;
layers = (
{
layerId = "0CBE557D-C54C-47B4-BFAF-0B1C1BA95C16";
paths = (
{
closed = 1;
nodes = (
"435 714 OFFCURVE",
"456 692 OFFCURVE",
"456 675 QCURVE",
"456 658 OFFCURVE",
"435 636 OFFCURVE",
"416 636 QCURVE",
"398 636 OFFCURVE",
"376 659 OFFCURVE",
"376 675 QCURVE",
"376 691 OFFCURVE",
"398 714 OFFCURVE",
"416 714 QCURVE"
);
},
{
closed = 1;
nodes = (
"95 252 LINE",
"97 203 OFFCURVE",
"123 121 OFFCURVE",
"173 62 OFFCURVE",
"250 29 OFFCURVE",
"304 29 QCURVE",
"326 29 OFFCURVE",
"372 37 OFFCURVE",
"415 55 OFFCURVE",
"451 85 OFFCURVE",
"462 106 QCURVE",
"509 106 LINE",
"496 76 OFFCURVE",
"450 33 OFFCURVE",
"393 6 OFFCURVE",
"330 -7 OFFCURVE",
"299 -7 QCURVE",
"236 -7 OFFCURVE",
"144 33 OFFCURVE",
"83 105 OFFCURVE",
"53 204 OFFCURVE",
"53 263 QCURVE",
"53 321 OFFCURVE",
"87 421 OFFCURVE",
"150 493 OFFCURVE",
"241 534 OFFCURVE",
"298 534 QCURVE",
"358 534 OFFCURVE",
"443 488 OFFCURVE",
"499 410 OFFCURVE",
"524 308 OFFCURVE",
"524 252 QCURVE"
);
},
{
closed = 1;
nodes = (
"482 287 LINE",
"480 329 OFFCURVE",
"456 406 OFFCURVE",
"409 464 OFFCURVE",
"340 498 OFFCURVE",
"294 498 QCURVE",
"248 498 OFFCURVE",
"177 463 OFFCURVE",
"126 404 OFFCURVE",
"98 328 OFFCURVE",
"96 287 QCURVE"
);
},
{
closed = 1;
nodes = (
"194 714 OFFCURVE",
"215 692 OFFCURVE",
"215 675 QCURVE",
"215 658 OFFCURVE",
"194 636 OFFCURVE",
"175 636 QCURVE",
"157 636 OFFCURVE",
"135 659 OFFCURVE",
"135 675 QCURVE",
"135 691 OFFCURVE",
"157 714 OFFCURVE",
"175 714 QCURVE"
);
}
);
width = 578;
}
);
leftKerningGroup = _kern9;
rightKerningGroup = _kern10;
unicode = 0451;
},
{
color = (166, 255, 153, 255);
glyphname = uni0437;
layers = (
{
layerId = "0CBE557D-C54C-47B4-BFAF-0B1C1BA95C16";
paths = (
{
closed = 1;
nodes = (
"377 270 OFFCURVE",
"423 245 OFFCURVE",
"453 209 OFFCURVE",
"467 165 OFFCURVE",
"467 142 QCURVE",
"467 98 OFFCURVE",
"429 41 OFFCURVE",
"369 7 OFFCURVE",
"295 -7 OFFCURVE",
"258 -7 QCURVE",
"226 -7 OFFCURVE",
"160 2 OFFCURVE",
"101 27 OFFCURVE",
"55 72 OFFCURVE",
"45 107 QCURVE",
"91 107 LINE",
"100 83 OFFCURVE",
"138 52 OFFCURVE",
"185 35 OFFCURVE",
"235 29 OFFCURVE",
"255 29 QCURVE",
"283 29 OFFCURVE",
"343 38 OFFCURVE",
"393 63 OFFCURVE",
"425 107 OFFCURVE",
"425 142 QCURVE",
"425 177 OFFCURVE",
"396 219 OFFCURVE",
"350 241 OFFCURVE",
"293 248 OFFCURVE",
"265 248 QCURVE",
"178 248 LINE",
"178 283 LINE",
"230 283 LINE",
"257 283 OFFCURVE",
"317 292 OFFCURVE",
"368 317 OFFCURVE",
"402 361 OFFCURVE",
"402 395 QCURVE",
"402 424 OFFCURVE",
"375 464 OFFCURVE",
"334 488 OFFCURVE",
"283 498 OFFCURVE",
"259 498 QCURVE",
"238 498 OFFCURVE",
"192 493 OFFCURVE",
"149 477 OFFCURVE",
"115 448 OFFCURVE",
"108 424 QCURVE",
"65 424 LINE",
"71 457 OFFCURVE",
"111 499 OFFCURVE",
"166 524 OFFCURVE",
"229 534 OFFCURVE",
"258 534 QCURVE",
"289 534 OFFCURVE",
"354 521 OFFCURVE",
"407 491 OFFCURVE",
"441 440 OFFCURVE",
"443 403 QCURVE",
"445 362 OFFCURVE",
"402 293 OFFCURVE",
"346 274 QCURVE"
);
}
);
width = 516;
}
);
leftKerningGroup = _kern9;
rightKerningGroup = _kern10;
unicode = 0437;
},
{
color = (166, 255, 153, 255);
glyphname = uni044D;
layers = (
{
layerId = "0CBE557D-C54C-47B4-BFAF-0B1C1BA95C16";
paths = (
{
closed = 1;
nodes = (
"456 279 LINE",
"453 324 OFFCURVE",
"428 403 OFFCURVE",
"380 463 OFFCURVE",
"310 498 OFFCURVE",
"263 498 QCURVE",
"239 498 OFFCURVE",
"188 489 OFFCURVE",
"141 468 OFFCURVE",
"104 434 OFFCURVE",
"94 409 QCURVE",
"51 409 LINE",
"63 441 OFFCURVE",
"105 488 OFFCURVE",
"161 519 OFFCURVE",
"225 534 OFFCURVE",
"259 534 QCURVE",
"319 534 OFFCURVE",
"409 491 OFFCURVE",
"469 418 OFFCURVE",
"498 319 OFFCURVE",
"498 263 QCURVE",
"498 204 OFFCURVE",
"469 105 OFFCURVE",
"409 33 OFFCURVE",
"318 -7 OFFCURVE",
"256 -7 QCURVE",
"222 -7 OFFCURVE",
"156 8 OFFCURVE",
"100 39 OFFCURVE",
"57 86 OFFCURVE",
"45 118 QCURVE",
"91 118 LINE",
"101 93 OFFCURVE",
"139 59 OFFCURVE",
"186 38 OFFCURVE",
"237 29 OFFCURVE",
"261 29 QCURVE",
"309 29 OFFCURVE",
"381 61 OFFCURVE",
"429 119 OFFCURVE",
"454 197 OFFCURVE",
"455 244 QCURVE",
"179 244 LINE",
"179 279 LINE"
);
}
);
width = 547;
}
);
leftKerningGroup = _kern9;
rightKerningGroup = _kern10;
unicode = 044D;
},
{
color = (166, 255, 153, 255);
glyphname = C;
layers = (
{
layerId = "0CBE557D-C54C-47B4-BFAF-0B1C1BA95C16";
paths = (
{
closed = 1;
nodes = (
"309 679 OFFCURVE",
"201 627 OFFCURVE",
"131 538 OFFCURVE",
"96 421 OFFCURVE",
"96 355 QCURVE",
"96 289 OFFCURVE",
"130 170 OFFCURVE",
"199 80 OFFCURVE",
"305 28 OFFCURVE",
"378 28 QCURVE",
"411 28 OFFCURVE",
"478 42 OFFCURVE",
"539 71 OFFCURVE",
"588 117 OFFCURVE",
"602 149 QCURVE",
"651 149 LINE",
"634 108 OFFCURVE",
"576 49 OFFCURVE",
"503 10 OFFCURVE",
"419 -8 OFFCURVE",
"376 -8 QCURVE",
"293 -8 OFFCURVE",
"172 47 OFFCURVE",
"92 143 OFFCURVE",
"54 275 OFFCURVE",
"54 353 QCURVE",
"54 429 OFFCURVE",
"94 562 OFFCURVE",
"175 659 OFFCURVE",
"297 715 OFFCURVE",
"379 715 QCURVE",
"422 715 OFFCURVE",
"503 697 OFFCURVE",
"571 660 OFFCURVE",
"623 600 OFFCURVE",
"638 558 QCURVE",
"594 558 LINE",
"565 620 OFFCURVE",
"452 679 OFFCURVE",
"383 679 QCURVE"
);
}
);
width = 699;
}
);
leftKerningGroup = _kern3;
rightKerningGroup = _kern4;
unicode = 0043;
},
{
color = (166, 255, 153, 255);
glyphname = S;
layers = (
{
layerId = "0CBE557D-C54C-47B4-BFAF-0B1C1BA95C16";
paths = (
{
closed = 1;
nodes = (
"290 679 OFFCURVE",
"222 665 OFFCURVE",
"166 632 OFFCURVE",
"129 577 OFFCURVE",
"129 535 QCURVE",
"129 501 OFFCURVE",
"151 454 OFFCURVE",
"190 421 OFFCURVE",
"242 400 OFFCURVE",
"271 392 QCURVE",
"313 381 OFFCURVE",
"395 359 OFFCURVE",
"433 347 QCURVE",
"463 338 OFFCURVE",
"517 309 OFFCURVE",
"556 270 OFFCURVE",
"579 219 OFFCURVE",
"579 187 QCURVE",
"579 133 OFFCURVE",
"537 59 OFFCURVE",
"468 13 OFFCURVE",
"381 -8 OFFCURVE",
"335 -8 QCURVE",
"291 -8 OFFCURVE",
"206 8 OFFCURVE",
"133 46 OFFCURVE",
"78 105 OFFCURVE",
"63 149 QCURVE",
"110 149 LINE",
"126 116 OFFCURVE",
"175 70 OFFCURVE",
"234 41 OFFCURVE",
"299 28 OFFCURVE",
"332 28 QCURVE",
"369 28 OFFCURVE",
"442 45 OFFCURVE",
"499 81 OFFCURVE",
"534 137 OFFCURVE",
"534 176 QCURVE",
"534 208 OFFCURVE",
"514 253 OFFCURVE",
"478 284 OFFCURVE",
"429 305 OFFCURVE",
"401 313 QCURVE",
"371 322 OFFCURVE",
"313 338 OFFCURVE",
"288 344 QCURVE",
"251 353 OFFCURVE",
"178 377 OFFCURVE",
"119 418 OFFCURVE",
"83 480 OFFCURVE",
"83 528 QCURVE",
"83 580 OFFCURVE",
"124 651 OFFCURVE",
"191 695 OFFCURVE",
"278 715 OFFCURVE",
"324 715 QCURVE",
"364 715 OFFCURVE",
"441 699 OFFCURVE",
"503 662 OFFCURVE",
"547 604 OFFCURVE",
"556 562 QCURVE",
"511 562 LINE",
"502 594 OFFCURVE",
"463 639 OFFCURVE",
"412 667 OFFCURVE",
"352 679 OFFCURVE",
"323 679 QCURVE"
);
}
);
width = 643;
}
);
leftKerningGroup = _kern3;
rightKerningGroup = _kern4;
unicode = 0053;
},
{
color = (166, 255, 153, 255);
glyphname = uni0421;
layers = (
{
layerId = "0CBE557D-C54C-47B4-BFAF-0B1C1BA95C16";
paths = (
{
closed = 1;
nodes = (
"309 679 OFFCURVE",
"201 627 OFFCURVE",
"131 538 OFFCURVE",
"96 421 OFFCURVE",
"96 355 QCURVE",
"96 289 OFFCURVE",
"130 170 OFFCURVE",
"200 80 OFFCURVE",
"306 28 OFFCURVE",
"379 28 QCURVE",
"412 28 OFFCURVE",
"479 42 OFFCURVE",
"539 71 OFFCURVE",
"588 117 OFFCURVE",
"602 149 QCURVE",
"651 149 LINE",
"634 108 OFFCURVE",
"577 49 OFFCURVE",
"504 10 OFFCURVE",
"421 -8 OFFCURVE",
"378 -8 QCURVE",
"295 -8 OFFCURVE",
"173 47 OFFCURVE",
"93 143 OFFCURVE",
"54 275 OFFCURVE",
"54 353 QCURVE",
"54 431 OFFCURVE",
"95 563 OFFCURVE",
"177 660 OFFCURVE",
"298 715 OFFCURVE",
"379 715 QCURVE",
"421 715 OFFCURVE",
"502 697 OFFCURVE",
"570 660 OFFCURVE",
"623 600 OFFCURVE",
"638 558 QCURVE",
"594 558 LINE",
"565 620 OFFCURVE",
"452 679 OFFCURVE",
"383 679 QCURVE"
);
}
);
width = 699;
}
);
leftKerningGroup = _kern7;
rightKerningGroup = _kern8;
unicode = 0421;
},
{
color = (166, 255, 153, 255);
glyphname = G;
layers = (
{
layerId = "0CBE557D-C54C-47B4-BFAF-0B1C1BA95C16";
paths = (
{
closed = 1;
nodes = (
"302 679 OFFCURVE",
"197 625 OFFCURVE",
"130 534 OFFCURVE",
"99 415 OFFCURVE",
"99 349 QCURVE",
"99 284 OFFCURVE",
"131 167 OFFCURVE",
"199 79 OFFCURVE",
"304 28 OFFCURVE",
"376 28 QCURVE",
"437 28 OFFCURVE",
"531 66 OFFCURVE",
"596 137 OFFCURVE",
"631 236 OFFCURVE",
"632 296 QCURVE",
"384 296 LINE",
"384 333 LINE",
"670 333 LINE",
"670 294 LINE",
"670 227 OFFCURVE",
"628 116 OFFCURVE",
"552 36 OFFCURVE",
"442 -8 OFFCURVE",
"375 -8 QCURVE",
"295 -8 OFFCURVE",
"175 46 OFFCURVE",
"95 141 OFFCURVE",
"55 269 OFFCURVE",
"54 344 QCURVE",
"53 420 OFFCURVE",
"92 556 OFFCURVE",
"171 656 OFFCURVE",
"292 715 OFFCURVE",
"373 715 QCURVE",
"418 715 OFFCURVE",
"500 698 OFFCURVE",
"570 660 OFFCURVE",
"625 601 OFFCURVE",
"643 558 QCURVE",
"593 558 LINE",
"579 589 OFFCURVE",
"531 634 OFFCURVE",
"473 664 OFFCURVE",
"407 679 OFFCURVE",
"375 679 QCURVE"
);
}
);
width = 724;
}
);
leftKerningGroup = _kern3;
rightKerningGroup = _kern4;
unicode = 0047;
},
{
color = (166, 255, 153, 255);
glyphname = uni041E;
layers = (
{
layerId = "0CBE557D-C54C-47B4-BFAF-0B1C1BA95C16";
paths = (
{
closed = 1;
nodes = (
"302 -8 OFFCURVE",
"179 46 OFFCURVE",
"96 143 OFFCURVE",
"54 275 OFFCURVE",
"54 353 QCURVE",
"54 431 OFFCURVE",
"96 564 OFFCURVE",
"179 660 OFFCURVE",
"302 715 OFFCURVE",
"384 715 QCURVE",
"465 715 OFFCURVE",
"589 660 OFFCURVE",
"671 563 OFFCURVE",
"713 431 OFFCURVE",
"713 353 QCURVE",
"713 275 OFFCURVE",
"671 143 OFFCURVE",
"589 47 OFFCURVE",
"465 -8 OFFCURVE",
"384 -8 QCURVE"
);
},
{
closed = 1;
nodes = (
"312 679 OFFCURVE",
"204 627 OFFCURVE",
"133 538 OFFCURVE",
"98 420 OFFCURVE",
"98 353 QCURVE",
"98 286 OFFCURVE",
"134 168 OFFCURVE",
"206 79 OFFCURVE",
"313 28 OFFCURVE",
"384 28 QCURVE",
"456 28 OFFCURVE",
"563 79 OFFCURVE",
"633 167 OFFCURVE",
"668 285 OFFCURVE",
"668 353 QCURVE",
"668 420 OFFCURVE",
"634 538 OFFCURVE",
"563 627 OFFCURVE",
"456 679 OFFCURVE",
"384 679 QCURVE"
);
}
);
width = 767;
}
);
leftKerningGroup = _kern7;
rightKerningGroup = _kern8;
unicode = 041E;
},
{
color = (166, 255, 153, 255);
glyphname = Q;
layers = (
{
layerId = "0CBE557D-C54C-47B4-BFAF-0B1C1BA95C16";
paths = (
{
closed = 1;
nodes = (
"302 -8 OFFCURVE",
"179 46 OFFCURVE",
"96 143 OFFCURVE",
"54 275 OFFCURVE",
"54 353 QCURVE",
"54 431 OFFCURVE",
"96 564 OFFCURVE",
"179 660 OFFCURVE",
"302 715 OFFCURVE",
"384 715 QCURVE",
"465 715 OFFCURVE",
"589 660 OFFCURVE",
"671 563 OFFCURVE",
"713 431 OFFCURVE",
"713 353 QCURVE",
"713 258 OFFCURVE",
"648 102 OFFCURVE",
"583 50 QCURVE",
"694 -104 LINE",
"657 -129 LINE",
"545 27 LINE",
"469 -8 OFFCURVE",
"384 -8 QCURVE"
);
},
{
closed = 1;
nodes = (
"312 679 OFFCURVE",
"204 627 OFFCURVE",
"133 538 OFFCURVE",
"98 420 OFFCURVE",
"98 353 QCURVE",
"98 286 OFFCURVE",
"134 168 OFFCURVE",
"205 79 OFFCURVE",
"312 28 OFFCURVE",
"384 28 QCURVE",
"457 28 OFFCURVE",
"564 79 OFFCURVE",
"634 167 OFFCURVE",
"668 285 OFFCURVE",
"668 353 QCURVE",
"668 420 OFFCURVE",
"634 538 OFFCURVE",
"563 627 OFFCURVE",
"456 679 OFFCURVE",
"384 679 QCURVE"
);
}
);
width = 767;
}
);
leftKerningGroup = _kern3;
rightKerningGroup = _kern4;
unicode = 0051;
},
{
color = (166, 255, 153, 255);
glyphname = J;
layers = (
{
layerId = "0CBE557D-C54C-47B4-BFAF-0B1C1BA95C16";
paths = (
{
closed = 1;
nodes = (
"95 161 LINE",
"106 92 OFFCURVE",
"187 28 OFFCURVE",
"257 28 QCURVE",
"307 28 OFFCURVE",
"370 63 OFFCURVE",
"405 122 OFFCURVE",
"417 200 OFFCURVE",
"417 243 QCURVE",
"417 707 LINE",
"460 707 LINE",
"460 235 LINE",
"460 190 OFFCURVE",
"445 103 OFFCURVE",
"400 34 OFFCURVE",
"319 -8 OFFCURVE",
"254 -8 QCURVE",
"168 -8 OFFCURVE",
"61 71 OFFCURVE",
"48 161 QCURVE"
);
}
);
width = 548;
}
);
unicode = 004A;
},
{
color = (166, 255, 153, 255);
glyphname = K_alt;
layers = (
{
layerId = "0CBE557D-C54C-47B4-BFAF-0B1C1BA95C16";
paths = (
{
closed = 1;
nodes = (
"93 0 LINE",
"93 707 LINE",
"135 707 LINE",
"135 284 LINE",
"533 707 LINE",
"583 707 LINE",
"289 392 LINE",
"579 0 LINE",
"529 0 LINE",
"259 364 LINE",
"135 231 LINE",
"135 0 LINE"
);
}
);
width = 599;
}
);
leftKerningGroup = _kern16;
rightKerningGroup = _kern16;
},
{
color = (166, 255, 153, 255);
glyphname = K;
layers = (
{
layerId = "0CBE557D-C54C-47B4-BFAF-0B1C1BA95C16";
paths = (
{
closed = 1;
nodes = (
"93 0 LINE",
"93 707 LINE",
"135 707 LINE",
"135 360 LINE",
"280 360 LINE",
"528 707 LINE",
"576 707 LINE",
"324 355 LINE",
"579 0 LINE",
"528 0 LINE",
"293 323 LINE",
"135 323 LINE",
"135 0 LINE"
);
}
);
width = 599;
}
);
leftKerningGroup = _kern1;
rightKerningGroup = _kern16;
unicode = 004B;
},
{
color = (166, 255, 153, 255);
glyphname = k_alt;
layers = (
{
layerId = "0CBE557D-C54C-47B4-BFAF-0B1C1BA95C16";
paths = (
{
closed = 1;
nodes = (
"73 0 LINE",
"73 707 LINE",
"115 707 LINE",
"115 216 LINE",
"418 527 LINE",
"467 527 LINE",
"257 310 LINE",
"487 0 LINE",
"440 0 LINE",
"228 283 LINE",
"115 165 LINE",
"115 0 LINE"
);
}
);
width = 507;
}
);
leftKerningGroup = _kern17;
rightKerningGroup = _kern17;
},
{
color = (166, 255, 153, 255);
glyphname = k;
layers = (
{
layerId = "0CBE557D-C54C-47B4-BFAF-0B1C1BA95C16";
paths = (
{
closed = 1;
nodes = (
"73 0 LINE",
"73 707 LINE",
"115 707 LINE",
"115 281 LINE",
"252 281 LINE",
"421 527 LINE",
"468 527 LINE",
"292 273 LINE",
"486 0 LINE",
"438 0 LINE",
"260 246 LINE",
"115 246 LINE",
"115 0 LINE"
);
}
);
width = 499;
}
);
leftKerningGroup = _kern17;
rightKerningGroup = _kern17;
unicode = 006B;
},
{
color = (166, 255, 153, 255);
glyphname = i_alt;
layers = (
{
layerId = "0CBE557D-C54C-47B4-BFAF-0B1C1BA95C16";
paths = (
{
closed = 1;
nodes = (
"111 0 LINE",
"111 492 LINE",
"18 492 LINE",
"18 527 LINE",
"153 527 LINE",
"153 0 LINE"
);
},
{
closed = 1;
nodes = (
"148 726 OFFCURVE",
"170 704 OFFCURVE",
"170 687 QCURVE",
"170 669 OFFCURVE",
"148 648 OFFCURVE",
"130 648 QCURVE",
"113 648 OFFCURVE",
"90 669 OFFCURVE",
"90 687 QCURVE",
"90 706 OFFCURVE",
"113 726 OFFCURVE",
"130 726 QCURVE"
);
}
);
width = 236;
}
);
},
{
color = (166, 255, 153, 255);
glyphname = j_alt;
layers = (
{
layerId = "0CBE557D-C54C-47B4-BFAF-0B1C1BA95C16";
paths = (
{
closed = 1;
nodes = (
"171 -32 LINE",
"171 -117 OFFCURVE",
"97 -196 OFFCURVE",
"12 -196 QCURVE",
"-12 -196 LINE",
"-12 -161 LINE",
"25 -163 OFFCURVE",
"79 -151 OFFCURVE",
"113 -119 OFFCURVE",
"129 -66 OFFCURVE",
"129 -26 QCURVE",
"129 492 LINE",
"25 492 LINE",
"25 527 LINE",
"171 527 LINE"
);
},
{
closed = 1;
nodes = (
"162 726 OFFCURVE",
"184 704 OFFCURVE",
"184 687 QCURVE",
"184 669 OFFCURVE",
"162 648 OFFCURVE",
"144 648 QCURVE",
"127 648 OFFCURVE",
"103 669 OFFCURVE",
"103 687 QCURVE",
"103 706 OFFCURVE",
"127 726 OFFCURVE",
"144 726 QCURVE"
);
}
);
width = 250;
}
);
},
{
color = (166, 255, 153, 255);
glyphname = s_alt;
layers = (
{
layerId = "0CBE557D-C54C-47B4-BFAF-0B1C1BA95C16";
paths = (
{
closed = 1;
nodes = (
"232 498 OFFCURVE",
"176 489 OFFCURVE",
"128 467 OFFCURVE",
"97 426 OFFCURVE",
"96 395 QCURVE",
"95 368 OFFCURVE",
"116 331 OFFCURVE",
"149 307 OFFCURVE",
"190 293 OFFCURVE",
"210 289 QCURVE",
"227 286 OFFCURVE",
"268 280 OFFCURVE",
"310 273 OFFCURVE",
"349 266 OFFCURVE",
"366 263 QCURVE",
"419 252 OFFCURVE",
"483 193 OFFCURVE",
"483 137 QCURVE",
"483 95 OFFCURVE",
"443 39 OFFCURVE",
"381 6 OFFCURVE",
"305 -7 OFFCURVE",
"268 -7 QCURVE",
"235 -7 OFFCURVE",
"165 6 OFFCURVE",
"103 34 OFFCURVE",
"54 78 OFFCURVE",
"43 109 QCURVE",
"90 109 LINE",
"103 86 OFFCURVE",
"144 55 OFFCURVE",
"193 37 OFFCURVE",
"244 29 OFFCURVE",
"268 29 QCURVE",
"293 29 OFFCURVE",
"353 36 OFFCURVE",
"405 58 OFFCURVE",
"441 99 OFFCURVE",
"441 134 QCURVE",
"441 159 OFFCURVE",
"424 192 OFFCURVE",
"395 213 OFFCURVE",
"358 226 OFFCURVE",
"338 231 QCURVE",
"324 234 OFFCURVE",
"289 239 OFFCURVE",
"271 242 QCURVE",
"235 247 OFFCURVE",
"159 261 OFFCURVE",
"95 291 OFFCURVE",
"54 346 OFFCURVE",
"54 393 QCURVE",
"54 433 OFFCURVE",
"92 488 OFFCURVE",
"152 520 OFFCURVE",
"225 534 OFFCURVE",
"260 534 QCURVE",
"290 534 OFFCURVE",
"353 522 OFFCURVE",
"408 496 OFFCURVE",
"451 455 OFFCURVE",
"460 426 QCURVE",
"418 426 LINE",
"409 445 OFFCURVE",
"372 473 OFFCURVE",
"327 490 OFFCURVE",
"279 498 OFFCURVE",
"258 498 QCURVE"
);
}
);
width = 528;
}
);
leftKerningGroup = _kern5;
rightKerningGroup = _kern6;
},
{
color = (166, 255, 153, 255);
glyphname = s;
layers = (
{
layerId = "0CBE557D-C54C-47B4-BFAF-0B1C1BA95C16";
paths = (
{
closed = 1;
nodes = (
"229 498 OFFCURVE",
"177 492 OFFCURVE",
"130 471 OFFCURVE",
"99 429 OFFCURVE",
"99 394 QCURVE",
"99 368 OFFCURVE",
"119 333 OFFCURVE",
"151 308 OFFCURVE",
"191 293 OFFCURVE",
"212 288 QCURVE",
"243 281 OFFCURVE",
"310 270 OFFCURVE",
"342 262 QCURVE",
"394 249 OFFCURVE",
"459 193 OFFCURVE",
"459 139 QCURVE",
"459 96 OFFCURVE",
"423 40 OFFCURVE",
"365 7 OFFCURVE",
"292 -7 OFFCURVE",
"256 -7 QCURVE",
"224 -7 OFFCURVE",
"157 6 OFFCURVE",
"99 34 OFFCURVE",
"53 78 OFFCURVE",
"43 109 QCURVE",
"90 109 LINE",
"102 86 OFFCURVE",
"141 55 OFFCURVE",
"186 37 OFFCURVE",
"234 29 OFFCURVE",
"257 29 QCURVE",
"283 29 OFFCURVE",
"340 38 OFFCURVE",
"387 61 OFFCURVE",
"418 102 OFFCURVE",
"418 134 QCURVE",
"418 159 OFFCURVE",
"399 192 OFFCURVE",
"367 214 OFFCURVE",
"328 227 OFFCURVE",
"311 231 QCURVE",
"297 234 OFFCURVE",
"265 240 OFFCURVE",
"248 243 QCURVE",
"219 248 OFFCURVE",
"150 264 OFFCURVE",
"94 297 OFFCURVE",
"58 350 OFFCURVE",
"58 393 QCURVE",
"58 434 OFFCURVE",
"91 488 OFFCURVE",
"145 521 OFFCURVE",
"215 534 OFFCURVE",
"251 534 QCURVE",
"280 534 OFFCURVE",
"339 522 OFFCURVE",
"390 495 OFFCURVE",
"428 454 OFFCURVE",
"437 425 QCURVE",
"395 425 LINE",
"386 444 OFFCURVE",
"354 472 OFFCURVE",
"314 490 OFFCURVE",
"271 498 OFFCURVE",
"250 498 QCURVE"
);
}
);
width = 504;
}
);
leftKerningGroup = _kern5;
rightKerningGroup = _kern6;
unicode = 0073;
},
{
color = (166, 255, 153, 255);
glyphname = c_alt;
layers = (
{
layerId = "0CBE557D-C54C-47B4-BFAF-0B1C1BA95C16";
paths = (
{
closed = 1;
nodes = (
"235 -7 OFFCURVE",
"142 33 OFFCURVE",
"80 105 OFFCURVE",
"49 204 OFFCURVE",
"49 263 QCURVE",
"49 323 OFFCURVE",
"81 423 OFFCURVE",
"144 494 OFFCURVE",
"237 534 OFFCURVE",
"299 534 QCURVE",
"329 534 OFFCURVE",
"385 523 OFFCURVE",
"434 499 OFFCURVE",
"473 459 OFFCURVE",
"487 429 QCURVE",
"441 429 LINE",
"421 464 OFFCURVE",
"345 498 OFFCURVE",
"303 498 QCURVE",
"250 498 OFFCURVE",
"170 462 OFFCURVE",
"117 399 OFFCURVE",
"91 313 OFFCURVE",
"91 263 QCURVE",
"91 215 OFFCURVE",
"116 130 OFFCURVE",
"168 66 OFFCURVE",
"247 29 OFFCURVE",
"300 29 QCURVE",
"341 29 OFFCURVE",
"422 55 OFFCURVE",
"446 90 QCURVE",
"494 90 LINE",
"465 38 OFFCURVE",
"357 -7 OFFCURVE",
"297 -7 QCURVE"
);
}
);
width = 540;
}
);
leftKerningGroup = _kern5;
rightKerningGroup = _kern6;
},
{
color = (166, 255, 153, 255);
glyphname = copyright;
layers = (
{
layerId = "0CBE557D-C54C-47B4-BFAF-0B1C1BA95C16";
paths = (
{
closed = 1;
nodes = (
"564 715 OFFCURVE",
"715 652 OFFCURVE",
"820 540 OFFCURVE",
"877 385 OFFCURVE",
"877 292 QCURVE",
"877 199 OFFCURVE",
"822 45 OFFCURVE",
"717 -67 OFFCURVE",
"566 -129 OFFCURVE",
"471 -129 QCURVE",
"376 -129 OFFCURVE",
"225 -67 OFFCURVE",
"120 45 OFFCURVE",
"65 199 OFFCURVE",
"65 292 QCURVE",
"65 385 OFFCURVE",
"122 540 OFFCURVE",
"227 652 OFFCURVE",
"378 715 OFFCURVE",
"471 715 QCURVE"
);
},
{
closed = 1;
nodes = (
"386 677 OFFCURVE",
"251 619 OFFCURVE",
"157 516 OFFCURVE",
"107 375 OFFCURVE",
"107 292 QCURVE",
"107 209 OFFCURVE",
"156 69 OFFCURVE",
"250 -34 OFFCURVE",
"385 -92 OFFCURVE",
"471 -92 QCURVE",
"557 -92 OFFCURVE",
"693 -33 OFFCURVE",
"786 70 OFFCURVE",
"835 210 OFFCURVE",
"835 292 QCURVE",
"835 374 OFFCURVE",
"785 515 OFFCURVE",
"692 618 OFFCURVE",
"556 677 OFFCURVE",
"471 677 QCURVE"
);
},
{
closed = 1;
nodes = (
"436 87 OFFCURVE",
"367 118 OFFCURVE",
"321 173 OFFCURVE",
"298 249 OFFCURVE",
"298 293 QCURVE",
"298 336 OFFCURVE",
"321 411 OFFCURVE",
"367 467 OFFCURVE",
"437 499 OFFCURVE",
"484 499 QCURVE",
"538 499 OFFCURVE",
"616 454 OFFCURVE",
"634 401 QCURVE",
"595 401 LINE",
"581 436 OFFCURVE",
"525 467 OFFCURVE",
"487 467 QCURVE",
"445 467 OFFCURVE",
"387 439 OFFCURVE",
"352 391 OFFCURVE",
"336 328 OFFCURVE",
"336 293 QCURVE",
"336 258 OFFCURVE",
"353 195 OFFCURVE",
"389 147 OFFCURVE",
"445 119 OFFCURVE",
"484 119 QCURVE",
"522 119 OFFCURVE",
"589 149 OFFCURVE",
"604 184 QCURVE",
"643 184 LINE",
"624 133 OFFCURVE",
"539 87 OFFCURVE",
"483 87 QCURVE"
);
}
);
width = 942;
}
);
unicode = 00A9;
},
{
color = (166, 255, 153, 255);
glyphname = ampersand;
layers = (
{
layerId = "0CBE557D-C54C-47B4-BFAF-0B1C1BA95C16";
paths = (
{
closed = 1;
nodes = (
"495 76 LINE",
"444 28 OFFCURVE",
"338 -8 OFFCURVE",
"278 -8 QCURVE",
"236 -8 OFFCURVE",
"161 15 OFFCURVE",
"105 60 OFFCURVE",
"73 127 OFFCURVE",
"73 172 QCURVE",
"73 208 OFFCURVE",
"99 270 OFFCURVE",
"143 322 OFFCURVE",
"202 364 OFFCURVE",
"235 381 QCURVE",
"200 416 OFFCURVE",
"146 504 OFFCURVE",
"146 554 QCURVE",
"146 632 OFFCURVE",
"241 716 OFFCURVE",
"319 715 QCURVE",
"385 714 OFFCURVE",
"469 638 OFFCURVE",
"469 572 QCURVE",
"469 537 OFFCURVE",
"442 480 OFFCURVE",
"395 430 OFFCURVE",
"331 388 OFFCURVE",
"294 370 QCURVE",
"494 137 LINE",
"522 175 OFFCURVE",
"554 247 OFFCURVE",
"561 285 QCURVE",
"602 285 LINE",
"594 238 OFFCURVE",
"550 143 OFFCURVE",
"523 109 QCURVE",
"620 0 LINE",
"564 0 LINE"
);
},
{
closed = 1;
nodes = (
"295 410 OFFCURVE",
"352 444 OFFCURVE",
"400 485 OFFCURVE",
"432 536 OFFCURVE",
"432 568 QCURVE",
"432 593 OFFCURVE",
"413 634 OFFCURVE",
"382 663 OFFCURVE",
"339 679 OFFCURVE",
"315 679 QCURVE",
"256 680 OFFCURVE",
"187 616 OFFCURVE",
"187 558 QCURVE",
"187 534 OFFCURVE",
"203 488 OFFCURVE",
"228 448 OFFCURVE",
"257 412 OFFCURVE",
"271 397 QCURVE"
);
},
{
closed = 1;
nodes = (
"259 352 LINE",
"232 338 OFFCURVE",
"181 302 OFFCURVE",
"142 258 OFFCURVE",
"119 205 OFFCURVE",
"119 174 QCURVE",
"119 138 OFFCURVE",
"145 83 OFFCURVE",
"190 47 OFFCURVE",
"248 29 OFFCURVE",
"281 29 QCURVE",
"331 29 OFFCURVE",
"434 67 OFFCURVE",
"469 106 QCURVE"
);
}
);
width = 650;
}
);
unicode = 0026;
},
{
color = (166, 255, 153, 255);
glyphname = dollar;
layers = (
{
layerId = "0CBE557D-C54C-47B4-BFAF-0B1C1BA95C16";
paths = (
{
closed = 1;
nodes = (
"313 852 LINE",
"356 852 LINE",
"356 714 LINE",
"433 712 OFFCURVE",
"544 635 OFFCURVE",
"558 562 QCURVE",
"515 562 LINE",
"507 595 OFFCURVE",
"470 640 OFFCURVE",
"419 667 OFFCURVE",
"358 679 OFFCURVE",
"326 679 QCURVE",
"292 679 OFFCURVE",
"222 666 OFFCURVE",
"166 634 OFFCURVE",
"131 578 OFFCURVE",
"131 536 QCURVE",
"131 502 OFFCURVE",
"152 455 OFFCURVE",
"189 422 OFFCURVE",
"239 400 OFFCURVE",
"268 392 QCURVE",
"310 381 OFFCURVE",
"393 362 OFFCURVE",
"434 350 QCURVE",
"464 341 OFFCURVE",
"516 313 OFFCURVE",
"556 273 OFFCURVE",
"580 221 OFFCURVE",
"581 188 QCURVE",
"582 136 OFFCURVE",
"545 63 OFFCURVE",
"481 16 OFFCURVE",
"396 -6 OFFCURVE",
"350 -8 QCURVE",
"350 -146 LINE",
"308 -146 LINE",
"308 -8 LINE",
"266 -5 OFFCURVE",
"190 15 OFFCURVE",
"126 53 OFFCURVE",
"78 110 OFFCURVE",
"65 149 QCURVE",
"112 149 LINE",
"127 114 OFFCURVE",
"175 69 OFFCURVE",
"235 42 OFFCURVE",
"303 32 OFFCURVE",
"338 32 QCURVE",
"372 32 OFFCURVE",
"443 47 OFFCURVE",
"500 80 OFFCURVE",
"536 135 OFFCURVE",
"536 176 QCURVE",
"536 208 OFFCURVE",
"513 255 OFFCURVE",
"475 288 OFFCURVE",
"425 310 OFFCURVE",
"397 317 QCURVE",
"355 328 OFFCURVE",
"282 346 OFFCURVE",
"240 357 QCURVE",
"207 365 OFFCURVE",
"150 395 OFFCURVE",
"109 438 OFFCURVE",
"85 494 OFFCURVE",
"85 530 QCURVE",
"85 578 OFFCURVE",
"122 649 OFFCURVE",
"185 695 OFFCURVE",
"268 716 OFFCURVE",
"313 715 QCURVE"
);
}
);
width = 647;
}
);
unicode = 0024;
},
{
color = (166, 255, 153, 255);
glyphname = parenleft;
layers = (
{
layerId = "0CBE557D-C54C-47B4-BFAF-0B1C1BA95C16";
paths = (
{
closed = 1;
nodes = (
"243 -225 LINE",
"158 -104 OFFCURVE",
"71 158 OFFCURVE",
"71 300 QCURVE",
"71 442 OFFCURVE",
"163 715 OFFCURVE",
"247 824 QCURVE",
"292 824 LINE",
"249 765 OFFCURVE",
"183 644 OFFCURVE",
"137 516 OFFCURVE",
"113 377 OFFCURVE",
"113 300 QCURVE",
"113 224 OFFCURVE",
"137 86 OFFCURVE",
"184 -43 OFFCURVE",
"251 -165 OFFCURVE",
"293 -225 QCURVE"
);
}
);
width = 267;
}
);
unicode = 0028;
},
{
color = (166, 255, 153, 255);
glyphname = parenright;
layers = (
{
layerId = "0CBE557D-C54C-47B4-BFAF-0B1C1BA95C16";
paths = (
{
closed = 1;
nodes = (
"24 824 LINE",
"109 703 OFFCURVE",
"196 441 OFFCURVE",
"196 299 QCURVE",
"196 157 OFFCURVE",
"105 -116 OFFCURVE",
"21 -225 QCURVE",
"-26 -225 LINE",
"17 -166 OFFCURVE",
"84 -45 OFFCURVE",
"130 83 OFFCURVE",
"154 222 OFFCURVE",
"154 299 QCURVE",
"154 450 OFFCURVE",
"60 704 OFFCURVE",
"-25 824 QCURVE"
);
}
);
width = 267;
}
);
unicode = 0029;
},
{
color = (166, 255, 153, 255);
glyphname = cent;
layers = (
{
layerId = "0CBE557D-C54C-47B4-BFAF-0B1C1BA95C16";
paths = (
{
closed = 1;
nodes = (
"273 682 LINE",
"315 682 LINE",
"315 534 LINE",
"378 531 OFFCURVE",
"474 468 OFFCURVE",
"496 408 QCURVE",
"451 408 LINE",
"434 454 OFFCURVE",
"350 498 OFFCURVE",
"300 498 QCURVE",
"248 498 OFFCURVE",
"171 461 OFFCURVE",
"120 397 OFFCURVE",
"95 311 OFFCURVE",
"95 262 QCURVE",
"95 214 OFFCURVE",
"119 130 OFFCURVE",
"170 66 OFFCURVE",
"248 29 OFFCURVE",
"302 29 QCURVE",
"355 29 OFFCURVE",
"441 71 OFFCURVE",
"461 118 QCURVE",
"506 118 LINE",
"482 58 OFFCURVE",
"378 -3 OFFCURVE",
"315 -6 QCURVE",
"315 -163 LINE",
"273 -163 LINE",
"273 -5 LINE",
"218 -1 OFFCURVE",
"136 43 OFFCURVE",
"81 113 OFFCURVE",
"53 207 OFFCURVE",
"53 262 QCURVE",
"53 317 OFFCURVE",
"81 411 OFFCURVE",
"136 483 OFFCURVE",
"219 527 OFFCURVE",
"273 532 QCURVE"
);
}
);
width = 576;
}
);
unicode = 00A2;
},
{
color = (166, 255, 153, 255);
glyphname = section;
layers = (
{
layerId = "0CBE557D-C54C-47B4-BFAF-0B1C1BA95C16";
paths = (
{
closed = 1;
nodes = (
"242 684 OFFCURVE",
"189 676 OFFCURVE",
"146 655 OFFCURVE",
"118 615 OFFCURVE",
"118 584 QCURVE",
"118 566 OFFCURVE",
"132 537 OFFCURVE",
"156 516 OFFCURVE",
"185 501 OFFCURVE",
"200 497 QCURVE",
"240 486 OFFCURVE",
"322 471 OFFCURVE",
"361 460 QCURVE",
"409 448 OFFCURVE",
"467 394 OFFCURVE",
"467 343 QCURVE",
"467 275 OFFCURVE",
"396 233 QCURVE",
"432 219 OFFCURVE",
"469 165 OFFCURVE",
"469 130 QCURVE",
"469 90 OFFCURVE",
"436 37 OFFCURVE",
"382 5 OFFCURVE",
"315 -8 OFFCURVE",
"281 -8 QCURVE",
"248 -8 OFFCURVE",
"181 3 OFFCURVE",
"123 28 OFFCURVE",
"77 71 OFFCURVE",
"65 103 QCURVE",
"110 103 LINE",
"121 82 OFFCURVE",
"161 53 OFFCURVE",
"207 35 OFFCURVE",
"256 27 OFFCURVE",
"277 27 QCURVE",
"310 27 OFFCURVE",
"365 38 OFFCURVE",
"406 60 OFFCURVE",
"429 96 OFFCURVE",
"429 122 QCURVE",
"429 146 OFFCURVE",
"413 178 OFFCURVE",
"386 200 OFFCURVE",
"352 212 OFFCURVE",
"333 216 QCURVE",
"300 222 OFFCURVE",
"226 236 OFFCURVE",
"196 242 QCURVE",
"142 253 OFFCURVE",
"71 311 OFFCURVE",
"71 363 QCURVE",
"71 400 OFFCURVE",
"110 464 OFFCURVE",
"144 485 QCURVE",
"112 501 OFFCURVE",
"81 554 OFFCURVE",
"81 581 QCURVE",
"81 620 OFFCURVE",
"114 672 OFFCURVE",
"168 703 OFFCURVE",
"236 715 OFFCURVE",
"270 715 QCURVE",
"298 715 OFFCURVE",
"355 704 OFFCURVE",
"403 679 OFFCURVE",
"439 639 OFFCURVE",
"447 611 QCURVE",
"410 611 LINE",
"402 631 OFFCURVE",
"370 659 OFFCURVE",
"331 676 OFFCURVE",
"287 684 OFFCURVE",
"267 684 QCURVE"
);
},
{
closed = 1;
nodes = (
"146 451 OFFCURVE",
"109 398 OFFCURVE",
"109 371 QCURVE",
"109 341 OFFCURVE",
"134 305 OFFCURVE",
"173 284 OFFCURVE",
"218 273 OFFCURVE",
"239 269 QCURVE",
"270 262 OFFCURVE",
"326 253 OFFCURVE",
"358 246 QCURVE",
"370 250 OFFCURVE",
"395 267 OFFCURVE",
"417 291 OFFCURVE",
"431 320 OFFCURVE",
"431 337 QCURVE",
"431 379 OFFCURVE",
"391 417 OFFCURVE",
"360 427 QCURVE",
"337 434 OFFCURVE",
"292 443 OFFCURVE",
"247 452 OFFCURVE",
"200 462 OFFCURVE",
"175 470 QCURVE"
);
}
);
width = 535;
}
);
unicode = 00A7;
},
{
color = (166, 255, 153, 255);
glyphname = uni04C1;
layers = (
{
layerId = "0CBE557D-C54C-47B4-BFAF-0B1C1BA95C16";
paths = (
{
closed = 1;
nodes = (
"403 0 LINE",
"403 328 LINE",
"246 328 LINE",
"70 0 LINE",
"20 0 LINE",
"213 357 LINE",
"21 707 LINE",
"68 707 LINE",
"255 365 LINE",
"403 365 LINE",
"403 707 LINE",
"445 707 LINE",
"445 365 LINE",
"597 365 LINE",
"782 707 LINE",
"827 707 LINE",
"636 357 LINE",
"829 0 LINE",
"780 0 LINE",
"604 328 LINE",
"445 328 LINE",
"445 0 LINE"
);
},
{
closed = 1;
nodes = (
"447 848 OFFCURVE",
"489 856 OFFCURVE",
"524 875 OFFCURVE",
"549 906 OFFCURVE",
"555 929 QCURVE",
"593 929 LINE",
"588 899 OFFCURVE",
"557 856 OFFCURVE",
"510 829 OFFCURVE",
"453 816 OFFCURVE",
"423 816 QCURVE",
"393 816 OFFCURVE",
"335 828 OFFCURVE",
"289 855 OFFCURVE",
"257 898 OFFCURVE",
"253 929 QCURVE",
"291 929 LINE",
"297 906 OFFCURVE",
"322 875 OFFCURVE",
"358 856 OFFCURVE",
"401 848 OFFCURVE",
"424 848 QCURVE"
);
}
);
width = 849;
}
);
unicode = 04C1;
},
{
color = (166, 255, 153, 255);
glyphname = uni04C2;
layers = (
{
layerId = "0CBE557D-C54C-47B4-BFAF-0B1C1BA95C16";
paths = (
{
closed = 1;
nodes = (
"349 0 LINE",
"349 247 LINE",
"220 247 LINE",
"68 0 LINE",
"20 0 LINE",
"189 277 LINE",
"36 527 LINE",
"84 527 LINE",
"232 282 LINE",
"349 282 LINE",
"349 527 LINE",
"391 527 LINE",
"391 282 LINE",
"508 282 LINE",
"657 527 LINE",
"705 527 LINE",
"551 277 LINE",
"721 0 LINE",
"673 0 LINE",
"521 247 LINE",
"391 247 LINE",
"391 0 LINE"
);
},
{
closed = 1;
nodes = (
"387 663 OFFCURVE",
"426 669 OFFCURVE",
"460 685 OFFCURVE",
"486 715 OFFCURVE",
"492 738 QCURVE",
"531 738 LINE",
"525 709 OFFCURVE",
"494 668 OFFCURVE",
"450 643 OFFCURVE",
"396 632 OFFCURVE",
"368 632 QCURVE",
"340 632 OFFCURVE",
"287 643 OFFCURVE",
"244 668 OFFCURVE",
"214 709 OFFCURVE",
"209 738 QCURVE",
"247 738 LINE",
"253 715 OFFCURVE",
"278 685 OFFCURVE",
"312 669 OFFCURVE",
"351 663 OFFCURVE",
"369 663 QCURVE"
);
}
);
width = 741;
}
);
unicode = 04C2;
},
{
color = (166, 255, 153, 255);
glyphname = w_alt;
layers = (
{
layerId = "0CBE557D-C54C-47B4-BFAF-0B1C1BA95C16";
paths = (
{
closed = 1;
nodes = (
"523 36 LINE",
"669 527 LINE",
"715 527 LINE",
"554 0 LINE",
"495 0 LINE",
"368 361 LINE",
"240 0 LINE",
"178 0 LINE",
"19 527 LINE",
"64 527 LINE",
"212 36 LINE",
"337 396 LINE",
"398 396 LINE"
);
}
);
width = 734;
}
);
leftKerningGroup = _kern20;
rightKerningGroup = _kern20;
},
{
color = (166, 255, 153, 255);
glyphname = W_alt;
layers = (
{
layerId = "0CBE557D-C54C-47B4-BFAF-0B1C1BA95C16";
paths = (
{
closed = 1;
nodes = (
"221 0 LINE",
"20 707 LINE",
"69 707 LINE",
"257 44 LINE",
"425 530 LINE",
"463 530 LINE",
"634 44 LINE",
"821 707 LINE",
"868 707 LINE",
"667 0 LINE",
"603 0 LINE",
"444 454 LINE",
"290 0 LINE"
);
}
);
width = 888;
}
);
leftKerningGroup = _kern19;
rightKerningGroup = _kern19;
},
{
color = (166, 255, 153, 255);
glyphname = zero;
layers = (
{
layerId = "0CBE557D-C54C-47B4-BFAF-0B1C1BA95C16";
paths = (
{
closed = 1;
nodes = (
"601 285 OFFCURVE",
"575 156 OFFCURVE",
"513 54 OFFCURVE",
"409 -8 OFFCURVE",
"331 -8 QCURVE",
"253 -8 OFFCURVE",
"150 54 OFFCURVE",
"88 155 OFFCURVE",
"63 285 OFFCURVE",
"63 353 QCURVE",
"63 420 OFFCURVE",
"89 550 OFFCURVE",
"150 652 OFFCURVE",
"253 715 OFFCURVE",
"331 715 QCURVE",
"409 715 OFFCURVE",
"513 652 OFFCURVE",
"575 550 OFFCURVE",
"601 420 OFFCURVE",
"601 353 QCURVE"
);
},
{
closed = 1;
nodes = (
"107 296 OFFCURVE",
"125 181 OFFCURVE",
"174 87 OFFCURVE",
"261 28 OFFCURVE",
"331 28 QCURVE",
"401 28 OFFCURVE",
"489 87 OFFCURVE",
"538 181 OFFCURVE",
"556 296 OFFCURVE",
"556 353 QCURVE",
"556 408 OFFCURVE",
"538 524 OFFCURVE",
"489 619 OFFCURVE",
"401 679 OFFCURVE",
"331 679 QCURVE",
"261 679 OFFCURVE",
"174 619 OFFCURVE",
"125 524 OFFCURVE",
"107 408 OFFCURVE",
"107 353 QCURVE"
);
}
);
width = 663;
}
);
unicode = 0030;
},
{
color = (166, 255, 153, 255);
glyphname = one;
layers = (
{
layerId = "0CBE557D-C54C-47B4-BFAF-0B1C1BA95C16";
paths = (
{
closed = 1;
nodes = (
"215 0 LINE",
"172 0 LINE",
"172 602 LINE",
"29 602 LINE",
"29 631 LINE",
"65 631 OFFCURVE",
"118 635 OFFCURVE",
"158 649 OFFCURVE",
"179 679 OFFCURVE",
"183 707 QCURVE",
"215 707 LINE"
);
}
);
width = 328;
}
);
unicode = 0031;
},
{
color = (166, 255, 153, 255);
glyphname = two;
layers = (
{
layerId = "0CBE557D-C54C-47B4-BFAF-0B1C1BA95C16";
paths = (
{
closed = 1;
nodes = (
"452 558 OFFCURVE",
"425 618 OFFCURVE",
"379 658 OFFCURVE",
"315 679 OFFCURVE",
"278 679 QCURVE",
"252 679 OFFCURVE",
"202 670 OFFCURVE",
"157 649 OFFCURVE",
"121 615 OFFCURVE",
"111 591 QCURVE",
"62 591 LINE",
"87 655 OFFCURVE",
"201 715 OFFCURVE",
"282 715 QCURVE",
"328 715 OFFCURVE",
"407 690 OFFCURVE",
"464 641 OFFCURVE",
"496 568 OFFCURVE",
"496 520 QCURVE",
"496 473 OFFCURVE",
"466 395 OFFCURVE",
"416 327 OFFCURVE",
"351 265 OFFCURVE",
"317 234 QCURVE",
"100 38 LINE",
"504 38 LINE",
"504 0 LINE",
"36 0 LINE",
"36 35 LINE",
"267 243 LINE",
"297 270 OFFCURVE",
"363 331 OFFCURVE",
"417 399 OFFCURVE",
"452 475 OFFCURVE",
"452 518 QCURVE"
);
}
);
width = 560;
}
);
unicode = 0032;
},
{
color = (166, 255, 153, 255);
glyphname = three;
layers = (
{
layerId = "0CBE557D-C54C-47B4-BFAF-0B1C1BA95C16";
paths = (
{
closed = 1;
nodes = (
"85 121 LINE",
"96 93 OFFCURVE",
"139 57 OFFCURVE",
"193 36 OFFCURVE",
"252 28 OFFCURVE",
"279 28 QCURVE",
"316 28 OFFCURVE",
"388 45 OFFCURVE",
"445 82 OFFCURVE",
"481 143 OFFCURVE",
"481 188 QCURVE",
"481 237 OFFCURVE",
"442 298 OFFCURVE",
"380 331 OFFCURVE",
"302 342 OFFCURVE",
"262 342 QCURVE",
"191 342 LINE",
"191 379 LINE",
"242 379 LINE",
"276 379 OFFCURVE",
"350 396 OFFCURVE",
"412 434 OFFCURVE",
"452 494 OFFCURVE",
"452 537 QCURVE",
"452 576 OFFCURVE",
"423 630 OFFCURVE",
"375 664 OFFCURVE",
"312 679 OFFCURVE",
"278 679 QCURVE",
"251 679 OFFCURVE",
"197 671 OFFCURVE",
"150 650 OFFCURVE",
"114 615 OFFCURVE",
"105 588 QCURVE",
"59 588 LINE",
"68 629 OFFCURVE",
"116 679 OFFCURVE",
"178 706 OFFCURVE",
"248 715 OFFCURVE",
"279 715 QCURVE",
"320 715 OFFCURVE",
"397 697 OFFCURVE",
"456 657 OFFCURVE",
"493 592 OFFCURVE",
"493 545 QCURVE",
"493 518 OFFCURVE",
"478 462 OFFCURVE",
"445 414 OFFCURVE",
"391 377 OFFCURVE",
"354 368 QCURVE",
"397 365 OFFCURVE",
"461 334 OFFCURVE",
"504 285 OFFCURVE",
"526 223 OFFCURVE",
"526 188 QCURVE",
"526 134 OFFCURVE",
"484 59 OFFCURVE",
"415 13 OFFCURVE",
"326 -8 OFFCURVE",
"278 -8 QCURVE",
"240 -8 OFFCURVE",
"164 4 OFFCURVE",
"98 34 OFFCURVE",
"49 84 OFFCURVE",
"39 121 QCURVE"
);
}
);
width = 589;
}
);
unicode = 0033;
},
{
color = (166, 255, 153, 255);
glyphname = four;
layers = (
{
layerId = "0CBE557D-C54C-47B4-BFAF-0B1C1BA95C16";
paths = (
{
closed = 1;
nodes = (
"415 707 LINE",
"479 707 LINE",
"479 189 LINE",
"570 189 LINE",
"570 151 LINE",
"479 151 LINE",
"479 0 LINE",
"437 0 LINE",
"437 151 LINE",
"43 151 LINE",
"43 190 LINE"
);
},
{
closed = 1;
nodes = (
"437 189 LINE",
"437 671 LINE",
"90 189 LINE"
);
}
);
width = 613;
}
);
unicode = 0034;
},
{
color = (166, 255, 153, 255);
glyphname = seven;
layers = (
{
layerId = "0CBE557D-C54C-47B4-BFAF-0B1C1BA95C16";
paths = (
{
closed = 1;
nodes = (
"121 0 LINE",
"424 669 LINE",
"18 669 LINE",
"18 707 LINE",
"470 707 LINE",
"470 665 LINE",
"169 0 LINE"
);
}
);
width = 498;
}
);
unicode = 0037;
},
{
color = (166, 255, 153, 255);
glyphname = eight;
layers = (
{
layerId = "0CBE557D-C54C-47B4-BFAF-0B1C1BA95C16";
paths = (
{
closed = 1;
nodes = (
"547 134 OFFCURVE",
"506 60 OFFCURVE",
"439 13 OFFCURVE",
"351 -8 OFFCURVE",
"303 -8 QCURVE",
"255 -8 OFFCURVE",
"168 13 OFFCURVE",
"101 59 OFFCURVE",
"61 133 OFFCURVE",
"61 187 QCURVE",
"61 218 OFFCURVE",
"82 278 OFFCURVE",
"122 327 OFFCURVE",
"179 360 OFFCURVE",
"216 364 QCURVE",
"153 380 OFFCURVE",
"88 473 OFFCURVE",
"89 535 QCURVE",
"89 582 OFFCURVE",
"125 650 OFFCURVE",
"185 694 OFFCURVE",
"263 715 OFFCURVE",
"305 715 QCURVE",
"346 715 OFFCURVE",
"423 693 OFFCURVE",
"483 648 OFFCURVE",
"519 581 OFFCURVE",
"520 535 QCURVE",
"521 473 OFFCURVE",
"455 384 OFFCURVE",
"387 366 QCURVE",
"427 361 OFFCURVE",
"487 327 OFFCURVE",
"527 278 OFFCURVE",
"547 218 OFFCURVE",
"547 187 QCURVE"
);
},
{
closed = 1;
nodes = (
"272 679 OFFCURVE",
"208 663 OFFCURVE",
"159 627 OFFCURVE",
"128 571 OFFCURVE",
"128 531 QCURVE",
"128 492 OFFCURVE",
"159 435 OFFCURVE",
"209 398 OFFCURVE",
"273 381 OFFCURVE",
"306 381 QCURVE",
"335 381 OFFCURVE",
"397 399 OFFCURVE",
"448 435 OFFCURVE",
"481 490 OFFCURVE",
"481 527 QCURVE",
"481 568 OFFCURVE",
"451 626 OFFCURVE",
"402 662 OFFCURVE",
"338 679 OFFCURVE",
"305 679 QCURVE"
);
},
{
closed = 1;
nodes = (
"269 346 OFFCURVE",
"196 328 OFFCURVE",
"138 290 OFFCURVE",
"102 228 OFFCURVE",
"102 185 QCURVE",
"102 141 OFFCURVE",
"137 81 OFFCURVE",
"195 44 OFFCURVE",
"267 28 OFFCURVE",
"305 28 QCURVE",
"342 28 OFFCURVE",
"413 44 OFFCURVE",
"470 81 OFFCURVE",
"505 141 OFFCURVE",
"505 185 QCURVE",
"505 228 OFFCURVE",
"469 290 OFFCURVE",
"412 328 OFFCURVE",
"341 346 OFFCURVE",
"305 346 QCURVE"
);
}
);
width = 608;
}
);
unicode = 0038;
},
{
color = (166, 255, 153, 255);
glyphname = nine;
layers = (
{
layerId = "0CBE557D-C54C-47B4-BFAF-0B1C1BA95C16";
paths = (
{
closed = 1;
nodes = (
"237 273 OFFCURVE",
"156 302 OFFCURVE",
"95 357 OFFCURVE",
"60 437 OFFCURVE",
"60 489 QCURVE",
"60 541 OFFCURVE",
"95 625 OFFCURVE",
"158 683 OFFCURVE",
"244 715 OFFCURVE",
"295 715 QCURVE",
"374 715 OFFCURVE",
"474 645 OFFCURVE",
"532 535 OFFCURVE",
"555 402 OFFCURVE",
"555 339 QCURVE",
"555 271 OFFCURVE",
"531 146 OFFCURVE",
"471 50 OFFCURVE",
"368 -8 OFFCURVE",
"290 -8 QCURVE",
"258 -8 OFFCURVE",
"193 5 OFFCURVE",
"135 33 OFFCURVE",
"89 77 OFFCURVE",
"76 108 QCURVE",
"128 108 LINE",
"140 87 OFFCURVE",
"176 57 OFFCURVE",
"220 37 OFFCURVE",
"267 28 OFFCURVE",
"291 28 QCURVE",
"362 28 OFFCURVE",
"449 90 OFFCURVE",
"496 185 OFFCURVE",
"512 300 OFFCURVE",
"512 354 QCURVE",
"512 367 OFFCURVE",
"510 400 OFFCURVE",
"507 426 QCURVE",
"496 386 OFFCURVE",
"453 328 OFFCURVE",
"394 291 OFFCURVE",
"322 273 OFFCURVE",
"282 273 QCURVE"
);
},
{
closed = 1;
nodes = (
"105 411 OFFCURVE",
"205 312 OFFCURVE",
"292 312 QCURVE",
"329 312 OFFCURVE",
"398 337 OFFCURVE",
"450 383 OFFCURVE",
"481 448 OFFCURVE",
"481 487 QCURVE",
"481 528 OFFCURVE",
"453 598 OFFCURVE",
"404 650 OFFCURVE",
"335 679 OFFCURVE",
"293 679 QCURVE",
"254 679 OFFCURVE",
"186 652 OFFCURVE",
"135 604 OFFCURVE",
"105 537 OFFCURVE",
"105 498 QCURVE"
);
}
);
width = 617;
}
);
unicode = 0039;
},
{
color = (166, 255, 153, 255);
glyphname = uni0430;
layers = (
{
layerId = "0CBE557D-C54C-47B4-BFAF-0B1C1BA95C16";
paths = (
{
closed = 1;
nodes = (
"440 81 LINE",
"376 -5 OFFCURVE",
"234 -7 QCURVE",
"208 -7 OFFCURVE",
"145 6 OFFCURVE",
"90 41 OFFCURVE",
"53 98 OFFCURVE",
"53 142 QCURVE",
"53 185 OFFCURVE",
"85 243 OFFCURVE",
"139 277 OFFCURVE",
"210 291 OFFCURVE",
"248 291 QCURVE",
"440 291 LINE",
"440 333 OFFCURVE",
"423 408 OFFCURVE",
"385 464 OFFCURVE",
"323 497 OFFCURVE",
"278 498 QCURVE",
"259 498 OFFCURVE",
"217 493 OFFCURVE",
"178 478 OFFCURVE",
"144 452 OFFCURVE",
"133 432 QCURVE",
"86 432 LINE",
"99 467 OFFCURVE",
"148 507 OFFCURVE",
"203 528 OFFCURVE",
"257 534 OFFCURVE",
"276 534 QCURVE",
"324 534 OFFCURVE",
"398 506 OFFCURVE",
"422 482 QCURVE",
"456 448 OFFCURVE",
"482 347 OFFCURVE",
"482 287 QCURVE",
"482 0 LINE",
"440 0 LINE"
);
},
{
closed = 1;
nodes = (
"273 256 LINE",
"244 256 OFFCURVE",
"181 251 OFFCURVE",
"129 229 OFFCURVE",
"95 185 OFFCURVE",
"95 147 QCURVE",
"95 116 OFFCURVE",
"119 71 OFFCURVE",
"158 43 OFFCURVE",
"210 29 OFFCURVE",
"237 29 QCURVE",
"274 29 OFFCURVE",
"346 48 OFFCURVE",
"404 87 OFFCURVE",
"440 146 OFFCURVE",
"440 187 QCURVE",
"440 256 LINE"
);
}
);
width = 552;
}
);
leftKerningGroup = _kern27;
rightKerningGroup = _kern27;
unicode = 0430;
},
{
color = (166, 255, 153, 255);
glyphname = uni0435;
layers = (
{
layerId = "0CBE557D-C54C-47B4-BFAF-0B1C1BA95C16";
paths = (
{
closed = 1;
nodes = (
"95 252 LINE",
"97 203 OFFCURVE",
"123 121 OFFCURVE",
"173 62 OFFCURVE",
"250 29 OFFCURVE",
"304 29 QCURVE",
"326 29 OFFCURVE",
"372 37 OFFCURVE",
"415 55 OFFCURVE",
"451 85 OFFCURVE",
"462 106 QCURVE",
"509 106 LINE",
"496 76 OFFCURVE",
"450 33 OFFCURVE",
"393 6 OFFCURVE",
"330 -7 OFFCURVE",
"299 -7 QCURVE",
"236 -7 OFFCURVE",
"144 33 OFFCURVE",
"83 105 OFFCURVE",
"53 204 OFFCURVE",
"53 263 QCURVE",
"53 319 OFFCURVE",
"84 418 OFFCURVE",
"146 491 OFFCURVE",
"238 534 OFFCURVE",
"298 534 QCURVE",
"358 534 OFFCURVE",
"443 488 OFFCURVE",
"499 410 OFFCURVE",
"524 308 OFFCURVE",
"524 252 QCURVE"
);
},
{
closed = 1;
nodes = (
"482 287 LINE",
"480 329 OFFCURVE",
"456 406 OFFCURVE",
"409 464 OFFCURVE",
"340 498 OFFCURVE",
"294 498 QCURVE",
"248 498 OFFCURVE",
"177 463 OFFCURVE",
"126 404 OFFCURVE",
"98 328 OFFCURVE",
"96 287 QCURVE"
);
}
);
width = 578;
}
);
leftKerningGroup = _kern9;
rightKerningGroup = _kern10;
unicode = 0435;
},
{
color = (166, 255, 153, 255);
glyphname = uni043E;
layers = (
{
layerId = "0CBE557D-C54C-47B4-BFAF-0B1C1BA95C16";
paths = (
{
closed = 1;
nodes = (
"356 29 OFFCURVE",
"434 65 OFFCURVE",
"485 128 OFFCURVE",
"510 214 OFFCURVE",
"510 263 QCURVE",
"510 312 OFFCURVE",
"485 397 OFFCURVE",
"434 461 OFFCURVE",
"356 498 OFFCURVE",
"302 498 QCURVE",
"248 498 OFFCURVE",
"170 461 OFFCURVE",
"119 397 OFFCURVE",
"95 312 OFFCURVE",
"95 263 QCURVE",
"95 214 OFFCURVE",
"119 128 OFFCURVE",
"170 65 OFFCURVE",
"248 29 OFFCURVE",
"302 29 QCURVE"
);
},
{
closed = 1;
nodes = (
"363 534 OFFCURVE",
"457 494 OFFCURVE",
"520 422 OFFCURVE",
"552 322 OFFCURVE",
"552 263 QCURVE",
"552 204 OFFCURVE",
"520 105 OFFCURVE",
"457 33 OFFCURVE",
"363 -7 OFFCURVE",
"302 -7 QCURVE",
"240 -7 OFFCURVE",
"147 33 OFFCURVE",
"84 105 OFFCURVE",
"53 204 OFFCURVE",
"53 263 QCURVE",
"53 322 OFFCURVE",
"84 422 OFFCURVE",
"147 494 OFFCURVE",
"240 534 OFFCURVE",
"302 534 QCURVE"
);
}
);
width = 605;
}
);
leftKerningGroup = _kern9;
rightKerningGroup = _kern10;
unicode = 043E;
},
{
color = (166, 255, 153, 255);
glyphname = uni0441;
layers = (
{
layerId = "0CBE557D-C54C-47B4-BFAF-0B1C1BA95C16";
paths = (
{
closed = 1;
nodes = (
"238 -7 OFFCURVE",
"146 33 OFFCURVE",
"84 105 OFFCURVE",
"53 204 OFFCURVE",
"53 262 QCURVE",
"53 320 OFFCURVE",
"85 420 OFFCURVE",
"148 493 OFFCURVE",
"242 534 OFFCURVE",
"304 534 QCURVE",
"371 534 OFFCURVE",
"474 471 OFFCURVE",
"497 408 QCURVE",
"451 408 LINE",
"434 455 OFFCURVE",
"350 498 OFFCURVE",
"300 498 QCURVE",
"248 498 OFFCURVE",
"171 461 OFFCURVE",
"120 397 OFFCURVE",
"95 311 OFFCURVE",
"95 262 QCURVE",
"95 214 OFFCURVE",
"120 130 OFFCURVE",
"171 66 OFFCURVE",
"249 29 OFFCURVE",
"303 29 QCURVE",
"356 29 OFFCURVE",
"440 71 OFFCURVE",
"460 118 QCURVE",
"506 118 LINE",
"480 54 OFFCURVE",
"367 -7 OFFCURVE",
"300 -7 QCURVE"
);
}
);
width = 551;
}
);
leftKerningGroup = _kern9;
rightKerningGroup = _kern10;
unicode = 0441;
},
{
color = (166, 255, 153, 255);
glyphname = uni0218;
layers = (
{
layerId = "0CBE557D-C54C-47B4-BFAF-0B1C1BA95C16";
paths = (
{
closed = 1;
nodes = (
"290 679 OFFCURVE",
"222 665 OFFCURVE",
"166 632 OFFCURVE",
"129 577 OFFCURVE",
"129 535 QCURVE",
"129 501 OFFCURVE",
"151 454 OFFCURVE",
"190 421 OFFCURVE",
"242 400 OFFCURVE",
"271 392 QCURVE",
"313 381 OFFCURVE",
"395 359 OFFCURVE",
"433 347 QCURVE",
"463 338 OFFCURVE",
"517 309 OFFCURVE",
"556 270 OFFCURVE",
"579 219 OFFCURVE",
"579 187 QCURVE",
"579 133 OFFCURVE",
"537 59 OFFCURVE",
"468 13 OFFCURVE",
"381 -8 OFFCURVE",
"335 -8 QCURVE",
"291 -8 OFFCURVE",
"206 8 OFFCURVE",
"133 46 OFFCURVE",
"78 105 OFFCURVE",
"63 149 QCURVE",
"110 149 LINE",
"142 83 OFFCURVE",
"260 28 OFFCURVE",
"333 28 QCURVE",
"370 28 OFFCURVE",
"442 45 OFFCURVE",
"499 81 OFFCURVE",
"534 137 OFFCURVE",
"534 176 QCURVE",
"534 208 OFFCURVE",
"514 253 OFFCURVE",
"478 284 OFFCURVE",
"429 305 OFFCURVE",
"401 313 QCURVE",
"371 322 OFFCURVE",
"314 338 OFFCURVE",
"288 344 QCURVE",
"251 353 OFFCURVE",
"178 377 OFFCURVE",
"119 418 OFFCURVE",
"83 480 OFFCURVE",
"83 528 QCURVE",
"83 580 OFFCURVE",
"124 651 OFFCURVE",
"191 695 OFFCURVE",
"278 715 OFFCURVE",
"324 715 QCURVE",
"364 715 OFFCURVE",
"441 699 OFFCURVE",
"503 662 OFFCURVE",
"547 604 OFFCURVE",
"556 562 QCURVE",
"511 562 LINE",
"502 594 OFFCURVE",
"463 639 OFFCURVE",
"412 667 OFFCURVE",
"352 679 OFFCURVE",
"323 679 QCURVE"
);
},
{
closed = 1;
nodes = (
"355 -119 OFFCURVE",
"374 -154 OFFCURVE",
"374 -174 QCURVE",
"374 -215 OFFCURVE",
"333 -281 OFFCURVE",
"299 -300 QCURVE",
"284 -280 LINE",
"301 -270 OFFCURVE",
"335 -228 OFFCURVE",
"339 -198 QCURVE",
"333 -200 OFFCURVE",
"315 -198 OFFCURVE",
"299 -190 OFFCURVE",
"288 -173 OFFCURVE",
"288 -159 QCURVE",
"288 -142 OFFCURVE",
"311 -119 OFFCURVE",
"330 -119 QCURVE"
);
}
);
width = 643;
}
);
unicode = 0218;
},
{
color = (166, 255, 153, 255);
glyphname = uni0219;
layers = (
{
layerId = "0CBE557D-C54C-47B4-BFAF-0B1C1BA95C16";
paths = (
{
closed = 1;
nodes = (
"229 498 OFFCURVE",
"177 492 OFFCURVE",
"130 471 OFFCURVE",
"99 429 OFFCURVE",
"99 394 QCURVE",
"99 368 OFFCURVE",
"119 333 OFFCURVE",
"151 308 OFFCURVE",
"191 293 OFFCURVE",
"211 289 QCURVE",
"243 281 OFFCURVE",
"310 270 OFFCURVE",
"342 262 QCURVE",
"394 249 OFFCURVE",
"459 193 OFFCURVE",
"459 139 QCURVE",
"459 96 OFFCURVE",
"423 40 OFFCURVE",
"365 7 OFFCURVE",
"292 -7 OFFCURVE",
"256 -7 QCURVE",
"224 -7 OFFCURVE",
"157 6 OFFCURVE",
"99 34 OFFCURVE",
"53 78 OFFCURVE",
"43 109 QCURVE",
"90 109 LINE",
"102 86 OFFCURVE",
"141 55 OFFCURVE",
"187 37 OFFCURVE",
"236 29 OFFCURVE",
"258 29 QCURVE",
"284 29 OFFCURVE",
"340 38 OFFCURVE",
"387 61 OFFCURVE",
"418 102 OFFCURVE",
"418 134 QCURVE",
"418 159 OFFCURVE",
"399 192 OFFCURVE",
"367 214 OFFCURVE",
"328 226 OFFCURVE",
"309 231 QCURVE",
"295 234 OFFCURVE",
"266 240 OFFCURVE",
"252 242 QCURVE",
"219 248 OFFCURVE",
"150 264 OFFCURVE",
"94 297 OFFCURVE",
"58 350 OFFCURVE",
"58 393 QCURVE",
"58 434 OFFCURVE",
"91 488 OFFCURVE",
"145 521 OFFCURVE",
"215 534 OFFCURVE",
"251 534 QCURVE",
"280 534 OFFCURVE",
"339 522 OFFCURVE",
"390 495 OFFCURVE",
"428 454 OFFCURVE",
"437 425 QCURVE",
"395 425 LINE",
"386 444 OFFCURVE",
"354 472 OFFCURVE",
"314 490 OFFCURVE",
"271 498 OFFCURVE",
"250 498 QCURVE"
);
},
{
closed = 1;
nodes = (
"280 -119 OFFCURVE",
"299 -154 OFFCURVE",
"299 -174 QCURVE",
"299 -215 OFFCURVE",
"258 -281 OFFCURVE",
"224 -300 QCURVE",
"209 -280 LINE",
"226 -270 OFFCURVE",
"260 -228 OFFCURVE",
"264 -198 QCURVE",
"258 -200 OFFCURVE",
"240 -198 OFFCURVE",
"224 -190 OFFCURVE",
"213 -173 OFFCURVE",
"213 -159 QCURVE",
"213 -142 OFFCURVE",
"236 -119 OFFCURVE",
"255 -119 QCURVE"
);
}
);
width = 513;
}
);
leftKerningGroup = _kern5;
rightKerningGroup = _kern6;
unicode = 0219;
},
{
color = (166, 255, 153, 255);
glyphname = uni021A;
layers = (
{
layerId = "0CBE557D-C54C-47B4-BFAF-0B1C1BA95C16";
paths = (
{
closed = 1;
nodes = (
"546 669 LINE",
"304 669 LINE",
"304 0 LINE",
"262 0 LINE",
"262 669 LINE",
"20 669 LINE",
"20 707 LINE",
"546 707 LINE"
);
},
{
closed = 1;
nodes = (
"310 -119 OFFCURVE",
"329 -154 OFFCURVE",
"329 -174 QCURVE",
"329 -215 OFFCURVE",
"288 -281 OFFCURVE",
"254 -300 QCURVE",
"239 -280 LINE",
"256 -270 OFFCURVE",
"290 -228 OFFCURVE",
"294 -198 QCURVE",
"288 -200 OFFCURVE",
"270 -198 OFFCURVE",
"254 -190 OFFCURVE",
"243 -173 OFFCURVE",
"243 -159 QCURVE",
"243 -142 OFFCURVE",
"266 -119 OFFCURVE",
"285 -119 QCURVE"
);
}
);
width = 566;
}
);
leftKerningGroup = _kern28;
rightKerningGroup = _kern28;
unicode = 021A;
},
{
color = (166, 255, 153, 255);
glyphname = uni021B;
layers = (
{
layerId = "0CBE557D-C54C-47B4-BFAF-0B1C1BA95C16";
paths = (
{
closed = 1;
nodes = (
"166 527 LINE",
"322 527 LINE",
"322 492 LINE",
"166 492 LINE",
"166 171 LINE",
"166 103 OFFCURVE",
"222 36 OFFCURVE",
"292 36 QCURVE",
"319 36 LINE",
"319 0 LINE",
"284 0 LINE",
"202 0 OFFCURVE",
"124 79 OFFCURVE",
"124 167 QCURVE",
"124 492 LINE",
"31 492 LINE",
"31 527 LINE",
"124 527 LINE",
"124 685 LINE",
"166 685 LINE"
);
},
{
closed = 1;
nodes = (
"239 -119 OFFCURVE",
"258 -154 OFFCURVE",
"258 -174 QCURVE",
"258 -215 OFFCURVE",
"217 -281 OFFCURVE",
"183 -300 QCURVE",
"168 -280 LINE",
"185 -270 OFFCURVE",
"219 -228 OFFCURVE",
"223 -198 QCURVE",
"217 -200 OFFCURVE",
"199 -198 OFFCURVE",
"183 -190 OFFCURVE",
"172 -173 OFFCURVE",
"172 -159 QCURVE",
"172 -142 OFFCURVE",
"195 -119 OFFCURVE",
"214 -119 QCURVE"
);
}
);
width = 359;
}
);
leftKerningGroup = _kern21;
rightKerningGroup = _kern21;
unicode = 021B;
},
{
color = (166, 255, 153, 255);
glyphname = question;
layers = (
{
layerId = "0CBE557D-C54C-47B4-BFAF-0B1C1BA95C16";
paths = (
{
closed = 1;
nodes = (
"247 204 LINE",
"199 204 LINE",
"199 219 LINE",
"199 244 OFFCURVE",
"216 289 OFFCURVE",
"243 329 OFFCURVE",
"277 364 OFFCURVE",
"295 381 QCURVE",
"312 397 OFFCURVE",
"347 434 OFFCURVE",
"376 476 OFFCURVE",
"395 521 OFFCURVE",
"395 546 QCURVE",
"395 579 OFFCURVE",
"370 629 OFFCURVE",
"329 662 OFFCURVE",
"274 679 OFFCURVE",
"244 679 QCURVE",
"221 679 OFFCURVE",
"173 670 OFFCURVE",
"132 649 OFFCURVE",
"99 617 OFFCURVE",
"91 594 QCURVE",
"43 594 LINE",
"55 630 OFFCURVE",
"100 676 OFFCURVE",
"156 704 OFFCURVE",
"218 715 OFFCURVE",
"246 715 QCURVE",
"285 715 OFFCURVE",
"354 694 OFFCURVE",
"407 653 OFFCURVE",
"437 591 OFFCURVE",
"437 549 QCURVE",
"437 492 OFFCURVE",
"379 406 OFFCURVE",
"330 360 QCURVE",
"313 344 OFFCURVE",
"283 314 OFFCURVE",
"261 281 OFFCURVE",
"247 243 OFFCURVE",
"247 219 QCURVE"
);
},
{
closed = 1;
nodes = (
"241 73 OFFCURVE",
"264 52 OFFCURVE",
"264 32 QCURVE",
"264 14 OFFCURVE",
"242 -7 OFFCURVE",
"225 -7 QCURVE",
"206 -7 OFFCURVE",
"184 15 OFFCURVE",
"184 33 QCURVE",
"184 52 OFFCURVE",
"206 73 OFFCURVE",
"225 73 QCURVE"
);
}
);
width = 498;
}
);
unicode = 003F;
},
{
color = (166, 255, 153, 255);
glyphname = uni2116;
layers = (
{
layerId = "0CBE557D-C54C-47B4-BFAF-0B1C1BA95C16";
paths = (
{
closed = 1;
nodes = (
"1001 292 LINE",
"752 292 LINE",
"752 329 LINE",
"1001 329 LINE"
);
},
{
closed = 1;
nodes = (
"810 429 OFFCURVE",
"744 510 OFFCURVE",
"744 572 QCURVE",
"744 634 OFFCURVE",
"810 715 OFFCURVE",
"875 715 QCURVE",
"907 715 OFFCURVE",
"955 691 OFFCURVE",
"987 650 OFFCURVE",
"1003 599 OFFCURVE",
"1003 572 QCURVE",
"1003 542 OFFCURVE",
"986 489 OFFCURVE",
"953 451 OFFCURVE",
"904 429 OFFCURVE",
"873 429 QCURVE"
);
},
{
closed = 1;
nodes = (
"849 680 OFFCURVE",
"814 662 OFFCURVE",
"792 632 OFFCURVE",
"782 593 OFFCURVE",
"782 572 QCURVE",
"782 551 OFFCURVE",
"792 512 OFFCURVE",
"814 482 OFFCURVE",
"849 464 OFFCURVE",
"875 464 QCURVE",
"901 464 OFFCURVE",
"936 483 OFFCURVE",
"957 515 OFFCURVE",
"966 553 OFFCURVE",
"966 573 QCURVE",
"966 589 OFFCURVE",
"957 627 OFFCURVE",
"936 659 OFFCURVE",
"901 680 OFFCURVE",
"875 680 QCURVE"
);
},
{
closed = 1;
nodes = (
"93 707 LINE",
"154 707 LINE",
"609 49 LINE",
"609 707 LINE",
"651 707 LINE",
"651 0 LINE",
"593 0 LINE",
"135 659 LINE",
"135 0 LINE",
"93 0 LINE"
);
}
);
width = 1073;
}
);
unicode = 2116;
},
{
color = (166, 255, 153, 255);
glyphname = uni0401;
layers = (
{
layerId = "0CBE557D-C54C-47B4-BFAF-0B1C1BA95C16";
paths = (
{
closed = 1;
nodes = (
"218 924 OFFCURVE",
"239 906 OFFCURVE",
"239 889 QCURVE",
"239 873 OFFCURVE",
"220 851 OFFCURVE",
"202 851 QCURVE",
"164 851 OFFCURVE",
"164 889 QCURVE",
"164 906 OFFCURVE",
"187 924 OFFCURVE",
"202 924 QCURVE"
);
},
{
closed = 1;
nodes = (
"465 924 OFFCURVE",
"486 906 OFFCURVE",
"486 889 QCURVE",
"486 873 OFFCURVE",
"467 851 OFFCURVE",
"449 851 QCURVE",
"412 851 OFFCURVE",
"412 889 QCURVE",
"412 906 OFFCURVE",
"434 924 OFFCURVE",
"449 924 QCURVE"
);
},
{
closed = 1;
nodes = (
"93 707 LINE",
"549 707 LINE",
"549 669 LINE",
"135 669 LINE",
"135 370 LINE",
"507 370 LINE",
"507 332 LINE",
"135 332 LINE",
"135 38 LINE",
"549 38 LINE",
"549 0 LINE",
"93 0 LINE"
);
}
);
width = 603;
}
);
unicode = 0401;
},
{
color = (166, 255, 153, 255);
glyphname = asciitilde;
layers = (
{
layerId = "0CBE557D-C54C-47B4-BFAF-0B1C1BA95C16";
paths = (
{
closed = 1;
nodes = (
"93 288 LINE",
"94 316 OFFCURVE",
"106 367 OFFCURVE",
"133 407 OFFCURVE",
"178 431 OFFCURVE",
"211 431 QCURVE",
"246 431 OFFCURVE",
"305 390 OFFCURVE",
"329 366 QCURVE",
"352 344 OFFCURVE",
"399 309 OFFCURVE",
"428 309 QCURVE",
"452 309 OFFCURVE",
"482 329 OFFCURVE",
"499 361 OFFCURVE",
"505 402 OFFCURVE",
"505 422 QCURVE",
"542 422 LINE",
"540 394 OFFCURVE",
"529 342 OFFCURVE",
"503 303 OFFCURVE",
"459 280 OFFCURVE",
"425 280 QCURVE",
"386 280 OFFCURVE",
"328 323 OFFCURVE",
"305 345 QCURVE",
"285 364 OFFCURVE",
"235 401 OFFCURVE",
"208 401 QCURVE",
"185 401 OFFCURVE",
"155 380 OFFCURVE",
"137 348 OFFCURVE",
"130 307 OFFCURVE",
"130 288 QCURVE"
);
}
);
width = 635;
}
);
unicode = 007E;
},
{
color = (166, 255, 153, 255);
glyphname = trademark;
layers = (
{
layerId = "0CBE557D-C54C-47B4-BFAF-0B1C1BA95C16";
paths = (
{
closed = 1;
nodes = (
"154 681 LINE",
"64 681 LINE",
"64 707 LINE",
"271 707 LINE",
"271 681 LINE",
"181 681 LINE",
"181 468 LINE",
"154 468 LINE"
);
},
{
closed = 1;
nodes = (
"419 540 LINE",
"344 670 LINE",
"344 468 LINE",
"317 468 LINE",
"317 707 LINE",
"353 707 LINE",
"429 577 LINE",
"507 707 LINE",
"540 707 LINE",
"540 468 LINE",
"512 468 LINE",
"512 665 LINE",
"439 540 LINE"
);
}
);
width = 609;
}
);
unicode = 2122;
},
{
color = (166, 255, 153, 255);
glyphname = registered;
layers = (
{
layerId = "0CBE557D-C54C-47B4-BFAF-0B1C1BA95C16";
paths = (
{
closed = 1;
nodes = (
"277 745 OFFCURVE",
"344 718 OFFCURVE",
"390 670 OFFCURVE",
"415 603 OFFCURVE",
"415 562 QCURVE",
"415 479 OFFCURVE",
"319 386 OFFCURVE",
"235 386 QCURVE",
"153 386 OFFCURVE",
"54 478 OFFCURVE",
"54 562 QCURVE",
"54 645 OFFCURVE",
"152 745 OFFCURVE",
"235 745 QCURVE"
);
},
{
closed = 1;
nodes = (
"162 725 OFFCURVE",
"76 635 OFFCURVE",
"76 562 QCURVE",
"76 489 OFFCURVE",
"162 406 OFFCURVE",
"235 406 QCURVE",
"309 406 OFFCURVE",
"393 489 OFFCURVE",
"393 562 QCURVE",
"393 635 OFFCURVE",
"310 725 OFFCURVE",
"235 725 QCURVE"
);
},
{
closed = 1;
nodes = (
"286 480 LINE",
"239 551 LINE",
"192 551 LINE",
"192 480 LINE",
"174 480 LINE",
"174 655 LINE",
"246 655 LINE",
"273 655 OFFCURVE",
"306 629 OFFCURVE",
"306 603 QCURVE",
"306 584 OFFCURVE",
"285 554 OFFCURVE",
"259 552 QCURVE",
"270 535 OFFCURVE",
"297 497 OFFCURVE",
"307 480 QCURVE"
);
},
{
closed = 1;
nodes = (
"192 638 LINE",
"192 568 LINE",
"248 568 LINE",
"265 568 OFFCURVE",
"289 583 OFFCURVE",
"289 603 QCURVE",
"289 623 OFFCURVE",
"263 638 OFFCURVE",
"248 638 QCURVE"
);
}
);
width = 472;
}
);
unicode = 00AE;
},
{
color = (166, 255, 153, 255);
glyphname = degree;
layers = (
{
layerId = "0CBE557D-C54C-47B4-BFAF-0B1C1BA95C16";
paths = (
{
closed = 1;
nodes = (
"213 616 OFFCURVE",
"257 665 OFFCURVE",
"257 703 QCURVE",
"257 741 OFFCURVE",
"213 789 OFFCURVE",
"174 789 QCURVE",
"135 789 OFFCURVE",
"90 741 OFFCURVE",
"90 703 QCURVE",
"90 664 OFFCURVE",
"135 616 OFFCURVE",
"174 616 QCURVE"
);
},
{
closed = 1;
nodes = (
"117 585 OFFCURVE",
"55 652 OFFCURVE",
"55 703 QCURVE",
"55 756 OFFCURVE",
"121 820 OFFCURVE",
"175 820 QCURVE",
"203 820 OFFCURVE",
"246 801 OFFCURVE",
"276 769 OFFCURVE",
"291 727 OFFCURVE",
"291 703 QCURVE",
"291 652 OFFCURVE",
"230 585 OFFCURVE",
"174 585 QCURVE"
);
}
);
width = 352;
}
);
unicode = 00B0;
},
{
color = (166, 255, 153, 255);
glyphname = bullet;
layers = (
{
layerId = "0CBE557D-C54C-47B4-BFAF-0B1C1BA95C16";
paths = (
{
closed = 1;
nodes = (
"194 455 OFFCURVE",
"242 403 OFFCURVE",
"242 365 QCURVE",
"242 327 OFFCURVE",
"195 275 OFFCURVE",
"153 275 QCURVE",
"111 275 OFFCURVE",
"64 327 OFFCURVE",
"64 365 QCURVE",
"64 403 OFFCURVE",
"112 455 OFFCURVE",
"153 455 QCURVE"
);
}
);
width = 306;
}
);
unicode = 2022;
},
{
color = (166, 255, 153, 255);
glyphname = uni27F5;
layers = (
{
layerId = "0CBE557D-C54C-47B4-BFAF-0B1C1BA95C16";
paths = (
{
closed = 1;
nodes = (
"1321 243 LINE",
"137 243 LINE",
"395 -13 LINE",
"367 -43 LINE",
"65 262 LINE",
"367 568 LINE",
"395 538 LINE",
"137 281 LINE",
"1321 281 LINE"
);
}
);
width = 1386;
}
);
unicode = 27F5;
},
{
color = (166, 255, 153, 255);
glyphname = uni27F6;
layers = (
{
layerId = "0CBE557D-C54C-47B4-BFAF-0B1C1BA95C16";
paths = (
{
closed = 1;
nodes = (
"65 281 LINE",
"1249 281 LINE",
"991 538 LINE",
"1019 568 LINE",
"1321 262 LINE",
"1019 -43 LINE",
"991 -13 LINE",
"1249 243 LINE",
"65 243 LINE"
);
}
);
width = 1386;
}
);
unicode = 27F6;
},
{
color = (166, 255, 153, 255);
glyphname = arrowup;
layers = (
{
layerId = "0CBE557D-C54C-47B4-BFAF-0B1C1BA95C16";
paths = (
{
closed = 1;
nodes = (
"366 0 LINE",
"331 0 LINE",
"331 590 LINE",
"92 313 LINE",
"65 335 LINE",
"348 663 LINE",
"632 335 LINE",
"605 312 LINE",
"366 590 LINE"
);
}
);
width = 697;
}
);
unicode = 2191;
},
{
color = (166, 255, 153, 255);
glyphname = arrowdown;
layers = (
{
layerId = "0CBE557D-C54C-47B4-BFAF-0B1C1BA95C16";
paths = (
{
closed = 1;
nodes = (
"331 663 LINE",
"366 663 LINE",
"366 73 LINE",
"605 350 LINE",
"632 328 LINE",
"349 0 LINE",
"65 328 LINE",
"92 351 LINE",
"331 73 LINE"
);
}
);
width = 697;
}
);
unicode = 2193;
},
{
color = (166, 255, 153, 255);
glyphname = uni21BA;
layers = (
{
layerId = "0CBE557D-C54C-47B4-BFAF-0B1C1BA95C16";
paths = (
{
closed = 1;
nodes = (
"586 733 LINE",
"703 659 OFFCURVE",
"817 452 OFFCURVE",
"817 327 QCURVE",
"817 246 OFFCURVE",
"764 108 OFFCURVE",
"666 6 OFFCURVE",
"526 -52 OFFCURVE",
"440 -52 QCURVE",
"354 -52 OFFCURVE",
"216 5 OFFCURVE",
"118 107 OFFCURVE",
"65 249 OFFCURVE",
"65 334 QCURVE",
"65 422 OFFCURVE",
"124 580 OFFCURVE",
"186 645 QCURVE",
"216 616 LINE",
"164 556 OFFCURVE",
"109 413 OFFCURVE",
"109 334 QCURVE",
"109 262 OFFCURVE",
"156 136 OFFCURVE",
"243 43 OFFCURVE",
"365 -11 OFFCURVE",
"440 -11 QCURVE",
"515 -11 OFFCURVE",
"638 41 OFFCURVE",
"725 132 OFFCURVE",
"773 257 OFFCURVE",
"773 330 QCURVE",
"773 380 OFFCURVE",
"746 483 OFFCURVE",
"693 580 OFFCURVE",
"616 666 OFFCURVE",
"567 700 QCURVE",
"561 439 LINE",
"519 439 LINE",
"528 775 LINE",
"865 764 LINE",
"864 723 LINE"
);
}
);
width = 930;
}
);
unicode = 21BA;
},
{
color = (166, 255, 153, 255);
glyphname = uni21BB;
layers = (
{
layerId = "0CBE557D-C54C-47B4-BFAF-0B1C1BA95C16";
paths = (
{
closed = 1;
nodes = (
"66 723 LINE",
"65 764 LINE",
"402 775 LINE",
"411 439 LINE",
"369 439 LINE",
"363 700 LINE",
"313 666 OFFCURVE",
"237 580 OFFCURVE",
"184 483 OFFCURVE",
"157 380 OFFCURVE",
"157 330 QCURVE",
"157 257 OFFCURVE",
"205 132 OFFCURVE",
"292 41 OFFCURVE",
"415 -11 OFFCURVE",
"490 -11 QCURVE",
"565 -11 OFFCURVE",
"687 43 OFFCURVE",
"774 136 OFFCURVE",
"821 262 OFFCURVE",
"821 334 QCURVE",
"821 413 OFFCURVE",
"766 556 OFFCURVE",
"714 616 QCURVE",
"744 645 LINE",
"806 580 OFFCURVE",
"865 422 OFFCURVE",
"865 334 QCURVE",
"865 249 OFFCURVE",
"812 107 OFFCURVE",
"714 5 OFFCURVE",
"575 -52 OFFCURVE",
"490 -52 QCURVE",
"404 -52 OFFCURVE",
"264 6 OFFCURVE",
"166 108 OFFCURVE",
"113 246 OFFCURVE",
"113 327 QCURVE",
"113 452 OFFCURVE",
"227 659 OFFCURVE",
"344 733 QCURVE"
);
}
);
width = 930;
}
);
unicode = 21BB;
},
{
color = (166, 255, 153, 255);
glyphname = uni21B7;
layers = (
{
layerId = "0CBE557D-C54C-47B4-BFAF-0B1C1BA95C16";
paths = (
{
closed = 1;
nodes = (
"945 124 LINE",
"960 83 LINE",
"642 -25 LINE",
"543 298 LINE",
"582 308 LINE",
"659 48 LINE",
"692 90 OFFCURVE",
"734 173 OFFCURVE",
"757 250 OFFCURVE",
"765 321 OFFCURVE",
"765 351 QCURVE",
"765 424 OFFCURVE",
"720 550 OFFCURVE",
"635 643 OFFCURVE",
"513 696 OFFCURVE",
"437 696 QCURVE",
"371 696 OFFCURVE",
"260 651 OFFCURVE",
"176 572 OFFCURVE",
"121 465 OFFCURVE",
"111 402 QCURVE",
"65 402 LINE",
"75 475 OFFCURVE",
"136 598 OFFCURVE",
"231 688 OFFCURVE",
"359 738 OFFCURVE",
"437 738 QCURVE",
"524 738 OFFCURVE",
"661 680 OFFCURVE",
"756 576 OFFCURVE",
"807 435 OFFCURVE",
"808 351 QCURVE",
"808 314 OFFCURVE",
"798 229 OFFCURVE",
"770 144 OFFCURVE",
"723 61 OFFCURVE",
"687 27 QCURVE"
);
}
);
width = 1025;
}
);
unicode = 21B7;
},
{
color = (166, 255, 153, 255);
glyphname = uni21B6;
layers = (
{
layerId = "0CBE557D-C54C-47B4-BFAF-0B1C1BA95C16";
paths = (
{
closed = 1;
nodes = (
"338 27 LINE",
"302 61 OFFCURVE",
"255 144 OFFCURVE",
"227 229 OFFCURVE",
"217 314 OFFCURVE",
"217 351 QCURVE",
"218 435 OFFCURVE",
"269 576 OFFCURVE",
"364 680 OFFCURVE",
"501 738 OFFCURVE",
"588 738 QCURVE",
"666 738 OFFCURVE",
"794 688 OFFCURVE",
"889 598 OFFCURVE",
"950 475 OFFCURVE",
"960 402 QCURVE",
"914 402 LINE",
"904 465 OFFCURVE",
"849 572 OFFCURVE",
"765 651 OFFCURVE",
"654 696 OFFCURVE",
"588 696 QCURVE",
"511 696 OFFCURVE",
"390 643 OFFCURVE",
"305 550 OFFCURVE",
"260 424 OFFCURVE",
"260 351 QCURVE",
"260 321 OFFCURVE",
"268 250 OFFCURVE",
"291 173 OFFCURVE",
"333 90 OFFCURVE",
"366 48 QCURVE",
"443 308 LINE",
"482 298 LINE",
"383 -25 LINE",
"65 83 LINE",
"80 124 LINE"
);
}
);
width = 1025;
}
);
unicode = 21B6;
},
{
color = (166, 255, 153, 255);
glyphname = five;
layers = (
{
layerId = "0CBE557D-C54C-47B4-BFAF-0B1C1BA95C16";
paths = (
{
closed = 1;
nodes = (
"82 316 LINE",
"116 707 LINE",
"518 707 LINE",
"518 669 LINE",
"154 669 LINE",
"126 357 LINE",
"168 402 OFFCURVE",
"269 437 OFFCURVE",
"321 437 QCURVE",
"370 437 OFFCURVE",
"452 406 OFFCURVE",
"512 349 OFFCURVE",
"545 269 OFFCURVE",
"545 220 QCURVE",
"545 162 OFFCURVE",
"506 77 OFFCURVE",
"439 20 OFFCURVE",
"349 -8 OFFCURVE",
"299 -8 QCURVE",
"272 -8 OFFCURVE",
"203 2 OFFCURVE",
"137 31 OFFCURVE",
"81 82 OFFCURVE",
"68 123 QCURVE",
"115 123 LINE",
"127 97 OFFCURVE",
"168 60 OFFCURVE",
"217 38 OFFCURVE",
"271 28 OFFCURVE",
"296 28 QCURVE",
"339 28 OFFCURVE",
"414 51 OFFCURVE",
"469 97 OFFCURVE",
"500 167 OFFCURVE",
"500 214 QCURVE",
"500 305 OFFCURVE",
"402 400 OFFCURVE",
"314 400 QCURVE",
"286 400 OFFCURVE",
"234 386 OFFCURVE",
"188 362 OFFCURVE",
"151 332 OFFCURVE",
"138 316 QCURVE"
);
}
);
width = 605;
}
);
unicode = 0035;
},
{
color = (166, 255, 153, 255);
glyphname = six;
layers = (
{
layerId = "0CBE557D-C54C-47B4-BFAF-0B1C1BA95C16";
paths = (
{
closed = 1;
nodes = (
"382 436 OFFCURVE",
"464 404 OFFCURVE",
"525 347 OFFCURVE",
"560 267 OFFCURVE",
"560 219 QCURVE",
"560 163 OFFCURVE",
"524 78 OFFCURVE",
"461 21 OFFCURVE",
"376 -8 OFFCURVE",
"328 -8 QCURVE",
"253 -8 OFFCURVE",
"153 52 OFFCURVE",
"92 148 OFFCURVE",
"66 271 OFFCURVE",
"66 334 QCURVE",
"66 404 OFFCURVE",
"93 541 OFFCURVE",
"157 649 OFFCURVE",
"264 715 OFFCURVE",
"343 715 QCURVE",
"408 715 OFFCURVE",
"513 656 OFFCURVE",
"542 599 QCURVE",
"496 599 LINE",
"471 639 OFFCURVE",
"386 679 OFFCURVE",
"341 679 QCURVE",
"289 679 OFFCURVE",
"213 643 OFFCURVE",
"161 582 OFFCURVE",
"129 504 OFFCURVE",
"112 418 OFFCURVE",
"108 332 OFFCURVE",
"109 295 QCURVE",
"127 336 OFFCURVE",
"178 391 OFFCURVE",
"238 423 OFFCURVE",
"303 436 OFFCURVE",
"335 436 QCURVE"
);
},
{
closed = 1;
nodes = (
"518 252 OFFCURVE",
"491 321 OFFCURVE",
"441 371 OFFCURVE",
"373 398 OFFCURVE",
"331 398 QCURVE",
"294 398 OFFCURVE",
"224 374 OFFCURVE",
"168 326 OFFCURVE",
"133 257 OFFCURVE",
"133 212 QCURVE",
"134 171 OFFCURVE",
"165 103 OFFCURVE",
"219 55 OFFCURVE",
"289 28 OFFCURVE",
"327 28 QCURVE",
"371 28 OFFCURVE",
"442 56 OFFCURVE",
"491 105 OFFCURVE",
"518 172 OFFCURVE",
"518 210 QCURVE"
);
}
);
width = 620;
}
);
unicode = 0036;
},
{
color = (248, 153, 255, 255);
glyphname = dieresis;
layers = (
{
layerId = "0CBE557D-C54C-47B4-BFAF-0B1C1BA95C16";
paths = (
{
closed = 1;
nodes = (
"368 714 OFFCURVE",
"390 692 OFFCURVE",
"390 675 QCURVE",
"390 658 OFFCURVE",
"368 636 OFFCURVE",
"349 636 QCURVE",
"331 636 OFFCURVE",
"310 659 OFFCURVE",
"310 675 QCURVE",
"310 691 OFFCURVE",
"331 714 OFFCURVE",
"349 714 QCURVE"
);
},
{
closed = 1;
nodes = (
"157 714 OFFCURVE",
"179 692 OFFCURVE",
"179 675 QCURVE",
"179 658 OFFCURVE",
"157 636 OFFCURVE",
"138 636 QCURVE",
"120 636 OFFCURVE",
"99 659 OFFCURVE",
"99 675 QCURVE",
"99 691 OFFCURVE",
"120 714 OFFCURVE",
"138 714 QCURVE"
);
}
);
width = 489;
}
);
unicode = 00A8;
},
{
color = (248, 153, 255, 255);
glyphname = cedilla;
layers = (
{
layerId = "0CBE557D-C54C-47B4-BFAF-0B1C1BA95C16";
paths = (
{
closed = 1;
nodes = (
"280 -78 LINE",
"291 -76 OFFCURVE",
"306 -75 OFFCURVE",
"315 -75 QCURVE",
"347 -76 OFFCURVE",
"389 -115 OFFCURVE",
"389 -153 QCURVE",
"389 -183 OFFCURVE",
"361 -222 OFFCURVE",
"318 -245 OFFCURVE",
"266 -251 OFFCURVE",
"241 -248 QCURVE",
"241 -221 LINE",
"256 -223 OFFCURVE",
"296 -221 OFFCURVE",
"333 -206 OFFCURVE",
"359 -177 OFFCURVE",
"359 -151 QCURVE",
"359 -126 OFFCURVE",
"327 -100 OFFCURVE",
"300 -100 QCURVE",
"288 -100 OFFCURVE",
"255 -106 OFFCURVE",
"244 -109 QCURVE",
"284 18 LINE",
"310 18 LINE"
);
}
);
width = 576;
}
);
unicode = 00B8;
},
{
color = (166, 255, 153, 255);
glyphname = dotlessi;
layers = (
{
layerId = "0CBE557D-C54C-47B4-BFAF-0B1C1BA95C16";
paths = (
{
closed = 1;
nodes = (
"73 527 LINE",
"115 527 LINE",
"115 0 LINE",
"73 0 LINE"
);
}
);
width = 188;
}
);
unicode = 0131;
},
{
color = (166, 255, 153, 255);
glyphname = ccedilla;
layers = (
{
layerId = "0CBE557D-C54C-47B4-BFAF-0B1C1BA95C16";
paths = (
{
closed = 1;
nodes = (
"280 -79 LINE",
"291 -77 OFFCURVE",
"304 -76 OFFCURVE",
"315 -76 QCURVE",
"345 -77 OFFCURVE",
"389 -114 OFFCURVE",
"389 -153 QCURVE",
"389 -183 OFFCURVE",
"362 -222 OFFCURVE",
"319 -244 OFFCURVE",
"266 -251 OFFCURVE",
"241 -248 QCURVE",
"241 -222 LINE",
"256 -223 OFFCURVE",
"296 -221 OFFCURVE",
"333 -206 OFFCURVE",
"359 -177 OFFCURVE",
"359 -151 QCURVE",
"359 -122 OFFCURVE",
"326 -100 OFFCURVE",
"299 -100 QCURVE",
"288 -100 OFFCURVE",
"256 -104 OFFCURVE",
"245 -108 QCURVE",
"276 -6 LINE",
"220 -2 OFFCURVE",
"137 41 OFFCURVE",
"81 112 OFFCURVE",
"53 206 OFFCURVE",
"53 262 QCURVE",
"53 320 OFFCURVE",
"85 420 OFFCURVE",
"148 493 OFFCURVE",
"242 534 OFFCURVE",
"304 534 QCURVE",
"371 534 OFFCURVE",
"474 471 OFFCURVE",
"497 408 QCURVE",
"451 408 LINE",
"434 455 OFFCURVE",
"350 498 OFFCURVE",
"300 498 QCURVE",
"248 498 OFFCURVE",
"171 461 OFFCURVE",
"120 397 OFFCURVE",
"95 311 OFFCURVE",
"95 262 QCURVE",
"95 214 OFFCURVE",
"120 130 OFFCURVE",
"171 66 OFFCURVE",
"249 29 OFFCURVE",
"303 29 QCURVE",
"356 29 OFFCURVE",
"440 71 OFFCURVE",
"460 118 QCURVE",
"506 118 LINE",
"493 86 OFFCURVE",
"451 40 OFFCURVE",
"397 9 OFFCURVE",
"335 -7 OFFCURVE",
"302 -7 QCURVE"
);
}
);
width = 551;
}
);
leftKerningGroup = _kern5;
rightKerningGroup = _kern6;
unicode = 00E7;
},
{
color = (166, 255, 153, 255);
glyphname = uni0162;
layers = (
{
layerId = "0CBE557D-C54C-47B4-BFAF-0B1C1BA95C16";
paths = (
{
closed = 1;
nodes = (
"271 -79 LINE",
"282 -77 OFFCURVE",
"295 -76 OFFCURVE",
"306 -76 QCURVE",
"336 -77 OFFCURVE",
"380 -114 OFFCURVE",
"380 -153 QCURVE",
"380 -183 OFFCURVE",
"353 -222 OFFCURVE",
"310 -244 OFFCURVE",
"257 -251 OFFCURVE",
"232 -248 QCURVE",
"232 -222 LINE",
"247 -223 OFFCURVE",
"287 -221 OFFCURVE",
"324 -206 OFFCURVE",
"350 -177 OFFCURVE",
"350 -151 QCURVE",
"350 -122 OFFCURVE",
"317 -100 OFFCURVE",
"290 -100 QCURVE",
"279 -100 OFFCURVE",
"245 -104 OFFCURVE",
"234 -108 QCURVE",
"269 0 LINE",
"262 0 LINE",
"262 669 LINE",
"20 669 LINE",
"20 707 LINE",
"546 707 LINE",
"546 669 LINE",
"304 669 LINE",
"304 0 LINE",
"295 0 LINE"
);
}
);
width = 566;
}
);
leftKerningGroup = _kern28;
rightKerningGroup = _kern28;
unicode = 0162;
},
{
color = (166, 255, 153, 255);
glyphname = uni0163;
layers = (
{
layerId = "0CBE557D-C54C-47B4-BFAF-0B1C1BA95C16";
paths = (
{
closed = 1;
nodes = (
"196 -79 LINE",
"207 -77 OFFCURVE",
"220 -76 OFFCURVE",
"231 -76 QCURVE",
"261 -77 OFFCURVE",
"305 -114 OFFCURVE",
"305 -153 QCURVE",
"305 -183 OFFCURVE",
"278 -222 OFFCURVE",
"235 -244 OFFCURVE",
"182 -251 OFFCURVE",
"157 -248 QCURVE",
"157 -222 LINE",
"172 -223 OFFCURVE",
"212 -221 OFFCURVE",
"249 -206 OFFCURVE",
"275 -177 OFFCURVE",
"275 -151 QCURVE",
"275 -122 OFFCURVE",
"242 -100 OFFCURVE",
"215 -100 QCURVE",
"204 -100 OFFCURVE",
"170 -104 OFFCURVE",
"159 -108 QCURVE",
"199 15 LINE",
"124 47 OFFCURVE",
"124 167 QCURVE",
"124 492 LINE",
"31 492 LINE",
"31 527 LINE",
"124 527 LINE",
"124 685 LINE",
"166 685 LINE",
"166 527 LINE",
"322 527 LINE",
"322 492 LINE",
"166 492 LINE",
"166 171 LINE",
"166 103 OFFCURVE",
"222 36 OFFCURVE",
"292 36 QCURVE",
"319 36 LINE",
"319 0 LINE",
"284 0 LINE",
"248 0 OFFCURVE",
"223 7 QCURVE"
);
}
);
width = 359;
}
);
leftKerningGroup = _kern21;
rightKerningGroup = _kern21;
unicode = 0163;
},
{
color = (248, 153, 255, 255);
glyphname = Ccedilla;
layers = (
{
layerId = "0CBE557D-C54C-47B4-BFAF-0B1C1BA95C16";
paths = (
{
closed = 1;
nodes = (
"309 679 OFFCURVE",
"201 627 OFFCURVE",
"131 538 OFFCURVE",
"96 421 OFFCURVE",
"96 355 QCURVE",
"96 289 OFFCURVE",
"130 170 OFFCURVE",
"199 80 OFFCURVE",
"305 28 OFFCURVE",
"378 28 QCURVE",
"411 28 OFFCURVE",
"478 42 OFFCURVE",
"539 71 OFFCURVE",
"588 117 OFFCURVE",
"602 149 QCURVE",
"651 149 LINE",
"634 108 OFFCURVE",
"577 49 OFFCURVE",
"503 11 OFFCURVE",
"419 -8 OFFCURVE",
"377 -8 QCURVE",
"355 -79 LINE",
"366 -77 OFFCURVE",
"380 -76 OFFCURVE",
"391 -76 QCURVE",
"421 -77 OFFCURVE",
"465 -114 OFFCURVE",
"465 -153 QCURVE",
"465 -183 OFFCURVE",
"437 -222 OFFCURVE",
"394 -244 OFFCURVE",
"341 -251 OFFCURVE",
"316 -248 QCURVE",
"316 -222 LINE",
"331 -223 OFFCURVE",
"371 -221 OFFCURVE",
"408 -206 OFFCURVE",
"434 -177 OFFCURVE",
"434 -151 QCURVE",
"434 -122 OFFCURVE",
"401 -100 OFFCURVE",
"374 -100 QCURVE",
"363 -100 OFFCURVE",
"330 -104 OFFCURVE",
"319 -108 QCURVE",
"351 -7 LINE",
"274 -3 OFFCURVE",
"163 55 OFFCURVE",
"89 150 OFFCURVE",
"54 278 OFFCURVE",
"54 353 QCURVE",
"54 429 OFFCURVE",
"94 562 OFFCURVE",
"175 659 OFFCURVE",
"297 715 OFFCURVE",
"379 715 QCURVE",
"422 715 OFFCURVE",
"503 697 OFFCURVE",
"571 660 OFFCURVE",
"623 600 OFFCURVE",
"638 558 QCURVE",
"594 558 LINE",
"565 620 OFFCURVE",
"452 679 OFFCURVE",
"383 679 QCURVE"
);
}
);
width = 699;
}
);
leftKerningGroup = _kern3;
rightKerningGroup = _kern4;
unicode = 00C7;
},
{
color = (166, 255, 153, 255);
glyphname = scedilla;
layers = (
{
layerId = "0CBE557D-C54C-47B4-BFAF-0B1C1BA95C16";
paths = (
{
closed = 1;
nodes = (
"242 -79 LINE",
"250 -77 OFFCURVE",
"268 -76 OFFCURVE",
"275 -76 QCURVE",
"307 -77 OFFCURVE",
"351 -114 OFFCURVE",
"351 -153 QCURVE",
"351 -183 OFFCURVE",
"324 -222 OFFCURVE",
"281 -244 OFFCURVE",
"228 -251 OFFCURVE",
"203 -248 QCURVE",
"203 -222 LINE",
"218 -223 OFFCURVE",
"258 -221 OFFCURVE",
"295 -206 OFFCURVE",
"321 -177 OFFCURVE",
"321 -151 QCURVE",
"321 -122 OFFCURVE",
"288 -100 OFFCURVE",
"261 -100 QCURVE",
"250 -100 OFFCURVE",
"217 -104 OFFCURVE",
"206 -108 QCURVE",
"238 -6 LINE",
"208 -5 OFFCURVE",
"146 10 OFFCURVE",
"93 38 OFFCURVE",
"53 80 OFFCURVE",
"43 109 QCURVE",
"90 109 LINE",
"102 86 OFFCURVE",
"141 55 OFFCURVE",
"186 37 OFFCURVE",
"234 29 OFFCURVE",
"257 29 QCURVE",
"283 29 OFFCURVE",
"340 38 OFFCURVE",
"387 61 OFFCURVE",
"418 102 OFFCURVE",
"418 134 QCURVE",
"418 159 OFFCURVE",
"399 192 OFFCURVE",
"367 214 OFFCURVE",
"328 226 OFFCURVE",
"309 231 QCURVE",
"252 242 LINE",
"219 248 OFFCURVE",
"150 264 OFFCURVE",
"94 297 OFFCURVE",
"58 350 OFFCURVE",
"58 393 QCURVE",
"58 434 OFFCURVE",
"91 488 OFFCURVE",
"145 521 OFFCURVE",
"215 534 OFFCURVE",
"251 534 QCURVE",
"280 534 OFFCURVE",
"339 522 OFFCURVE",
"390 495 OFFCURVE",
"428 454 OFFCURVE",
"437 425 QCURVE",
"395 425 LINE",
"386 444 OFFCURVE",
"354 472 OFFCURVE",
"314 490 OFFCURVE",
"271 498 OFFCURVE",
"250 498 QCURVE",
"229 498 OFFCURVE",
"177 492 OFFCURVE",
"130 471 OFFCURVE",
"99 429 OFFCURVE",
"99 394 QCURVE",
"99 368 OFFCURVE",
"119 333 OFFCURVE",
"151 308 OFFCURVE",
"191 293 OFFCURVE",
"211 289 QCURVE",
"243 281 OFFCURVE",
"310 270 OFFCURVE",
"342 262 QCURVE",
"394 249 OFFCURVE",
"459 193 OFFCURVE",
"459 139 QCURVE",
"459 97 OFFCURVE",
"425 42 OFFCURVE",
"369 8 OFFCURVE",
"300 -6 OFFCURVE",
"264 -7 QCURVE"
);
}
);
width = 504;
}
);
leftKerningGroup = _kern5;
rightKerningGroup = _kern6;
unicode = 015F;
},
{
color = (166, 255, 153, 255);
glyphname = uni21A9;
layers = (
{
layerId = "0CBE557D-C54C-47B4-BFAF-0B1C1BA95C16";
paths = (
{
closed = 1;
nodes = (
"766 38 LINE",
"833 38 OFFCURVE",
"940 84 OFFCURVE",
"1013 165 OFFCURVE",
"1052 275 OFFCURVE",
"1052 340 QCURVE",
"1052 404 OFFCURVE",
"1013 513 OFFCURVE",
"939 593 OFFCURVE",
"833 639 OFFCURVE",
"766 639 QCURVE",
"202 639 LINE",
"202 677 LINE",
"769 677 LINE",
"845 677 OFFCURVE",
"966 626 OFFCURVE",
"1050 536 OFFCURVE",
"1094 413 OFFCURVE",
"1094 340 QCURVE",
"1094 266 OFFCURVE",
"1050 141 OFFCURVE",
"968 51 OFFCURVE",
"848 0 OFFCURVE",
"772 0 QCURVE",
"137 0 LINE",
"395 -256 LINE",
"367 -287 LINE",
"65 19 LINE",
"367 324 LINE",
"395 294 LINE",
"137 38 LINE"
);
}
);
width = 1159;
}
);
unicode = 21A9;
},
{
color = (166, 255, 153, 255);
glyphname = uni2713;
layers = (
{
layerId = "0CBE557D-C54C-47B4-BFAF-0B1C1BA95C16";
paths = (
{
closed = 1;
nodes = (
"953 807 LINE",
"994 774 LINE",
"373 2 LINE",
"65 355 LINE",
"105 389 LINE",
"371 77 LINE"
);
}
);
width = 1059;
}
);
unicode = 2713;
},
{
color = (166, 255, 153, 255);
glyphname = divide;
layers = (
{
layerId = "0CBE557D-C54C-47B4-BFAF-0B1C1BA95C16";
paths = (
{
closed = 1;
nodes = (
"248 215 OFFCURVE",
"269 193 OFFCURVE",
"269 175 QCURVE",
"269 157 OFFCURVE",
"249 134 OFFCURVE",
"229 134 QCURVE",
"210 134 OFFCURVE",
"189 157 OFFCURVE",
"189 175 QCURVE",
"189 193 OFFCURVE",
"210 215 OFFCURVE",
"229 215 QCURVE"
);
},
{
closed = 1;
nodes = (
"248 583 OFFCURVE",
"269 561 OFFCURVE",
"269 543 QCURVE",
"269 525 OFFCURVE",
"249 502 OFFCURVE",
"229 502 QCURVE",
"210 502 OFFCURVE",
"189 525 OFFCURVE",
"189 543 QCURVE",
"189 561 OFFCURVE",
"210 583 OFFCURVE",
"229 583 QCURVE"
);
},
{
closed = 1;
nodes = (
"394 340 LINE",
"65 340 LINE",
"65 377 LINE",
"394 377 LINE"
);
}
);
width = 459;
}
);
unicode = 00F7;
},
{
color = (248, 153, 255, 255);
glyphname = multiply;
layers = (
{
layerId = "0CBE557D-C54C-47B4-BFAF-0B1C1BA95C16";
paths = (
{
closed = 1;
nodes = (
"221 331 LINE",
"73 182 LINE",
"50 205 LINE",
"200 353 LINE",
"50 502 LINE",
"74 525 LINE",
"222 374 LINE",
"369 525 LINE",
"392 502 LINE",
"244 353 LINE",
"392 205 LINE",
"369 182 LINE"
);
}
);
width = 442;
}
);
unicode = 00D7;
},
{
color = (166, 255, 153, 255);
glyphname = yen;
layers = (
{
layerId = "0CBE557D-C54C-47B4-BFAF-0B1C1BA95C16";
paths = (
{
closed = 1;
nodes = (
"538 707 LINE",
"589 707 LINE",
"357 298 LINE",
"491 298 LINE",
"491 262 LINE",
"338 262 LINE",
"338 138 LINE",
"491 138 LINE",
"491 103 LINE",
"338 103 LINE",
"338 0 LINE",
"295 0 LINE",
"295 103 LINE",
"141 103 LINE",
"141 138 LINE",
"295 138 LINE",
"295 262 LINE",
"141 262 LINE",
"141 298 LINE",
"277 298 LINE",
"45 707 LINE",
"96 707 LINE",
"318 305 LINE"
);
}
);
width = 634;
}
);
unicode = 00A5;
},
{
color = (166, 255, 153, 255);
glyphname = uni20BD;
layers = (
{
layerId = "0CBE557D-C54C-47B4-BFAF-0B1C1BA95C16";
paths = (
{
closed = 1;
nodes = (
"169 707 LINE",
"401 707 LINE",
"458 707 OFFCURVE",
"548 683 OFFCURVE",
"612 630 OFFCURVE",
"646 547 OFFCURVE",
"646 488 QCURVE",
"646 429 OFFCURVE",
"606 345 OFFCURVE",
"535 291 OFFCURVE",
"439 266 OFFCURVE",
"384 266 QCURVE",
"211 266 LINE",
"211 135 LINE",
"521 135 LINE",
"521 98 LINE",
"211 98 LINE",
"211 0 LINE",
"169 0 LINE",
"169 98 LINE",
"65 98 LINE",
"65 135 LINE",
"169 135 LINE",
"169 266 LINE",
"65 266 LINE",
"65 303 LINE",
"169 303 LINE"
);
},
{
closed = 1;
nodes = (
"381 303 LINE",
"430 303 OFFCURVE",
"513 323 OFFCURVE",
"571 368 OFFCURVE",
"604 440 OFFCURVE",
"604 492 QCURVE",
"604 541 OFFCURVE",
"575 608 OFFCURVE",
"521 650 OFFCURVE",
"444 669 OFFCURVE",
"397 669 QCURVE",
"211 669 LINE",
"211 303 LINE"
);
}
);
width = 701;
}
);
unicode = 20BD;
},
{
color = (166, 255, 153, 255);
glyphname = uni20B4;
layers = (
{
layerId = "0CBE557D-C54C-47B4-BFAF-0B1C1BA95C16";
paths = (
{
closed = 1;
nodes = (
"349 715 OFFCURVE",
"414 700 OFFCURVE",
"466 666 OFFCURVE",
"499 610 OFFCURVE",
"499 570 QCURVE",
"499 544 OFFCURVE",
"482 501 OFFCURVE",
"459 467 OFFCURVE",
"435 443 OFFCURVE",
"429 437 QCURVE",
"532 437 LINE",
"531 401 LINE",
"397 401 LINE",
"221 264 LINE",
"531 264 LINE",
"531 228 LINE",
"181 228 LINE",
"164 213 OFFCURVE",
"145 162 OFFCURVE",
"145 140 QCURVE",
"145 109 OFFCURVE",
"171 67 OFFCURVE",
"211 40 OFFCURVE",
"261 28 OFFCURVE",
"285 28 QCURVE",
"306 28 OFFCURVE",
"355 33 OFFCURVE",
"400 48 OFFCURVE",
"438 76 OFFCURVE",
"449 99 QCURVE",
"496 99 LINE",
"485 69 OFFCURVE",
"442 28 OFFCURVE",
"386 3 OFFCURVE",
"323 -8 OFFCURVE",
"292 -8 QCURVE",
"272 -8 OFFCURVE",
"210 0 OFFCURVE",
"150 28 OFFCURVE",
"104 83 OFFCURVE",
"102 131 QCURVE",
"101 148 OFFCURVE",
"114 203 OFFCURVE",
"134 228 QCURVE",
"53 228 LINE",
"53 264 LINE",
"167 264 LINE",
"339 401 LINE",
"53 401 LINE",
"53 437 LINE",
"379 437 LINE",
"411 460 OFFCURVE",
"456 530 OFFCURVE",
"457 568 QCURVE",
"458 597 OFFCURVE",
"435 638 OFFCURVE",
"396 665 OFFCURVE",
"343 679 OFFCURVE",
"315 679 QCURVE",
"298 679 OFFCURVE",
"253 673 OFFCURVE",
"209 655 OFFCURVE",
"173 624 OFFCURVE",
"164 600 QCURVE",
"114 600 LINE",
"125 633 OFFCURVE",
"168 677 OFFCURVE",
"223 704 OFFCURVE",
"285 715 OFFCURVE",
"316 715 QCURVE"
);
}
);
width = 585;
}
);
unicode = 20B4;
},
{
color = (166, 255, 153, 255);
glyphname = sterling;
layers = (
{
layerId = "0CBE557D-C54C-47B4-BFAF-0B1C1BA95C16";
paths = (
{
closed = 1;
nodes = (
"414 318 LINE",
"193 318 LINE",
"193 38 LINE",
"511 38 LINE",
"511 0 LINE",
"65 0 LINE",
"65 38 LINE",
"153 38 LINE",
"153 318 LINE",
"65 318 LINE",
"65 355 LINE",
"153 355 LINE",
"153 531 LINE",
"153 623 OFFCURVE",
"252 715 OFFCURVE",
"342 715 QCURVE",
"371 715 OFFCURVE",
"424 701 OFFCURVE",
"467 674 OFFCURVE",
"498 633 OFFCURVE",
"505 605 QCURVE",
"463 605 LINE",
"449 644 OFFCURVE",
"382 679 OFFCURVE",
"344 679 QCURVE",
"266 679 OFFCURVE",
"193 602 OFFCURVE",
"193 524 QCURVE",
"193 355 LINE",
"414 355 LINE"
);
}
);
width = 576;
}
);
unicode = 00A3;
},
{
color = (166, 255, 153, 255);
glyphname = Scedilla;
layers = (
{
layerId = "0CBE557D-C54C-47B4-BFAF-0B1C1BA95C16";
paths = (
{
closed = 1;
nodes = (
"320 -79 LINE",
"329 -77 OFFCURVE",
"345 -76 OFFCURVE",
"352 -76 QCURVE",
"386 -77 OFFCURVE",
"429 -114 OFFCURVE",
"429 -153 QCURVE",
"429 -183 OFFCURVE",
"402 -222 OFFCURVE",
"359 -244 OFFCURVE",
"306 -251 OFFCURVE",
"281 -248 QCURVE",
"281 -222 LINE",
"296 -223 OFFCURVE",
"336 -221 OFFCURVE",
"373 -206 OFFCURVE",
"399 -177 OFFCURVE",
"399 -151 QCURVE",
"399 -122 OFFCURVE",
"366 -100 OFFCURVE",
"339 -100 QCURVE",
"328 -100 OFFCURVE",
"296 -104 OFFCURVE",
"285 -108 QCURVE",
"316 -7 LINE",
"274 -6 OFFCURVE",
"195 13 OFFCURVE",
"128 50 OFFCURVE",
"77 108 OFFCURVE",
"63 149 QCURVE",
"110 149 LINE",
"126 116 OFFCURVE",
"175 70 OFFCURVE",
"234 41 OFFCURVE",
"299 28 OFFCURVE",
"332 28 QCURVE",
"369 28 OFFCURVE",
"442 45 OFFCURVE",
"499 81 OFFCURVE",
"534 137 OFFCURVE",
"534 176 QCURVE",
"534 208 OFFCURVE",
"514 253 OFFCURVE",
"478 284 OFFCURVE",
"429 305 OFFCURVE",
"401 313 QCURVE",
"371 322 OFFCURVE",
"314 337 OFFCURVE",
"288 344 QCURVE",
"251 353 OFFCURVE",
"178 377 OFFCURVE",
"119 418 OFFCURVE",
"83 480 OFFCURVE",
"83 528 QCURVE",
"83 580 OFFCURVE",
"124 651 OFFCURVE",
"191 695 OFFCURVE",
"278 715 OFFCURVE",
"324 715 QCURVE",
"364 715 OFFCURVE",
"441 699 OFFCURVE",
"503 662 OFFCURVE",
"547 604 OFFCURVE",
"556 562 QCURVE",
"511 562 LINE",
"502 594 OFFCURVE",
"463 639 OFFCURVE",
"412 667 OFFCURVE",
"352 679 OFFCURVE",
"323 679 QCURVE",
"290 679 OFFCURVE",
"222 665 OFFCURVE",
"166 632 OFFCURVE",
"129 577 OFFCURVE",
"129 535 QCURVE",
"129 501 OFFCURVE",
"151 454 OFFCURVE",
"190 421 OFFCURVE",
"242 400 OFFCURVE",
"271 392 QCURVE",
"313 381 OFFCURVE",
"395 359 OFFCURVE",
"433 347 QCURVE",
"463 338 OFFCURVE",
"517 309 OFFCURVE",
"556 270 OFFCURVE",
"579 219 OFFCURVE",
"579 187 QCURVE",
"579 134 OFFCURVE",
"538 61 OFFCURVE",
"472 14 OFFCURVE",
"387 -7 OFFCURVE",
"342 -8 QCURVE"
);
}
);
width = 643;
}
);
leftKerningGroup = _kern3;
rightKerningGroup = _kern4;
unicode = 015E;
},
{
color = (166, 255, 153, 255);
glyphname = t_alt;
layers = (
{
layerId = "0CBE557D-C54C-47B4-BFAF-0B1C1BA95C16";
paths = (
{
closed = 1;
nodes = (
"170 527 LINE",
"328 527 LINE",
"328 492 LINE",
"170 492 LINE",
"170 171 LINE",
"170 103 OFFCURVE",
"223 36 OFFCURVE",
"293 36 QCURVE",
"323 36 LINE",
"323 0 LINE",
"286 0 LINE",
"242 0 OFFCURVE",
"181 22 OFFCURVE",
"144 64 OFFCURVE",
"128 126 OFFCURVE",
"128 167 QCURVE",
"128 492 LINE",
"35 492 LINE",
"35 527 LINE",
"129 527 LINE",
"129 685 LINE",
"170 685 LINE"
);
}
);
width = 373;
}
);
leftKerningGroup = _kern21;
rightKerningGroup = _kern21;
},
{
color = (166, 255, 153, 255);
glyphname = alt_1;
layers = (
{
layerId = "0CBE557D-C54C-47B4-BFAF-0B1C1BA95C16";
paths = (
{
closed = 1;
nodes = (
"466 0 LINE",
"53 0 LINE",
"53 39 LINE",
"255 39 LINE",
"255 602 LINE",
"106 602 LINE",
"106 631 LINE",
"141 631 OFFCURVE",
"198 633 OFFCURVE",
"239 648 OFFCURVE",
"265 679 OFFCURVE",
"269 707 QCURVE",
"298 707 LINE",
"298 39 LINE",
"466 39 LINE"
);
}
);
width = 491;
}
);
},
{
color = (166, 255, 153, 255);
glyphname = uni2117;
layers = (
{
layerId = "0CBE557D-C54C-47B4-BFAF-0B1C1BA95C16";
paths = (
{
closed = 1;
nodes = (
"564 715 OFFCURVE",
"715 652 OFFCURVE",
"820 540 OFFCURVE",
"877 385 OFFCURVE",
"877 292 QCURVE",
"877 199 OFFCURVE",
"822 45 OFFCURVE",
"717 -67 OFFCURVE",
"566 -129 OFFCURVE",
"471 -129 QCURVE",
"376 -129 OFFCURVE",
"225 -67 OFFCURVE",
"120 45 OFFCURVE",
"65 199 OFFCURVE",
"65 292 QCURVE",
"65 385 OFFCURVE",
"122 540 OFFCURVE",
"227 652 OFFCURVE",
"378 715 OFFCURVE",
"471 715 QCURVE"
);
},
{
closed = 1;
nodes = (
"386 677 OFFCURVE",
"251 619 OFFCURVE",
"156 516 OFFCURVE",
"106 375 OFFCURVE",
"106 292 QCURVE",
"106 209 OFFCURVE",
"156 69 OFFCURVE",
"250 -34 OFFCURVE",
"385 -92 OFFCURVE",
"471 -92 QCURVE",
"557 -92 OFFCURVE",
"693 -33 OFFCURVE",
"787 70 OFFCURVE",
"836 210 OFFCURVE",
"836 292 QCURVE",
"836 374 OFFCURVE",
"786 515 OFFCURVE",
"692 618 OFFCURVE",
"556 677 OFFCURVE",
"471 677 QCURVE"
);
},
{
closed = 1;
nodes = (
"396 78 LINE",
"356 78 LINE",
"356 493 LINE",
"496 493 LINE",
"562 493 OFFCURVE",
"649 428 OFFCURVE",
"650 359 QCURVE",
"650 324 OFFCURVE",
"625 272 OFFCURVE",
"580 238 OFFCURVE",
"518 221 OFFCURVE",
"482 221 QCURVE",
"396 221 LINE"
);
},
{
closed = 1;
nodes = (
"480 257 LINE",
"507 257 OFFCURVE",
"555 266 OFFCURVE",
"590 290 OFFCURVE",
"610 329 OFFCURVE",
"610 359 QCURVE",
"610 387 OFFCURVE",
"592 424 OFFCURVE",
"560 447 OFFCURVE",
"516 457 OFFCURVE",
"491 457 QCURVE",
"396 457 LINE",
"396 257 LINE"
);
}
);
width = 942;
}
);
unicode = 2117;
},
{
color = (166, 255, 153, 255);
glyphname = colon.uc;
layers = (
{
layerId = "0CBE557D-C54C-47B4-BFAF-0B1C1BA95C16";
paths = (
{
closed = 1;
nodes = (
"132 572 OFFCURVE",
"153 550 OFFCURVE",
"153 532 QCURVE",
"153 514 OFFCURVE",
"132 490 OFFCURVE",
"113 490 QCURVE",
"94 490 OFFCURVE",
"73 514 OFFCURVE",
"73 532 QCURVE",
"73 550 OFFCURVE",
"94 572 OFFCURVE",
"113 572 QCURVE"
);
},
{
closed = 1;
nodes = (
"132 195 OFFCURVE",
"153 173 OFFCURVE",
"153 155 QCURVE",
"153 138 OFFCURVE",
"132 114 OFFCURVE",
"113 114 QCURVE",
"94 114 OFFCURVE",
"73 138 OFFCURVE",
"73 155 QCURVE",
"73 173 OFFCURVE",
"94 195 OFFCURVE",
"113 195 QCURVE"
);
}
);
width = 226;
}
);
},
{
color = (166, 255, 153, 255);
glyphname = y_alt;
layers = (
{
layerId = "0CBE557D-C54C-47B4-BFAF-0B1C1BA95C16";
paths = (
{
closed = 1;
nodes = (
"524 527 LINE",
"524 -17 LINE",
"524 -132 OFFCURVE",
"404 -257 OFFCURVE",
"289 -257 QCURVE",
"254 -257 OFFCURVE",
"188 -242 OFFCURVE",
"133 -212 OFFCURVE",
"91 -165 OFFCURVE",
"79 -133 QCURVE",
"127 -133 LINE",
"138 -157 OFFCURVE",
"174 -191 OFFCURVE",
"219 -212 OFFCURVE",
"268 -221 OFFCURVE",
"292 -221 QCURVE",
"360 -221 OFFCURVE",
"436 -172 OFFCURVE",
"474 -104 OFFCURVE",
"482 -33 OFFCURVE",
"482 -12 QCURVE",
"482 107 LINE",
"462 68 OFFCURVE",
"410 22 OFFCURVE",
"353 -1 OFFCURVE",
"296 -8 OFFCURVE",
"272 -8 QCURVE",
"215 -8 OFFCURVE",
"138 31 OFFCURVE",
"90 99 OFFCURVE",
"70 190 OFFCURVE",
"70 243 QCURVE",
"70 527 LINE",
"112 527 LINE",
"112 266 LINE",
"112 223 OFFCURVE",
"124 138 OFFCURVE",
"160 70 OFFCURVE",
"226 28 OFFCURVE",
"281 28 QCURVE",
"338 28 OFFCURVE",
"415 71 OFFCURVE",
"462 141 OFFCURVE",
"482 228 OFFCURVE",
"482 272 QCURVE",
"482 527 LINE"
);
}
);
width = 597;
}
);
},
{
color = (166, 255, 153, 255);
glyphname = u_alt;
layers = (
{
layerId = "0CBE557D-C54C-47B4-BFAF-0B1C1BA95C16";
paths = (
{
closed = 1;
nodes = (
"524 527 LINE",
"524 0 LINE",
"482 0 LINE",
"482 107 LINE",
"463 70 OFFCURVE",
"413 25 OFFCURVE",
"358 0 OFFCURVE",
"301 -8 OFFCURVE",
"274 -8 QCURVE",
"215 -8 OFFCURVE",
"136 32 OFFCURVE",
"89 100 OFFCURVE",
"70 191 OFFCURVE",
"70 241 QCURVE",
"70 527 LINE",
"112 527 LINE",
"112 267 LINE",
"112 222 OFFCURVE",
"123 136 OFFCURVE",
"159 70 OFFCURVE",
"226 29 OFFCURVE",
"282 29 QCURVE",
"338 30 OFFCURVE",
"414 73 OFFCURVE",
"461 143 OFFCURVE",
"482 232 OFFCURVE",
"482 280 QCURVE",
"482 527 LINE"
);
}
);
width = 597;
}
);
},
{
color = (166, 255, 153, 255);
glyphname = be_alt;
layers = (
{
layerId = "0CBE557D-C54C-47B4-BFAF-0B1C1BA95C16";
paths = (
{
closed = 1;
nodes = (
"50 384 OFFCURVE",
"61 494 OFFCURVE",
"90 576 OFFCURVE",
"141 635 OFFCURVE",
"182 658 QCURVE",
"194 665 OFFCURVE",
"232 681 OFFCURVE",
"277 697 OFFCURVE",
"326 712 OFFCURVE",
"349 718 QCURVE",
"365 722 OFFCURVE",
"406 735 OFFCURVE",
"447 752 OFFCURVE",
"482 772 OFFCURVE",
"494 783 QCURVE",
"519 751 LINE",
"504 737 OFFCURVE",
"465 716 OFFCURVE",
"420 699 OFFCURVE",
"374 685 OFFCURVE",
"352 679 QCURVE",
"315 668 OFFCURVE",
"253 648 OFFCURVE",
"227 636 QCURVE",
"192 620 OFFCURVE",
"141 578 OFFCURVE",
"108 512 OFFCURVE",
"91 417 OFFCURVE",
"90 349 QCURVE",
"109 392 OFFCURVE",
"163 445 OFFCURVE",
"224 475 OFFCURVE",
"285 484 OFFCURVE",
"311 484 QCURVE",
"363 483 OFFCURVE",
"443 446 OFFCURVE",
"498 382 OFFCURVE",
"526 296 OFFCURVE",
"526 246 QCURVE",
"526 191 OFFCURVE",
"494 98 OFFCURVE",
"433 31 OFFCURVE",
"345 -7 OFFCURVE",
"288 -7 QCURVE",
"217 -7 OFFCURVE",
"125 45 OFFCURVE",
"71 132 OFFCURVE",
"50 248 OFFCURVE",
"50 311 QCURVE"
);
},
{
closed = 1;
nodes = (
"336 29 OFFCURVE",
"410 64 OFFCURVE",
"459 123 OFFCURVE",
"485 200 OFFCURVE",
"485 243 QCURVE",
"485 284 OFFCURVE",
"461 358 OFFCURVE",
"414 413 OFFCURVE",
"345 446 OFFCURVE",
"300 446 QCURVE",
"253 446 OFFCURVE",
"179 411 OFFCURVE",
"128 353 OFFCURVE",
"101 276 OFFCURVE",
"101 234 QCURVE",
"101 192 OFFCURVE",
"126 118 OFFCURVE",
"174 62 OFFCURVE",
"244 29 OFFCURVE",
"288 29 QCURVE"
);
}
);
width = 575;
}
);
},
{
color = (166, 255, 153, 255);
glyphname = g_alt;
layers = (
{
layerId = "0CBE557D-C54C-47B4-BFAF-0B1C1BA95C16";
paths = (
{
closed = 1;
nodes = (
"495 527 LINE",
"537 527 LINE",
"537 6 LINE",
"537 -56 OFFCURVE",
"511 -153 OFFCURVE",
"454 -221 OFFCURVE",
"364 -257 OFFCURVE",
"300 -257 QCURVE",
"231 -257 OFFCURVE",
"134 -219 OFFCURVE",
"99 -195 QCURVE",
"118 -160 LINE",
"163 -193 OFFCURVE",
"257 -221 OFFCURVE",
"304 -221 QCURVE",
"360 -221 OFFCURVE",
"434 -187 OFFCURVE",
"477 -126 OFFCURVE",
"495 -42 OFFCURVE",
"495 7 QCURVE",
"495 125 LINE",
"479 86 OFFCURVE",
"430 35 OFFCURVE",
"373 5 OFFCURVE",
"313 -7 OFFCURVE",
"287 -7 QCURVE",
"222 -7 OFFCURVE",
"133 39 OFFCURVE",
"78 116 OFFCURVE",
"53 214 OFFCURVE",
"53 266 QCURVE",
"54 320 OFFCURVE",
"84 417 OFFCURVE",
"144 491 OFFCURVE",
"234 534 OFFCURVE",
"294 534 QCURVE",
"320 534 OFFCURVE",
"374 525 OFFCURVE",
"426 499 OFFCURVE",
"474 455 OFFCURVE",
"494 421 QCURVE"
);
},
{
closed = 1;
nodes = (
"239 498 OFFCURVE",
"166 458 OFFCURVE",
"118 392 OFFCURVE",
"95 308 OFFCURVE",
"95 265 QCURVE",
"95 217 OFFCURVE",
"116 131 OFFCURVE",
"164 66 OFFCURVE",
"239 29 OFFCURVE",
"293 29 QCURVE",
"341 29 OFFCURVE",
"415 69 OFFCURVE",
"466 135 OFFCURVE",
"493 220 OFFCURVE",
"493 265 QCURVE",
"493 314 OFFCURVE",
"468 399 OFFCURVE",
"418 462 OFFCURVE",
"341 498 OFFCURVE",
"290 498 QCURVE"
);
}
);
width = 610;
}
);
},
{
color = (166, 255, 153, 255);
glyphname = y;
layers = (
{
layerId = "0CBE557D-C54C-47B4-BFAF-0B1C1BA95C16";
paths = (
{
closed = 1;
nodes = (
"524 527 LINE",
"524 -6 LINE",
"524 -125 OFFCURVE",
"416 -258 OFFCURVE",
"294 -258 QCURVE",
"241 -258 OFFCURVE",
"134 -228 OFFCURVE",
"92 -196 QCURVE",
"111 -160 LINE",
"152 -189 OFFCURVE",
"244 -220 OFFCURVE",
"293 -220 QCURVE",
"345 -220 OFFCURVE",
"417 -191 OFFCURVE",
"462 -137 OFFCURVE",
"482 -60 OFFCURVE",
"482 -11 QCURVE",
"482 107 LINE",
"463 70 OFFCURVE",
"413 25 OFFCURVE",
"358 0 OFFCURVE",
"301 -8 OFFCURVE",
"274 -8 QCURVE",
"215 -8 OFFCURVE",
"136 32 OFFCURVE",
"89 100 OFFCURVE",
"70 191 OFFCURVE",
"70 241 QCURVE",
"70 527 LINE",
"112 527 LINE",
"112 267 LINE",
"112 222 OFFCURVE",
"123 136 OFFCURVE",
"159 70 OFFCURVE",
"226 29 OFFCURVE",
"282 29 QCURVE",
"338 30 OFFCURVE",
"414 71 OFFCURVE",
"461 138 OFFCURVE",
"482 226 OFFCURVE",
"482 274 QCURVE",
"482 527 LINE"
);
}
);
width = 597;
}
);
unicode = 0079;
},
{
color = (166, 255, 153, 255);
glyphname = t2.alt;
layers = (
{
layerId = "0CBE557D-C54C-47B4-BFAF-0B1C1BA95C16";
paths = (
{
closed = 1;
nodes = (
"166 527 LINE",
"347 527 LINE",
"347 492 LINE",
"166 492 LINE",
"166 170 LINE",
"166 144 OFFCURVE",
"172 94 OFFCURVE",
"193 54 OFFCURVE",
"235 29 OFFCURVE",
"270 29 QCURVE",
"288 29 OFFCURVE",
"329 39 OFFCURVE",
"343 49 QCURVE",
"358 16 LINE",
"338 3 OFFCURVE",
"292 -7 OFFCURVE",
"264 -7 QCURVE",
"224 -7 OFFCURVE",
"171 16 OFFCURVE",
"138 59 OFFCURVE",
"124 120 OFFCURVE",
"124 158 QCURVE",
"124 492 LINE",
"31 492 LINE",
"31 527 LINE",
"124 527 LINE",
"124 685 LINE",
"166 685 LINE"
);
}
);
width = 379;
}
);
},
{
color = (166, 255, 153, 255);
glyphname = f_alt;
layers = (
{
layerId = "0CBE557D-C54C-47B4-BFAF-0B1C1BA95C16";
paths = (
{
closed = 1;
nodes = (
"128 0 LINE",
"128 492 LINE",
"35 492 LINE",
"35 527 LINE",
"128 527 LINE",
"128 597 LINE",
"128 635 OFFCURVE",
"142 700 OFFCURVE",
"176 747 OFFCURVE",
"234 774 OFFCURVE",
"278 774 QCURVE",
"304 774 OFFCURVE",
"342 764 OFFCURVE",
"358 756 QCURVE",
"343 723 LINE",
"329 730 OFFCURVE",
"294 739 OFFCURVE",
"274 739 QCURVE",
"240 738 OFFCURVE",
"199 713 OFFCURVE",
"177 675 OFFCURVE",
"170 626 OFFCURVE",
"170 601 QCURVE",
"170 527 LINE",
"348 527 LINE",
"348 492 LINE",
"170 492 LINE",
"170 0 LINE"
);
}
);
width = 366;
}
);
},
{
color = (166, 255, 153, 255);
glyphname = hyphen.uc;
layers = (
{
layerId = "0CBE557D-C54C-47B4-BFAF-0B1C1BA95C16";
paths = (
{
closed = 1;
nodes = (
"80 355 LINE",
"360 355 LINE",
"360 318 LINE",
"80 318 LINE"
);
}
);
width = 440;
}
);
},
{
color = (166, 255, 153, 255);
glyphname = uni00AD.uc;
layers = (
{
layerId = "0CBE557D-C54C-47B4-BFAF-0B1C1BA95C16";
paths = (
{
closed = 1;
nodes = (
"80 355 LINE",
"360 355 LINE",
"360 318 LINE",
"80 318 LINE"
);
}
);
width = 440;
}
);
},
{
color = (166, 255, 153, 255);
glyphname = endash.uc;
layers = (
{
layerId = "0CBE557D-C54C-47B4-BFAF-0B1C1BA95C16";
paths = (
{
closed = 1;
nodes = (
"80 355 LINE",
"488 355 LINE",
"488 318 LINE",
"80 318 LINE"
);
}
);
width = 568;
}
);
},
{
color = (166, 255, 153, 255);
glyphname = emdash.uc;
layers = (
{
layerId = "0CBE557D-C54C-47B4-BFAF-0B1C1BA95C16";
paths = (
{
closed = 1;
nodes = (
"80 355 LINE",
"681 355 LINE",
"681 318 LINE",
"80 318 LINE"
);
}
);
width = 761;
}
);
},
{
color = (166, 255, 153, 255);
glyphname = a_alt;
layers = (
{
layerId = "0CBE557D-C54C-47B4-BFAF-0B1C1BA95C16";
paths = (
{
closed = 1;
nodes = (
"95 105 OFFCURVE",
"120 64 OFFCURVE",
"159 39 OFFCURVE",
"207 28 OFFCURVE",
"230 28 QCURVE",
"271 28 OFFCURVE",
"347 51 OFFCURVE",
"405 97 OFFCURVE",
"440 168 OFFCURVE",
"440 215 QCURVE",
"440 265 LINE",
"409 264 OFFCURVE",
"337 261 OFFCURVE",
"264 254 OFFCURVE",
"196 243 OFFCURVE",
"170 233 QCURVE",
"136 220 OFFCURVE",
"95 169 OFFCURVE",
"95 135 QCURVE"
);
},
{
closed = 1;
nodes = (
"438 87 LINE",
"417 58 OFFCURVE",
"365 22 OFFCURVE",
"309 1 OFFCURVE",
"251 -7 OFFCURVE",
"226 -7 QCURVE",
"191 -7 OFFCURVE",
"128 9 OFFCURVE",
"81 43 OFFCURVE",
"53 96 OFFCURVE",
"53 134 QCURVE",
"53 175 OFFCURVE",
"89 230 OFFCURVE",
"145 265 OFFCURVE",
"214 283 OFFCURVE",
"246 288 QCURVE",
"280 293 OFFCURVE",
"376 299 OFFCURVE",
"438 301 QCURVE",
"438 344 OFFCURVE",
"421 416 OFFCURVE",
"383 468 OFFCURVE",
"321 498 OFFCURVE",
"276 498 QCURVE",
"234 498 OFFCURVE",
"154 472 OFFCURVE",
"131 432 QCURVE",
"84 432 LINE",
"95 460 OFFCURVE",
"135 499 OFFCURVE",
"188 523 OFFCURVE",
"248 534 OFFCURVE",
"278 534 QCURVE",
"335 534 OFFCURVE",
"413 495 OFFCURVE",
"461 427 OFFCURVE",
"482 338 OFFCURVE",
"482 287 QCURVE",
"482 0 LINE",
"438 0 LINE"
);
}
);
width = 552;
}
);
leftKerningGroup = _kern27;
rightKerningGroup = _kern27;
},
{
color = (166, 255, 153, 255);
glyphname = uni0490;
layers = (
{
layerId = "0CBE557D-C54C-47B4-BFAF-0B1C1BA95C16";
paths = (
{
closed = 1;
nodes = (
"93 0 LINE",
"93 707 LINE",
"485 707 LINE",
"485 861 LINE",
"528 861 LINE",
"528 669 LINE",
"135 669 LINE",
"135 0 LINE"
);
}
);
width = 561;
}
);
leftKerningGroup = _kern23;
rightKerningGroup = _kern23;
unicode = 0490;
},
{
color = (166, 255, 153, 255);
glyphname = uni0491;
layers = (
{
layerId = "0CBE557D-C54C-47B4-BFAF-0B1C1BA95C16";
paths = (
{
closed = 1;
nodes = (
"73 0 LINE",
"73 527 LINE",
"380 527 LINE",
"380 672 LINE",
"420 672 LINE",
"420 492 LINE",
"115 492 LINE",
"115 0 LINE"
);
}
);
width = 449;
}
);
leftKerningGroup = _kern24;
rightKerningGroup = _kern24;
unicode = 0491;
},
{
color = (166, 255, 153, 255);
glyphname = uni0406;
layers = (
{
layerId = "0CBE557D-C54C-47B4-BFAF-0B1C1BA95C16";
paths = (
{
closed = 1;
nodes = (
"135 0 LINE",
"93 0 LINE",
"93 707 LINE",
"135 707 LINE"
);
}
);
width = 228;
}
);
unicode = 0406;
},
{
color = (166, 255, 153, 255);
glyphname = uni0456;
layers = (
{
layerId = "0CBE557D-C54C-47B4-BFAF-0B1C1BA95C16";
paths = (
{
closed = 1;
nodes = (
"123 726 OFFCURVE",
"145 704 OFFCURVE",
"145 687 QCURVE",
"145 669 OFFCURVE",
"123 648 OFFCURVE",
"105 648 QCURVE",
"88 648 OFFCURVE",
"65 669 OFFCURVE",
"65 687 QCURVE",
"65 706 OFFCURVE",
"88 726 OFFCURVE",
"105 726 QCURVE"
);
},
{
closed = 1;
nodes = (
"83 527 LINE",
"125 527 LINE",
"125 0 LINE",
"83 0 LINE"
);
}
);
width = 210;
}
);
unicode = 0456;
},
{
color = (166, 255, 153, 255);
glyphname = uni0404;
layers = (
{
layerId = "0CBE557D-C54C-47B4-BFAF-0B1C1BA95C16";
paths = (
{
closed = 1;
nodes = (
"312 679 OFFCURVE",
"206 630 OFFCURVE",
"135 547 OFFCURVE",
"98 436 OFFCURVE",
"96 373 QCURVE",
"473 373 LINE",
"473 335 LINE",
"96 335 LINE",
"99 272 OFFCURVE",
"135 160 OFFCURVE",
"205 77 OFFCURVE",
"309 28 OFFCURVE",
"379 28 QCURVE",
"412 28 OFFCURVE",
"479 42 OFFCURVE",
"539 71 OFFCURVE",
"588 117 OFFCURVE",
"602 149 QCURVE",
"651 149 LINE",
"634 108 OFFCURVE",
"577 49 OFFCURVE",
"504 10 OFFCURVE",
"421 -8 OFFCURVE",
"378 -8 QCURVE",
"295 -8 OFFCURVE",
"173 47 OFFCURVE",
"93 143 OFFCURVE",
"54 275 OFFCURVE",
"54 353 QCURVE",
"54 431 OFFCURVE",
"95 563 OFFCURVE",
"177 660 OFFCURVE",
"298 715 OFFCURVE",
"379 715 QCURVE",
"421 715 OFFCURVE",
"502 697 OFFCURVE",
"570 660 OFFCURVE",
"623 600 OFFCURVE",
"638 558 QCURVE",
"594 558 LINE",
"565 620 OFFCURVE",
"452 679 OFFCURVE",
"383 679 QCURVE"
);
}
);
width = 699;
}
);
unicode = 0404;
},
{
color = (166, 255, 153, 255);
glyphname = uni0454;
layers = (
{
layerId = "0CBE557D-C54C-47B4-BFAF-0B1C1BA95C16";
paths = (
{
closed = 1;
nodes = (
"238 -7 OFFCURVE",
"146 33 OFFCURVE",
"84 105 OFFCURVE",
"53 204 OFFCURVE",
"53 262 QCURVE",
"53 320 OFFCURVE",
"85 420 OFFCURVE",
"148 493 OFFCURVE",
"242 534 OFFCURVE",
"304 534 QCURVE",
"371 534 OFFCURVE",
"474 471 OFFCURVE",
"497 408 QCURVE",
"451 408 LINE",
"434 455 OFFCURVE",
"350 498 OFFCURVE",
"300 498 QCURVE",
"250 498 OFFCURVE",
"175 464 OFFCURVE",
"124 405 OFFCURVE",
"97 325 OFFCURVE",
"95 279 QCURVE",
"368 279 LINE",
"368 244 LINE",
"95 244 LINE",
"97 199 OFFCURVE",
"125 121 OFFCURVE",
"176 63 OFFCURVE",
"252 29 OFFCURVE",
"303 29 QCURVE",
"356 29 OFFCURVE",
"440 71 OFFCURVE",
"460 118 QCURVE",
"506 118 LINE",
"480 54 OFFCURVE",
"367 -7 OFFCURVE",
"300 -7 QCURVE"
);
}
);
width = 551;
}
);
unicode = 0454;
},
{
color = (166, 255, 153, 255);
glyphname = uni0407;
layers = (
{
layerId = "0CBE557D-C54C-47B4-BFAF-0B1C1BA95C16";
paths = (
{
closed = 1;
nodes = (
"137 0 LINE",
"95 0 LINE",
"95 707 LINE",
"137 707 LINE"
);
},
{
closed = 1;
nodes = (
"62 847 OFFCURVE",
"82 826 OFFCURVE",
"82 812 QCURVE",
"82 797 OFFCURVE",
"63 776 OFFCURVE",
"46 776 QCURVE",
"29 776 OFFCURVE",
"10 797 OFFCURVE",
"10 812 QCURVE",
"10 827 OFFCURVE",
"29 847 OFFCURVE",
"46 847 QCURVE"
);
},
{
closed = 1;
nodes = (
"202 847 OFFCURVE",
"222 826 OFFCURVE",
"222 812 QCURVE",
"222 797 OFFCURVE",
"202 776 OFFCURVE",
"186 776 QCURVE",
"169 776 OFFCURVE",
"149 797 OFFCURVE",
"149 812 QCURVE",
"149 828 OFFCURVE",
"168 847 OFFCURVE",
"186 847 QCURVE"
);
}
);
width = 233;
}
);
unicode = 0407;
},
{
color = (166, 255, 153, 255);
glyphname = uni0457;
layers = (
{
layerId = "0CBE557D-C54C-47B4-BFAF-0B1C1BA95C16";
paths = (
{
closed = 1;
nodes = (
"87 527 LINE",
"129 527 LINE",
"129 0 LINE",
"87 0 LINE"
);
},
{
closed = 1;
nodes = (
"59 713 OFFCURVE",
"81 693 OFFCURVE",
"81 676 QCURVE",
"81 661 OFFCURVE",
"60 638 OFFCURVE",
"43 638 QCURVE",
"26 638 OFFCURVE",
"5 659 OFFCURVE",
"5 676 QCURVE",
"5 693 OFFCURVE",
"26 713 OFFCURVE",
"43 713 QCURVE"
);
},
{
closed = 1;
nodes = (
"190 713 OFFCURVE",
"211 693 OFFCURVE",
"211 676 QCURVE",
"211 659 OFFCURVE",
"191 638 OFFCURVE",
"174 638 QCURVE",
"157 638 OFFCURVE",
"136 661 OFFCURVE",
"136 676 QCURVE",
"136 694 OFFCURVE",
"158 713 OFFCURVE",
"174 713 QCURVE"
);
}
);
width = 217;
}
);
unicode = 0457;
},
